<?xml version="1.0" encoding="utf-8"?>
<!-- Generator: Adobe Illustrator 19.1.0, SVG Export Plug-In . SVG Version: 6.00 Build 0)  -->
<svg version="1.1" id="レイヤー_1" xmlns="http://www.w3.org/2000/svg" xmlns:xlink="http://www.w3.org/1999/xlink" x="0px"
	 y="0px" viewBox="-226 293.8 141.7 255.1" style="enable-background:new -226 293.8 141.7 255.1;" xml:space="preserve">
<style type="text/css">
	.st0{clip-path:url(#SVGID_2_);}
	.st1{fill:#FFFFFF;}
	.st2{fill:none;}
	.st3{stroke:#000000;stroke-width:0.2155;stroke-miterlimit:10;}
	.st4{fill:#FFFFFF;stroke:#FFFFFF;stroke-width:5;stroke-linecap:round;stroke-linejoin:round;stroke-miterlimit:10;}
	.st5{font-family:"ro-shino-std";}
	.st6{font-size:30px;glyph-orientation-vertical:0;writing-mode:tb;}
	.st7{font-family:'ArialMT';}
	.st8{font-size:5.6031px;}
	.st9{font-size:10px;}
	.st10{enable-background:new    ;}
</style>
<g id="ol">
	<g>
		<g>
			<g>
				<g>
					<g>
						<g>
							<g>
								<g>
									<defs>
										<rect id="SVGID_1_" x="-217.5" y="310.4" width="124.7" height="232.4"/>
									</defs>
									<clipPath id="SVGID_2_">
										<use xlink:href="#SVGID_1_"  style="overflow:visible;"/>
									</clipPath>
									<g class="st0">
										<g>
											<path d="M-150.6,309.4c-0.2,0.4-0.5,0.7-0.3,1.3c1.4,4.9-1.7,18.9-3,19.7c-0.8,1.3-3.3,1-5.2,1.3
												c-1.6,0.3-3.3,0.5-4.9,0.4c-0.3,0.7-0.2,1.5-0.4,2.2c-0.5,2.2-2,3.9-3.9,4.9c-0.5,0.4-0.7,1.3-1.3,1.7
												c-0.9,0.6-2,0.3-3.4,0.6c-0.5,0.1-1,0.6-1.5,0.8c-1.1,0.3-2.1,0-2.9,0.3c-0.1,2.1,0,4.1-0.9,5.8
												c-0.7,0.8-1.6,1.7-2.5,2.4c-0.3,0.2-0.7,0.4-1,0.6c-0.5,0.4-1,0.9-1.8,1.1c-0.9,0.2-1.8,0.1-2.7,0.3
												c-1.6,0.2-3.2,0.6-4.9,0.3c-0.2,1,0.1,1.8,0.3,2.7c-1.2,1.5-1.7,3.7-4.3,4c0.6,0.6,1.4,0.3,2.2,0.4
												c0.6,0.1,1.5,0.5,2,0.8c0.3,0.2,0.4,0.5,0.7,0.6c0.8,0.5,1.9,0.4,2,1.7c0.6,0.6,1.3,1.2,1.7,2.1c-0.4,0.8,0,1.7-0.2,2.4
												c-0.3,0.8-1.1,1.4-1.2,2.4c-0.8,0.7-1.6,1.4-2.5,2c-1.1,0.4-2.4,0.5-3.8,0.9s-2.4,0.7-4,0.9c-2.6,0.4-5.1,0-7.8-0.2
												c-0.3,0.6-0.7,1.3-1.3,1.7c0.1,0.5-0.4,0.8-0.6,1.2c-0.1,0.3-0.1,0.6-0.2,0.7c-0.4,0.6-0.9,0.9-1.5,1.2
												c-0.8,0.5-1.7,1.5-2.6,1.9c-0.3,0.1-0.6,0.2-0.9,0.3c-0.6,0.3-1.2,0.8-2.2,0.9c-0.4,0-0.7,0-1,0c-0.9,0-1.8,0.2-2.8,0.6
												c-0.3,0.1-0.5,0.3-0.8,0.4c-2,0.6-4.2-0.1-6.1-0.5c-0.3,0.1-0.6,0.2-0.9,0.4c-0.3-0.5-0.7-0.8-0.7-1.7
												c0-0.2,0.1-0.4,0.1-0.7c0-1-0.4-2-0.4-2.9c0-0.5,0.2-1,0.1-1.6c-0.1-1.2-0.3-2.3-0.5-3.4c0-0.3,0.3,0,0.2-0.3
												c0.1-0.4-0.2,0-0.2-0.2c-0.6-3.6-0.3-7.2,0.1-10.8c0.1-0.5-0.1-1,0-1.6c0.1-0.5,0.2-0.9,0.3-1.4c0.1-0.7,0.4-1.3,0.5-2
												c0.1-0.5,0-1.1,0.1-1.6c0.1-0.6,0.3-1.4,0.3-2.1c0-0.5-0.1-1-0.1-1.6c0-0.7,0.2-2.1,0-3.1c-0.1-0.4-0.3-0.6-0.3-0.9
												c0-0.4,0.4-1.1,0.3-1.4c0,0.1,0.1-1.2,0.2-1.6s0.5-0.9,0.5-1.4c0.1-0.6,0-1.2,0.3-1.7c-0.3-1.8-0.1-3.5-0.4-5.4
												c0.2-0.2,0.3-0.4,0.3-0.8c0.7-1,1.1-2.3,1.8-3.4c0.7-0.6,0.9-1.6,1.6-2.2c0-0.6,0.3-12.3,0.5-12.7
												c-0.6-1.3,1.3-7.1,2.1-8.2c2.6-2.2,6.2-3.8,10.2-4.7c1.5-0.4,3.1-0.5,4.8-0.6c2.4-0.2,4.6-0.7,7.1-0.6
												c1.9,0.1,3.9,0.4,6.1,0.4c2.8,0.1,5.6,0.1,8.4,0c1.4-0.1,2.8,0,4.1-0.1c1.4-0.1,2.7-0.4,4.1-0.4c4.4-0.2,8.5,0.4,13,0.8
												c0.7,0.1,1.4,0,2.1,0.1c0.6,0,1.3,0.2,1.9,0.3c1.6,0.1,2.8-0.1,4,0.2c0.5,0.1,1.3,0.4,1.8,0.6c0.7,0.4,1.2,1.1,1.7,1.9
												c-0.5,0.5,0.4,1.1-0.2,1.5C-151,307.8-151,308.8-150.6,309.4z M-159.7,330.7c1.2-0.2,2.4-0.1,3.4-0.4
												c1.1-0.3,1.8-1.1,2.6-1.8c0.5-0.5,1-12.2,1.3-12.6c0.9-1.6-0.5-7.7,0-9.3c-0.5-0.5-0.3-1.2-0.3-1.8
												c-0.5,0-1.1-0.3-1.5-0.7c-0.7,0.4-1.1-0.5-1.6-0.6c-0.6-0.1-1.4,0.3-2,0.3s-1.2-0.4-1.8-0.4c-0.8-0.1-1.7,0.1-2.5,0.1
												c-1.2,0-2.2-0.4-3.4-0.6c-2-0.2-4.1-0.3-6-0.4c-1.4-0.1-2.7,0.1-3.8,0c-2.2,0.8-5.2,0.4-8,0.5c-0.3,0-0.6,0.1-0.9,0.1
												c-3.1,0.2-6.1,0.1-9-0.1c-1.5-0.1-2.9-0.4-4.3-0.4c-1.6-0.1-3.6,0.3-5.4,0.5s-3.5,0-5.1,0.2s-3,1-4.3,1.6
												c-1.5,0.8-3.4,0.8-4.7,1.4c-0.8,0.4-1.2,1-1.8,1.5c-1.6,1.6-2.2,19.9-3.5,21.6c-0.1,1.5-1.2,2.5-1.8,3.7
												c-1,1.9-0.9,4-1,6.9c0,1.3-0.4,2.1-0.7,3.3c-0.3,1.4-0.5,2.9-0.4,4.2c0,0.7,0.2,1.5,0.2,2.2c0,0.9,0.2,2,0.1,2.9
												c-0.1,0.8-0.4,1.5-0.5,2.2c0,0.3,0.1,0.5,0.1,0.7c-0.1,1.3-0.5,2.6-0.7,3.8c-0.2,1.5-0.4,2.9-0.4,3.8
												c0,0.1-0.1,0.2-0.1,0.2c-0.1,1.5-0.1,3.2-0.1,4.7c0,1.7,0.5,3.4,0.7,5.1c0.1,0.8,0.2,1.7,0.3,2.5
												c0.1,0.8,0.3,1.7,0.3,2.5c0,1.1-0.4,2.2-0.1,3.2c1.8,0.4,3.3-0.2,5.3,0.1c1.3-0.4,2.4-1,3.8-1.1c0.6-0.1,1.4,0.1,2.1,0
												c0.3-0.1,0.8-0.4,1.2-0.6c1.8-0.8,3.9-1.8,4.8-3.3c0.1-0.3,0.1-0.6,0.3-0.9c0.4-0.8,1.3-1.4,1.5-2.2
												c-1.1-0.4-2.2-0.4-3.2-0.9c-2-1-3.1-3.4-2.1-5.8c0.1-0.3,0.5-0.8,0.8-1.1c1.3-1.5,3.2-2.1,5.7-2.1c0.7,0,1.3-0.3,2-0.3
												c1.5-0.1,2.6,0.5,3.7,0.8c0,0.5,0.6,0.6,0.7,1c0.1,0.2,0.1,0.5,0.1,0.8c0.2,1,0.1,1.5-0.3,2.4c-0.7,0.6-2,1.4-3.3,1.6
												c-2,0.3-3.7-0.5-4.1-1.9c0.4,0.3,0.8,0.3,1.2,0.6c0.3,0.2,0.4,0.5,0.7,0.6c2.2,0.8,4.8-1.1,4.4-3.1
												c-0.1-0.8-1.4-1.8-2.2-2c-0.7-0.1-1.6,0.2-2.3,0.3c-0.9,0.1-1.9,0-2.7,0.2c-1.5,0.3-3.2,2.5-3.4,3.8
												c-0.1,0.6-0.1,1.4,0.1,2c0.4,1.8,3.3,2.3,5.3,2.6c2.3,0.3,4.7,0.6,6.7,0.4c2.3-0.3,4.4-0.9,6.3-1.4
												c2.2-0.6,3.4-2.4,4.6-3.9c0.1-0.7,0.3-1.1,0.3-1.6c0-1.2-0.9-1.7-1.1-2.9c-0.3-0.4-0.8-0.5-1.2-0.7
												c-0.2-0.1-0.2-0.4-0.4-0.6c-0.4-0.4-1.6-1.3-2-1.5c-1.2-0.5-2.6,0.1-4.4-0.3c0.3-0.6-0.1-0.5-0.4-0.9
												c0.2-0.4,0.9-0.5,1.5-0.4c1.2-0.3,1.8-1,2.5-1.8c0.4-0.5,1.1-1.1,1.2-1.6c0.2-0.6,0-1.3,0.1-1.9c0.1-0.4,0.3-0.6,0.3-1
												c-1.4,0-3.1-0.4-4.2-1.1c-0.3-0.2-0.5-0.5-0.8-0.7c-0.5-0.3-1.1-0.4-1.6-0.7c-1.2-0.7-1.6-1.9-1.8-3.5
												c-0.3-1.9,0.9-2.7,1.6-4c0.4-0.2,0.8-0.8,1.5-1s2.4-0.6,3.4-0.7c0.3,0,0.6,0,0.9,0c0.4-0.1,0.8-0.2,1.2-0.2
												c1.2-0.1,1.7,0.3,2.3,0.6c0.4,0.2,0.8,0.1,1.1,0.4c0.3,0.2,0.4,0.6,0.7,0.8c0.3,1.1,0.8,2.1,0.5,3.2
												c-0.1,0.4-0.7,1-1.1,1.2c-1,0.6-2.8,0.8-3.8,0.7c-1.3-0.1-1.6-0.7-2.2-1.3c-0.1-0.1-0.4-0.2-0.3-0.4
												c0.9-0.3,0.9,0.7,1.7,0.9c0.7,0.2,2.6-0.1,3.1-0.4c1-0.5,1.3-2.4,0.7-3.5c-1.2-0.8-2.6-1.4-4.2-1.4
												c-0.6,0-1.4-0.1-2.1,0.1c-0.9,0.2-1.6,1.1-2,1.7c-0.1,0.2-0.4,0.4-0.5,0.6c-0.3,0.4-0.8,1-0.9,1.4
												c-0.6,1.5,0.2,2.9,0.6,4.1c0.8,0.6,2,0.7,2.8,1.2c0.3,0.2,0.5,0.5,0.7,0.6c1.5,0.7,3.3,0.5,5.2,0.6
												c1.3,0.1,2.1-0.1,3.3-0.3c1-0.1,2-0.2,2.7-0.4c1-0.3,2.1-1.5,2.8-2.1c0.6-0.6,1.2-1,1.6-1.7c0.6-1.2,0.6-2.5,1-3.8
												c0.2-0.5,0.6-1,0.4-1.6c0-0.3-0.3-0.2-0.4-0.3c1.6-0.4,3.1-1,4.9-1.4c0.7-0.1,1.9,0,2.6-0.3c0.6-0.2,0.9-1,1.5-1.5
												s1.4-0.8,2-1.4s0.8-1.3,1.5-1.9c0.5-1.1,0.5-2.7,1-3.8C-163.7,331.2-161.7,331-159.7,330.7z M-218.9,307.5
												c0.1-0.2,0.4-0.2,0.4-0.4C-218.7,307.1-219,307.3-218.9,307.5z"/>
											<path d="M-159,307.2c-0.6-0.4,0.3-1-0.2-1.5c0.5-0.8,0.9-1.5,1.7-1.9c0.4-0.2,1.3-0.5,1.8-0.6c1.1-0.3,2.4-0.1,4-0.2
												c0.6,0,1.3-0.2,1.9-0.3c0.7,0,1.4,0,2.1-0.1c4.6-0.4,8.6-1,13-0.8c1.4,0.1,2.7,0.3,4.1,0.4s2.7,0.1,4.1,0.1
												c2.8,0.1,5.6,0.1,8.4,0c2.1-0.1,4.1-0.3,6.1-0.4c2.5-0.1,4.8,0.3,7.1,0.6c1.7,0.2,3.3,0.3,4.9,0.6
												c4,0.9,7.6,2.6,10.2,4.7c0.7,1.1,2.7,6.9,2.4,8.4c0.2,0.4,0.5,12.1,0.5,12.7c0.7,0.6,0.9,1.6,1.6,2.2
												c0.7,1,1.1,2.3,1.8,3.4c-0.1,0.4,0.1,0.6,0.3,0.8c-0.3,1.9-0.1,3.6-0.4,5.4c0.3,0.5,0.3,1.1,0.3,1.7
												c0.1,0.5,0.5,0.9,0.5,1.4c0.1,0.4,0.2,1.7,0.2,1.6c-0.1,0.4,0.2,1.1,0.3,1.4c0,0.4-0.2,0.6-0.3,0.9c-0.2,0.9,0,2.3,0,3.1
												c0,0.5-0.1,1.1-0.1,1.6c0,0.7,0.2,1.5,0.3,2.1c0.1,0.5,0,1.1,0.1,1.6c0.1,0.6,0.4,1.3,0.5,2c0.1,0.5,0.2,0.9,0.3,1.4
												c0.1,0.5-0.1,1,0,1.6c0.5,3.6,0.8,7.2,0.1,10.8c0,0.3-0.3-0.1-0.2,0.2c-0.1,0.3,0.2,0,0.2,0.3c-0.2,1-0.5,2.2-0.5,3.4
												c0,0.5,0.1,1,0.1,1.6c0,0.9-0.4,2-0.4,2.9c0,0.2,0.1,0.5,0.1,0.7c0,1-0.4,1.2-0.7,1.7c-0.2-0.2-0.5-0.3-0.9-0.4
												c-1.8,0.4-4.1,1.1-6.1,0.5c-0.3-0.1-0.5-0.3-0.8-0.4c-0.9-0.3-1.8-0.5-2.8-0.6c-0.3,0-0.7,0-1,0c-1-0.1-1.6-0.6-2.2-0.9
												c-0.3-0.1-0.6-0.2-0.9-0.3c-0.9-0.5-1.7-1.4-2.6-1.9c-0.6-0.4-1.2-0.6-1.6-1.2c-0.1-0.2-0.1-0.5-0.2-0.7
												c-0.2-0.4-0.7-0.7-0.6-1.2c-0.6-0.4-0.9-1-1.3-1.7c-2.6,0.2-5.2,0.6-7.8,0.2c-1.7-0.3-2.6-0.5-4-0.9s-2.7-0.5-3.8-0.9
												c-0.9-0.6-1.7-1.3-2.5-2c-0.1-0.9-0.9-1.5-1.2-2.4c-0.2-0.8,0.2-1.6-0.2-2.4c0.4-0.8,1.1-1.4,1.7-2.1
												c0-1.3,1.1-1.2,2-1.7c0.3-0.2,0.4-0.5,0.7-0.6c0.6-0.3,1.4-0.7,2-0.8c0.8-0.1,1.6,0.2,2.2-0.4c-2.6-0.2-3.1-2.5-4.3-4
												c0.1-0.8,0.5-1.7,0.3-2.7c-1.7,0.3-3.2-0.1-4.9-0.3c-0.9-0.1-1.8,0-2.7-0.3c-0.8-0.2-1.3-0.7-1.8-1.1
												c-0.3-0.3-0.7-0.4-1-0.6c-0.9-0.7-1.8-1.6-2.5-2.4c-0.9-1.7-0.8-3.7-0.9-5.8c-0.8-0.2-1.8,0.1-2.9-0.3
												c-0.6-0.2-1-0.7-1.5-0.8c-1.3-0.3-2.5,0-3.4-0.6c-0.6-0.4-0.8-1.3-1.3-1.7c-1.9-1-3.4-2.7-3.9-4.9
												c-0.2-0.8-0.1-1.5-0.4-2.2c-1.6,0.1-3.3-0.1-4.9-0.4c-1.9-0.3-4.4,0-5.2-1.3c-1.4-0.8-4.4-14.8-3-19.7
												c0.2-0.6-0.1-1-0.3-1.3C-159.4,308.8-159.4,307.8-159,307.2z M-145.2,331.8c0.5,1.1,0.5,2.7,1,3.8
												c0.7,0.5,0.9,1.3,1.5,1.9s1.4,0.9,2,1.4s0.8,1.2,1.5,1.5s1.9,0.1,2.6,0.3c1.8,0.3,3.3,1,4.9,1.4c-0.1,0.1-0.4,0-0.4,0.3
												c-0.2,0.6,0.2,1.1,0.4,1.6c0.4,1.3,0.4,2.6,1,3.8c0.4,0.7,0.9,1.1,1.6,1.7s1.8,1.9,2.8,2.1c0.7,0.2,1.7,0.2,2.7,0.4
												c1.3,0.2,2,0.4,3.3,0.3c1.8-0.1,3.7,0.1,5.2-0.6c0.3-0.1,0.5-0.5,0.7-0.6c0.9-0.5,2-0.6,2.8-1.2c0.4-1.2,1.2-2.6,0.6-4.1
												c-0.1-0.3-0.7-1-0.9-1.4c-0.1-0.2-0.4-0.3-0.5-0.6c-0.4-0.6-1.1-1.6-2-1.7c-0.6-0.1-1.5-0.1-2.1-0.1
												c-1.5,0-2.9,0.5-4.2,1.4c-0.6,1.1-0.3,3,0.7,3.5c0.5,0.3,2.4,0.5,3.1,0.4c0.8-0.2,0.8-1.3,1.7-0.9
												c0.1,0.2-0.2,0.3-0.3,0.4c-0.6,0.6-0.9,1.2-2.2,1.3c-1,0.1-2.8-0.2-3.8-0.7c-0.5-0.3-1-0.8-1.1-1.2
												c-0.4-1,0.2-2.1,0.5-3.2c0.3-0.3,0.4-0.6,0.7-0.8c0.3-0.2,0.8-0.2,1.1-0.4c0.6-0.2,1.1-0.6,2.3-0.6
												c0.4,0,0.8,0.2,1.2,0.2c0.3,0,0.6,0,0.9,0c1,0.1,2.7,0.5,3.4,0.7c0.6,0.2,1,0.8,1.5,1c0.7,1.3,1.8,2.1,1.5,4
												c-0.2,1.6-0.6,2.8-1.8,3.5c-0.5,0.3-1.1,0.4-1.6,0.7c-0.3,0.2-0.5,0.5-0.8,0.7c-1.2,0.7-2.8,1.1-4.2,1.1
												c0,0.4,0.3,0.6,0.3,1c0.1,0.6,0,1.3,0.1,1.9c0.1,0.5,0.8,1.1,1.2,1.6c0.7,0.8,1.3,1.5,2.5,1.8c0.6-0.1,1.3,0,1.5,0.4
												c-0.3,0.3-0.7,0.3-0.4,0.9c-1.8,0.3-3.2-0.3-4.4,0.3c-0.5,0.2-1.6,1.1-2,1.5c-0.2,0.2-0.2,0.4-0.4,0.6
												c-0.4,0.3-0.9,0.3-1.2,0.7c-0.2,1.1-1.1,1.7-1.1,2.9c0,0.5,0.2,0.9,0.3,1.6c1.2,1.5,2.4,3.3,4.6,3.9
												c1.8,0.5,3.9,1.1,6.3,1.4c1.9,0.3,4.3,0,6.7-0.4c2.1-0.3,4.9-0.8,5.3-2.6c0.1-0.6,0.2-1.4,0.1-2
												c-0.2-1.3-1.9-3.5-3.4-3.8c-0.8-0.2-1.8-0.1-2.7-0.2c-0.7-0.1-1.6-0.4-2.3-0.3c-0.7,0.2-2,1.2-2.2,2
												c-0.3,2,2.2,3.9,4.4,3.1c0.3-0.1,0.4-0.4,0.7-0.6c0.4-0.2,0.8-0.2,1.2-0.6c-0.4,1.4-2.2,2.2-4.1,1.9
												c-1.3-0.2-2.6-1-3.3-1.6c-0.4-0.8-0.6-1.3-0.3-2.4c0.1-0.3,0.1-0.6,0.1-0.8c0.2-0.4,0.7-0.5,0.7-1
												c1.1-0.4,2.2-0.9,3.7-0.8c0.6,0,1.3,0.3,2,0.3c2.5,0,4.4,0.6,5.7,2.1c0.3,0.3,0.7,0.8,0.8,1.1c1,2.4-0.1,4.8-2.1,5.8
												c-1,0.5-2.1,0.5-3.2,0.9c0.2,0.8,1.1,1.4,1.5,2.2c0.1,0.3,0.1,0.6,0.3,0.9c0.8,1.5,3,2.5,4.8,3.3
												c0.4,0.2,0.9,0.5,1.2,0.6c0.7,0.1,1.4-0.1,2.1,0c1.4,0.2,2.5,0.7,3.8,1.1c2.1-0.3,3.5,0.3,5.3-0.1c0.4-1-0.1-2.1-0.1-3.2
												c0-0.8,0.2-1.7,0.3-2.5c0.1-0.8,0.2-1.7,0.3-2.5c0.2-1.7,0.6-3.4,0.7-5.1c0-1.5,0-3.2-0.1-4.7c0-0.1-0.1-0.2-0.1-0.2
												c0-0.9-0.2-2.3-0.4-3.8c-0.2-1.2-0.6-2.5-0.7-3.8c0-0.2,0.1-0.5,0.1-0.7c-0.1-0.8-0.4-1.5-0.5-2.2
												c-0.1-0.9,0.1-2,0.1-2.9c0-0.8,0.2-1.5,0.2-2.2c0.1-1.3-0.1-2.9-0.4-4.2c-0.3-1.2-0.6-2-0.7-3.3c-0.1-2.9,0-5-1-6.9
												c-0.6-1.1-1.7-2.1-1.8-3.7c-1.3-1.8-1.9-20.1-3.4-21.6c-0.6-0.4-0.9-1.1-1.8-1.5c-1.3-0.6-3.2-0.7-4.7-1.4
												c-1.3-0.7-2.7-1.4-4.3-1.6s-3.4-0.1-5.1-0.2c-1.8-0.2-3.8-0.6-5.4-0.5c-1.4,0.1-2.9,0.4-4.3,0.4c-3,0.1-6,0.3-9,0.1
												c-0.3,0-0.6-0.1-0.9-0.1c-2.7-0.1-5.7,0.3-8-0.5c-1.2,0.1-2.5-0.1-3.8,0c-1.9,0.1-4,0.2-6,0.4c-1.1,0.1-2.1,0.6-3.4,0.6
												c-0.8,0-1.7-0.1-2.5-0.1c-0.6,0.1-1.2,0.4-1.8,0.4s-1.4-0.4-2-0.3c-0.5,0.1-0.9,1-1.6,0.6c-0.4,0.4-0.9,0.7-1.5,0.7
												c-0.1,0.6,0.2,1.4-0.3,1.8c0.5,1.6-1,7.7,0,9.3c0.3,0.4,0.8,12.2,1.3,12.6c0.8,0.7,1.5,1.5,2.6,1.8
												c1,0.2,2.2,0.2,3.4,0.4C-148.6,331-146.6,331.2-145.2,331.8z M-91.7,307c0,0.3,0.3,0.2,0.4,0.4
												C-91.2,307.3-91.7,307.1-91.7,307z"/>
											<g>
												<g>
													<g>
														<g id="XMLID_6_">
															<g>
																<path d="M-205.6,438c0.3,1.3-0.2,2.8-0.1,4.5c-0.2-0.4-0.4-0.7-0.4-1.3c0.7-2.5-0.7-4.1-0.8-6.3
																	c-0.5-0.4-1-2.2-0.2-2.2c0.7,0,0.9,1.9,1.1,2.2C-206.5,436.2-205.7,437.2-205.6,438z"/>
																<path d="M-212.2,406.5c-0.1-0.4-0.3-0.7-0.2-1.2c0-0.9,0.5-1.5,0.7-2.5c0.1-0.6,0-1.4-0.1-2.1
																	c-0.1-1.2-0.6-1.9-0.4-3c0.5,0.1,0.5,0.8,0.6,1.2c0.3,1.4,0.8,2.9,0.9,4.6c0,1.1-0.3,2.2-0.2,3.3
																	c0.2,2,0.9,3.9,0.7,5.6c1.1,0.4,1.9,1.7,2.7,2.7c0.5,0.7,0.9,1.3,0.8,2c0.2,0.1,0.4,0.1,0.5,0.3
																	c-0.1,0-0.1,0.2-0.1,0.4c0.6,2.7,1.9,4.9,1.6,8.1c-0.6-0.2-0.6-1.2-0.8-1.9c-0.3-0.8-1-1.3-1.1-2.1
																	c0-0.4,0.2-0.6,0.2-1c-0.3-1.6-1-2.6-1.2-4.2c-0.3-0.2-0.3-0.5-0.6-0.7c-0.3-0.3-0.9-0.3-1.2-0.5
																	c-0.5-0.3-0.5-1-1.1-1.2c0.1,1.6,0.3,3.1,0.5,4.5c0.1,1.1,0.2,2.3,0.5,3.4c0.3,0.8,0.8,1.4,1,2.2
																	c0.2,1.2-0.1,3.1,0.1,4.2c-0.2-0.6-0.5-0.7-0.7-1.2c0.2-2.2-0.9-3.6-1.5-5.1c-0.2-0.5-0.3-1.1-0.5-1.6
																	s-0.5-1-0.6-1.6c-0.1-0.9,0-1.6,0-2.7c0-0.5-0.1-1,0-1.5c0-0.4,0.2-0.7,0.2-1.1c0-0.7-0.3-1.5-0.2-2.2
																	c0-0.2,0.1-0.3,0.1-0.5c0-1-0.4-1.9-0.4-2.8C-212.1,407.7-212.1,407.1-212.2,406.5z"/>
																<path d="M-219.4,434.1c0.2,3.3-2,5.2-2.4,7.7c-0.3-0.7-0.4-1.4-0.3-2.3c0-0.6,0-1.3,0.1-1.9c0.1-1.5,0.8-2.8,1-4.4
																	c0.2-1.6,0.4-2.9,0.5-4.3c0-1.1-0.4-2.5,0.6-2.7c0.3,0.3,0,0.9,0,1.3c0,1.6,0.2,3.4-0.1,5
																	C-219.7,433.1-219.5,433.4-219.4,434.1z"/>
																<path d="M-220.2,407.1c0.7,1.5,0,3.5-0.2,5.5c-0.1,1.1,0,2.4-0.3,3.3c-0.3,0.8-0.8,1.3-1,2.1
																	c-0.2,0.7,0.1,1.8-0.4,2.2c0-0.7-0.3-1.5-0.2-2.2c0.1-0.8,0.3-1.4,0.4-2.1c0.1-0.9-0.2-1.8-0.1-2.7
																	c0-0.4,0.3-0.7,0.4-1.1c0.1-1.1-0.6-2.1-0.4-3.4c0.1-0.4,0.7-0.5,0.8-1c0.1-0.4-0.2-0.8-0.2-1.1c0.1-1.2,1-2,1-3.1
																	c0.4-0.3,0.4-0.9,0.9-1C-219.9,404-220.2,405.2-220.2,407.1z"/>
																<path d="M-194.1,469.7c0.1-2.4,0.1-5-0.2-7.4c0-0.3-0.2-0.5-0.3-0.8c-0.1-0.8,0-1.6,0-2.4c0-0.4-0.3-0.7-0.3-1.2
																	c-0.1-0.5,0-1-0.1-1.5c-0.1-0.7-0.3-1.3-0.4-2s0-1.5-0.2-2.2c-0.1-0.7-0.5-1.3-0.5-2.3c0-0.4,0.3-0.9,0.3-1.3
																	c0-0.2-0.1-0.4-0.2-0.7c-0.2-1-0.4-1.7-0.6-2.7c-0.2-0.8-0.2-1.6-0.3-2.2c-0.1-0.5-0.5-0.9-0.6-1.5
																	c-0.3-0.8-0.3-1.7-0.5-2.6c-0.1-0.4-0.3-0.8-0.3-1.2c0-0.3,0.1-0.6,0-0.8c0-1-0.2-2-0.2-2.9s-0.1-1.9-0.3-2.7
																	c0-0.2-0.2-0.4-0.2-0.6c-0.1-0.4,0-0.8,0-1.1c-0.2-0.7-0.7-1.6-0.9-2.4c-0.1-0.4,0-0.8-0.1-1.2s-0.3-0.8-0.4-1.2
																	c-0.1-0.6,0-1.2-0.1-1.8c0-0.3-0.2-0.6-0.2-0.9c-0.3-1.9-0.2-3.9-0.7-5.9c-0.6-0.7-1.5-1.1-2.2-1.9
																	c-0.1-0.1-0.1-0.3-0.2-0.4s-0.3-0.1-0.4-0.3c-0.3-0.3-0.8-1.1-1-1.5c-0.4-0.9-0.6-1.8-0.7-2.9
																	c0-0.3-0.2-0.6-0.2-0.9c0-0.2,0.1-0.5,0.1-0.7c0-0.8-0.3-1.6-0.4-2.4c-0.1-0.9-0.1-1.8-0.2-2.8
																	c-0.2-1.8-0.6-3.4-0.9-5.1c-0.2-0.8-0.5-1.5-0.7-2.2c-0.2-0.9-0.3-1.7-0.6-2.5c-0.3-0.7-0.8-1.2-0.8-2
																	c-1.5-0.1-2.4-0.7-3.8-1c-0.4-0.1-0.9-0.4-1.2-0.4s-0.6,0.7-1,1c-0.2,0.2-0.7,0.5-1.1,0.8c-0.7,0.6-1.1,1.1-2.1,1.4
																	c-0.5,1.7-0.5,3.6-0.9,5.2c-0.1,0.3-0.3,0.5-0.4,0.9c-0.3,0.9-0.4,1.8-1,2.4c-0.3,0.3-0.6,0.3-0.9,0.6
																	s-0.3,0.9-0.6,1.3c-0.3,0.5-0.6,0.7-1,1c-0.5,1.3-0.9,2.6-1.2,4.2c-0.1,0.6-0.1,1.3-0.2,1.9
																	c-0.1,0.6-0.3,1.2-0.4,1.9c-0.2,1.3-0.5,2.5-0.7,3.8c-0.2,1.1-0.4,2.2-0.7,3.3c0.1,0.6,0,1.3-0.3,1.7
																	c0,0.1,0.2,0.1,0.3,0.2c-0.6,0.4-0.5,1.7-0.7,2.6c-0.4,1.5-1,2.9-1.3,4.4c-0.2,0.7-0.3,1.4-0.6,2.1
																	c0,0.3-0.1,0.4,0,0.5c-0.1,0.2-0.3,0.2-0.5,0.4c-0.2,0.3-0.3,0.8-0.4,1.2c-0.7,1.6-2.1,2.8-2.9,4.4
																	c-0.3,0.6-0.3,1.4-1.2,1.3c0.1,1.1-0.2,2.1-0.4,3.1c-0.3,1.6-0.6,3.1-0.8,4.8c-0.1,0.5-0.2,1-0.3,1.5
																	c-0.1,0.5-0.4,0.9-0.5,1.3c-0.3,1.3,0.1,2.8-0.1,4.1c-0.2,1.1-0.6,2.1-0.6,3.3c0,0.6,0.1,1.2,0,1.8
																	c-0.1,0.5-0.2,1-0.2,1.5c-0.1,0.8,0,1.6-0.2,2.4c-0.1,0.7-0.4,1.2-0.5,1.8c-0.2,1.3-0.3,2.7-0.4,4.2
																	c-0.1,0.6,0,1.3-0.1,2c0,0.3-0.2,0.7-0.3,1c-0.1,0.9-0.1,1.9-0.5,2.6c0,0.4,0.1,0.7,0,1.1c0,0.1,0,0.1,0,0.1v0.1
																	c1,0.1,1.8-0.3,2.7-0.4c1-0.1,2.1,0,2.9,0c0.6,0,1.2-0.2,1.9-0.3c0.7,0,1.4,0.1,2.2,0c0.6-0.1,1.2-0.2,1.9-0.3
																	c2.1-0.2,4.1,0,6.1-0.1c1.5-0.1,3.2-0.4,4.9-0.6c1.1-0.1,2.3,0.1,3.4,0c2.6-0.2,5.1-0.9,7.2-0.9
																	c1.1,0,2.3,0.2,3.5,0.2c0.8,0,1.6,0.1,2.3,0.2c1.4,0.3,2.2,0.9,4,0.8c1.3-0.1,2.8-0.3,2.3-1.7
																	c0-0.4,0.4-0.3,0.4-0.7C-193.7,470.3-193.9,470-194.1,469.7z M-193.2,464.4c0.5,2.3-0.1,5.9,0.9,7.3
																	c-0.2,0-0.2-0.1-0.4-0.1c-0.4,0.9-0.9,1.7-1.7,2c-0.3,0.1-0.7,0-1.1,0.1s-0.8,0.2-1.1,0.3c-1.3,0-2.4-0.7-3.5-1
																	c-0.3-0.1-0.6,0-1-0.1c-0.3-0.1-0.6-0.2-1-0.3c-0.7-0.1-1.4,0-2.1,0s-1.4-0.2-2.1-0.1c-1.2,0-2.4,0.4-3.6,0.5
																	c-1.3,0.1-2.6,0.4-4,0.4c-0.9,0-1.9-0.2-2.9-0.1c-0.5,0.1-1.1,0.3-1.6,0.4c-0.5,0-1,0-1.6,0c-0.5,0-1,0.2-1.5,0.3
																	c-1.7,0.2-3.6,0-5.3,0.1c-1.1,0-2.1,0.3-3.1,0.3c-0.7,0-1.4,0-2.1,0.1s-1.3,0.3-2,0.3c-1,0-1.9-0.1-2.9,0.1
																	c-0.8,0.2-1.8,0.9-2.7,0.6c-0.9,1.5-1.4-0.6-1.4-1.7c0-1.7,0.7-3.4,0.8-4.9c0.1-1.5,0.2-3.1,0.3-4.7
																	c0.1-1.6,0.3-3.1,0.5-4.6c0.1-0.8,0.1-1.5,0.2-2.3c0.1-0.7,0.3-1.5,0.4-2.2c0.2-1.5,0.7-2.8,1-4.1
																	c0.2-1,0.2-2,0.4-2.9s0.6-1.6,0.8-2.4c0.2-0.9,0.3-2,0.6-2.9c-0.3-0.8,0.1-1.8,0.3-2.9c0.3-1.3,0.5-2.6,0.3-3.3
																	c1.4-2.1,2.8-4.1,4.2-6.2c0.2-0.1,0.5,0,0.7-0.1c0.2-0.6,0.4-1.1,0.7-1.6c0.1-1.3,0.3-2.2,0.6-3.1
																	c0.2-0.6,0.5-1.1,0.6-1.6c0.1-0.6,0-1.4,0.1-2.1c0.1-0.4,0.3-0.8,0.5-1.1c-0.6-1,0-2.1,0.3-3.2
																	c0.2-0.7,0.5-1.5,0.6-2.2c0.3-1.9,0.2-3.7,0.8-5.4c-0.2-0.1-0.1-0.2-0.2-0.5c-0.2-1.6,0.2-3.7,0.8-4.7
																	c0-0.2-0.1-0.3,0-0.4c0.4-0.4,0.4-0.9,0.7-1.2c0.3-0.4,1-0.5,1.1-1.2c0.4-0.2,0.8-0.5,1-1c0.7-0.3,1.6-0.9,2-1.4
																	c0.2-0.4,0.3-1.2,0.4-1.5c0.2-0.3,0.4-0.5,0.5-0.8s0-0.8,0.4-1c0-0.6,0.3-0.9,0.3-1.5c0-0.7-0.2-1.7-0.1-2.4
																	c0.1-0.9,1-1.3,1.2-2.2c1.2-0.9,1.9-2.2,3.4-2.8c1.2,0,2,0.6,3.2,0.8c1.3,0.3,1.9,0.6,2.7,1.4
																	c0.4,0.4,0.8,0.8,0.8,1.3s-0.2,0.5-0.3,0.8c1.6,3.9,2.4,8.4,3.6,12.7c0.3,1.1,0.7,2.4,0.8,3.5
																	c0.1,1.7-0.4,3.4,0.4,4.6c0.1,0,0.1,0.1,0.1,0.1c-0.3,0.1,0.1,0.6,0.4,0.4c0.7,0.9,2.2,1.4,2.9,2.6
																	c0.3,0.5,0.5,1.4,0.7,2.3c0.2,0.9,0.5,1.7,0.6,2.5c0.2,1.2,0,2.7,0.2,4c0.1,0.9,0.2,1.8,0.3,2.6
																	c0.2,1.2,0.8,2.3,1,3.7c0.2,1.8,0.2,3.5,0.3,5.2c0.1,1.8,0.3,3.5,0.7,5.2c0.1,0.6,0.5,1.2,0.7,1.9
																	c0.2,0.6,0.4,1.3,0.5,2c0.3,1.2,0.8,3.4,0.7,4.6c-0.1,0.6-0.3,0.9-0.3,1.3c0,0.6,0.3,1.4,0.4,2.2
																	c0.2,1.5,0.5,2.9,0.7,4.4c0.1,0.8,0.3,1.5,0.3,2.3c0,0.7-0.1,1.3-0.1,2C-193.7,462.7-193.5,463.5-193.2,464.4z"/>
															</g>
														</g>
													</g>
													<g>
														<g>
															<g id="XMLID_5_">
																<g>
																	<path class="st1" d="M-201.9,451.1c-0.6,0.3-0.7,1.2-1.2,1.6c-0.1,1-0.8,1.2-0.8,2.1c-0.1,0.7,0.5,1.4,0.4,2.1
																		c0,0.6-0.3,1.2-0.4,1.7c0,0.5,0.3,0.8,0.2,1.3c0.5-0.9,0.8-2.6,0.9-3.6c0-0.5-0.1-1-0.1-1.5
																		c0.2-1.4,1.1-2.4,1.4-3.5c0-0.1,0.2,0,0.2-0.1c0-0.3,0-0.6,0-0.9c-0.2,0.1-0.4,0-0.7,0
																		C-202.1,450.7-202,450.8-201.9,451.1z M-202,445.8c0.1-1-0.2-2-0.2-3.2c0-1.4,0.3-2.9,0.5-3.9
																		c0.1-0.5,0.2-1.3,0.4-1.6c0.4-0.6,1.1-0.6,1.7-1.1c1.9,0.4,3.1-1.2,4.1-2.3c0.5,0.1,0.9,0.3,1.2,0.6
																		c0,1,0.4,1.6,0.4,2.8c0.6,1,1.2,2,1.6,3.2c0.1,0.3,0.3,0.5,0.3,0.8c0.1,0.5,0,1,0.1,1.5c0.1,0.8,0.8,1.5,0.3,2.4
																		c0.4,1,0.4,2.4,0.5,3.6c0.1,0.5,0.3,1.1,0.4,1.7c0.1,0.8,0,1.7,0.1,2.4s0.3,1.2,0.3,1.8c0,0.4-0.2,0.7-0.1,1
																		c0.1,0.4,0.8,0.7,1.1,0.9c0.5,0.3,0.9,0.6,1.4,0.7c0.6,0.9,1.6,1.3,2,2.3c0.5,0.3,1,0.6,1.4,1
																		c-0.2,1.3,0.6,2.5,0.7,3.8c0.1,0.5,0.1,1.1,0.2,1.6c0.1,1.1-0.1,2.4,0.1,3.5c0.2,0.9,0.6,1.7,0.8,2.5
																		c0.2,1,0.4,2,0.5,3c0.2,1,0.3,1.8,0.3,2.8c0.1,2.5,0.6,5.2,0.6,7.8c0,0.7,0,1.6,0,2.3c-0.1,0.4-0.2,0.8-0.2,1.1
																		c0,0.4,0.4,1.2,0.6,1.6c0.2,0.4,0.7,0.7,0.8,1.2c0.1,1-0.8,0.9-1.9,0.9c-0.9,0-1.8,0-2.7,0c-2.5,0-4.7,0.3-6.8,0
																		c-1.6-0.2-3.2-0.8-4.8-1c-3.8-0.4-7.9-0.2-12.7-0.4c-1.5-0.1-2.9-0.4-4.1-0.6c-0.6-0.1-1.2,0-1.7-0.4
																		c0,0,0,0,0-0.1c0.2-0.3,0.1-0.6,0.2-1c0.1-0.8,0.5-1.7,0.7-2.5c0.1-0.6,0.1-1.3,0.3-1.8c0.2-0.8,0.6-1.5,0.8-2.2
																		c0.6-2.2,0.3-4.7,0.9-6.8c0.2-0.6,0.4-1.1,0.6-1.7c0.3-0.7,0.2-1.3,0.4-2c0.3-1.7,0.9-3.4,1.3-5.3
																		c0.7-4.2,1.8-7.4,1.5-12c0.4-0.7,1-1,1.4-1.7c0.3-0.5,0.5-1.1,0.7-1.6c0-0.1,0.1-0.1,0.1-0.2
																		c0.5-0.7,1.4-1.1,1.6-2C-202.6,448.9-202.2,447.7-202,445.8z M-196.7,445.7c0,0.1-0.1,0.4-0.1,0.6
																		c-0.1,0.8-0.3,1-0.7,1.5c-0.1,1.2,0.3,1.8,0.5,2.6c-0.2,1.3,0.3,3-0.5,4.1c0.3,1-0.4,1.7-0.1,2.6
																		c0.7-1.5,0.7-3.3,1.4-4.7c0.3-0.7,0.7-0.9,0.8-1.6c0.1-0.6,0.1-1.3,0.2-1.9c0.1-0.8,0.2-1.7,0.2-2.4
																		c0-1.7-1.2-2.9-1.2-4.9c0-0.6,0.3-1.2-0.1-1.8c-0.3-0.2-0.4,0.2-0.6,0.4c0.2,0.9-0.4,1.5-0.3,2.3
																		C-197.5,443.5-196.7,444.8-196.7,445.7z M-189.4,464.1c0,0.2-0.1,0.3-0.1,0.5c0.3,1.3,0.6,2.3,0.5,3.5
																		c-0.1,1.1-0.7,2.1-0.4,3.1c0.2,0.5,0.5,1.1,0.9,1.6c0.5,0.7,1,1.1,1.3,1.9c0.4-0.6,0-1.4-0.2-2.1
																		c0.1-1-0.5-1.6-0.6-2.5c-0.1-0.6,0-1.4-0.1-2.1c0-0.7-0.2-1.4-0.3-2.1c-0.1-1.6-0.2-2.1-0.8-3.6
																		c-0.2-0.5-0.5-1.4-0.7-1.5c-0.7-0.3-0.1,1.1,0.2,1.2C-189.7,462.8-189.6,463.5-189.4,464.1z"/>
																	<path d="M-203.9,454.8c-0.1,0.7,0.5,1.4,0.4,2.1c0,0.6-0.3,1.2-0.4,1.7c0,0.5,0.3,0.8,0.2,1.3
																		c0.5-0.9,0.8-2.6,0.9-3.6c0-0.5-0.1-1-0.1-1.5c0.2-1.4,1.1-2.4,1.4-3.5c0-0.1,0.2,0,0.2-0.1c0-0.3,0-0.6,0-0.9
																		c-0.2,0.1-0.4,0-0.7,0c-0.2,0.4-0.1,0.5,0,0.8c-0.6,0.3-0.7,1.2-1.2,1.6C-203.1,453.6-203.7,453.9-203.9,454.8z"/>
																	<path d="M-196.9,446.3c-0.1,0.8-0.3,1-0.7,1.5c-0.1,1.2,0.3,1.8,0.5,2.6c-0.2,1.3,0.3,3-0.5,4.1
																		c0.3,1-0.4,1.7-0.1,2.6c0.7-1.5,0.7-3.3,1.4-4.7c0.3-0.7,0.7-0.9,0.8-1.6c0.1-0.6,0.1-1.3,0.2-1.9
																		c0.1-0.8,0.2-1.7,0.2-2.4c0-1.7-1.2-2.9-1.2-4.9c0-0.6,0.3-1.2-0.1-1.8c-0.3-0.2-0.4,0.2-0.6,0.4
																		c0.2,0.9-0.4,1.5-0.3,2.3c0,0.9,0.7,2.2,0.7,3.1C-196.7,445.8-196.7,446.1-196.9,446.3z"/>
																	<path d="M-189.2,456.5c0.5,0.3,0.9,0.6,1.4,0.7l0.1-0.2c-0.1,0-0.1-0.1-0.2-0.2c-0.6-2.6-1.3-5.7-1.8-8.9
																		c-0.5-3.1-0.5-6.6-1.7-9c-0.2-0.5-0.6-0.8-0.9-1.3c-0.2-0.5-0.5-1.3-0.7-1.9c-0.2-0.9-0.1-1.5-0.7-2.1
																		c-0.4-0.4-1.5-1-2-0.9c-0.2,0-0.3,0.3-0.5,0.5c-0.2,0.1-0.4,0.1-0.6,0.2s-0.5,0.4-0.7,0.5c-0.6,0.4-1,0.5-1.3,1.1
																		c-0.3,0.2-0.7,0.2-1,0.4c-0.6,0.7-1.7,1-2.3,1.7c-0.2,0.5,0,0.9-0.2,1.5c-0.1,0.3-0.2,0.4-0.3,0.7
																		c-0.1,0.2,0,0.5,0,0.7c-0.1,0.3-0.3,0.6-0.3,0.8c-0.1,0.7,0,1.4-0.1,2c0,0.5-0.2,1.1-0.3,1.7
																		c-0.2,0.9-0.3,1.7-0.6,2.6c-0.3,0.5-0.5,1-1,1.3c0.1,0.2,0.1,0.5,0.3,0.6c-0.5,0.6-1,1.4-1.5,2.1l0.3,0.2
																		c0-0.1,0.1-0.1,0.1-0.2c0.5-0.7,1.4-1.1,1.6-2c1.7-0.3,2.1-1.6,2.3-3.4c0.1-1-0.2-2-0.2-3.2c0-1.4,0.3-2.9,0.5-3.9
																		c0.1-0.5,0.2-1.3,0.4-1.6c0.4-0.6,1.1-0.6,1.7-1.1c1.9,0.4,3.1-1.2,4.1-2.3c0.5,0.1,0.9,0.3,1.2,0.6
																		c0,1,0.4,1.6,0.4,2.8c0.6,1,1.2,2,1.6,3.2c0.1,0.3,0.3,0.5,0.3,0.8c0.1,0.5,0,1,0.1,1.5c0.1,0.8,0.8,1.5,0.3,2.4
																		c0.4,1,0.4,2.4,0.5,3.6c0.1,0.5,0.3,1.1,0.4,1.7c0.1,0.8,0,1.7,0.1,2.4s0.3,1.2,0.3,1.8c0,0.4-0.2,0.7-0.1,1
																		C-190.2,455.9-189.6,456.3-189.2,456.5z"/>
																	<path d="M-188,468c0-0.7-0.2-1.4-0.3-2.1c-0.1-1.6-0.2-2.1-0.8-3.6c-0.2-0.5-0.5-1.4-0.7-1.5
																		c-0.7-0.3-0.1,1.1,0.2,1.2c-0.2,0.7,0,1.4,0.2,2c0,0.2-0.1,0.3-0.1,0.5c0.3,1.3,0.6,2.3,0.5,3.5
																		c-0.1,1.1-0.7,2.1-0.4,3.1c0.2,0.5,0.5,1.1,0.9,1.6c0.5,0.7,1,1.1,1.3,1.9c0.4-0.6,0-1.4-0.2-2.1
																		c0.1-1-0.5-1.6-0.6-2.5C-188,469.5-188,468.8-188,468z"/>
																	<path d="M-185.9,459.5c0.5,0.3,1,0.6,1.4,1c-0.2,1.3,0.6,2.5,0.7,3.8c0.1,0.5,0.1,1.1,0.2,1.6
																		c0.1,1.1-0.1,2.4,0.1,3.5c0.2,0.9,0.6,1.7,0.8,2.5c0.2,1,0.4,2,0.5,3c0.2,1,0.3,1.8,0.3,2.8
																		c0.1,2.5,0.6,5.2,0.6,7.8c0,0.7,0,1.6,0,2.3c-0.1,0.4-0.2,0.8-0.2,1.1c0,0.4,0.4,1.2,0.6,1.6
																		c0.2,0.4,0.7,0.7,0.8,1.2c0.1,1-0.8,0.9-1.9,0.9c-0.9,0-1.8,0-2.7,0c-2.5,0-4.7,0.3-6.8,0c-1.6-0.2-3.2-0.8-4.8-1
																		c-3.8-0.4-7.9-0.2-12.7-0.4c-1.5-0.1-2.9-0.4-4.1-0.6c-0.6-0.1-1.2,0-1.7-0.4c0,0,0,0,0-0.1c0.2-0.3,0.1-0.6,0.2-1
																		c0.1-0.8,0.5-1.7,0.7-2.5c0.1-0.6,0.1-1.3,0.3-1.8c0.2-0.8,0.6-1.5,0.8-2.2c0.6-2.2,0.3-4.7,0.9-6.8
																		c0.2-0.6,0.4-1.1,0.6-1.7c0.3-0.7,0.2-1.3,0.4-2c0.3-1.7,0.9-3.4,1.3-5.3c0.7-4.2,1.8-7.4,1.5-12
																		c0.4-0.7,1-1,1.4-1.7c0.3-0.5,0.5-1.1,0.7-1.6l-0.3-0.2c-0.2,0.4-0.5,0.7-0.7,1.1c-0.3,0.4-0.6,0.9-0.9,1.2
																		c-0.2,0.3-0.5,0.4-0.7,0.7c-0.5,0.9-0.4,2.1-0.7,3.4c-0.2,1.2-0.8,2.3-1,3.4c-0.3,2-0.6,3.9-1.1,5.8
																		c-0.4,1.9-0.8,3.8-1.2,5.8c-0.1,0.8-0.5,1.4-0.7,2.1c-0.3,1.1-0.3,2.2-0.3,3.3c0,1,0.3,2.1,0.3,3.2
																		c0,0.6-0.3,1.3-0.5,2s-0.4,1.3-0.5,2c-0.4,1.6-1,2.8-1.2,4.6c-0.3,0.3,0.1,0.7,0.2,0.9c1.1,0.2,2.4,0.1,3.6,0.3
																		c0.2,0,0.4,0.2,0.7,0.3c0.7,0.2,1.5,0,2.4,0.1c0.7,0.1,1.5,0.3,2.1,0.4c1.5,0.1,3.1,0,4.7,0c0.9,0,1.8,0.2,2.8,0.2
																		c1.3,0,2.4,0,3.6,0.3c1.4,0.3,2.6,0.8,4.3,1c2.3,0.3,4.7-0.2,6.9-0.1c0.7,0,1.3,0,2.2-0.2c1-0.2,1.8,0,2.3-0.9
																		c0.3,0.1,0.7,4.8,1.9,4.2c0.4-0.6-0.1-1.2-0.2-1.7c-0.1-0.9-1.2-5.7-1.2-6.7c-0.2-2.7-0.7-5.3-1-7.9
																		s-0.8-5-1.5-7.4c-0.2-0.8-0.5-1.6-0.6-2.3c-0.2-1.1,0-2.2-0.1-3.2c-0.1-0.5-0.2-0.9-0.2-1.4
																		c-0.1-0.4,0-0.9-0.1-1.3c-0.2-0.9-0.7-1.7-0.9-2.7c-0.2-1.2-0.1-1.9-0.9-2.6c-0.9-0.8-2.4-1.5-3.5-2.3l-0.1,0.2
																		C-187.2,458.1-186.2,458.5-185.9,459.5z"/>
																</g>
															</g>
														</g>
														<path class="st1" d="M-180.2,491.3c0.6,0.2,0.9,1.3,0.9,1.5c0,0.1-6.2,1.8-6.2,1.8l-18.3-1.9l0.8-3.4
															C-203,489.2-181.4,491-180.2,491.3z"/>
													</g>
													<g>
														<g id="XMLID_4_">
															<g>
																<path d="M-211.7,464.1c0.1-1.8,0.1-3.6-0.3-5.5c-0.1-0.5-0.4-1.3-0.4-2.2c0-0.4-0.1-1.2,0.4-1.3
																	c0.3,0.2,0.1,0.6,0.1,1c0.1,1.4,0.2,3.1,0.8,4.1c0.2,0.8,0.1,1.5,0.1,2.3c0,0.5,0.2,1.1,0.3,1.7c0,0.5-0.1,1,0,1.3
																	c0.2,0.8,0.6,1.2,0.7,1.7c0.4,1.6-0.1,3.7,0.3,5.5c0.5,0.5,0.5,1,0.1,1.7c-0.8-1.4-0.9-3.2-1.4-5.2
																	c-0.2-0.9-0.6-1.7-0.7-2.5C-211.9,466-211.7,465.1-211.7,464.1z"/>
																<path d="M-218.9,464.4c0,0.3,0.2,0.3,0.2,0.5c0,0.3-0.2,0.3-0.3,0.5c0.1,1,0.1,1.9,0,2.9c-0.1,0.9-0.6,1.7-0.6,2.5
																	c0,0.3,0.2,0.7,0.3,1c0.1,0.6-0.4,1.2-0.5,1.9c0,0.2,0,0.4,0,0.6c-0.1,0.4-0.4,1-0.6,1.7c-0.2,0.5-0.4,1.3-0.6,1.7
																	c-0.2,0.3-0.5,0.7-0.7,1.1c0.2-1.1,0.5-2.1,0.4-3.2c0-0.3-0.2-0.5-0.2-0.8c-0.2-2.1,1.1-3.8,1.3-6
																	c0.1-0.6,0-1.2,0.1-1.7c0.1-0.7,0.5-1.2,0.6-1.9c0.2-0.9-0.1-1.7,0.8-1.8C-218.5,463.8-218.7,464.1-218.9,464.4z"/>
																<path class="st1" d="M-218.7,463.4c-0.8,0.1-0.6,0.9-0.8,1.8c-0.2,0.7-0.5,1.1-0.6,1.9c-0.1,0.5,0,1.1-0.1,1.7
																	c-0.2,2.2-1.5,3.9-1.3,6c0,0.3,0.2,0.6,0.2,0.8c0.1,1-0.2,2.1-0.4,3.2c0.2-0.4,0.5-0.8,0.7-1.1
																	c0.2-0.4,0.3-1.1,0.6-1.7c0.3-0.6,0.5-1.2,0.6-1.7c0-0.2,0-0.4,0-0.6c0.1-0.7,0.6-1.3,0.5-1.9c0-0.3-0.3-0.7-0.3-1
																	c0-0.7,0.5-1.6,0.6-2.5c0.1-1,0.1-2,0-2.9c0.1-0.2,0.3-0.3,0.3-0.5s-0.2-0.3-0.2-0.5
																	C-218.7,464.1-218.5,463.8-218.7,463.4z M-217.7,448.2c1.7-0.3,3,0.8,4.3,1.2c0.3,0.1,0.8,0,1,0.1
																	c0.3,0.2,0.6,0.8,0.9,1.2s0.7,0.7,0.7,1.2c1.3,0.4,2.3,1.3,3.3,2c0.3,0.6,0.5,1.2,1.1,1.4c-0.1,0.3-0.2,0.6-0.3,0.8
																	c0.7,0.9,0.3,2.3,0.5,3.8c0,0.4,0.2,0.7,0.3,1.1c0.3,1.5,0.6,3.1,0.8,4.6c0.1,0.8,0,1.6,0.1,2.4
																	c0.1,0.7,0.4,1.4,0.5,2.1c0.1,0.6-0.1,1.3,0,1.9c0.3,2.4,1.5,4.4,1.9,6.5c0.2,1.4-0.1,3-0.1,4.7c0,1,0,1.9-0.1,2.8
																	c0,0.4-0.2,0.8-0.2,1.1c0,1.1,0.5,2.2,0.8,3.5c0.1,0.5,0,0.9,0.1,1.4c0.2,1.1,0.9,2.3,1,3.8c0,0.4-0.1,0.7-0.1,1.1
																	c0.2,1.8,0.8,3.5,1.1,5.2c0.1,1,0.1,2,0.4,2.9c0.4,1.2,0.7,2.6,0.8,4.1c0,1.1-0.3,2-0.2,2.9
																	c-0.3,0.5-0.4,1.3-0.6,1.9c-3.5,1-6.8,0.3-10.2,0c-3.2-0.3-6.8-0.1-10,0.5c-2.1,0.4-4.1,1-6.4,0.8
																	c-1.2-0.2-2.4-0.6-3.7-0.5c-0.1-0.1,0-0.8-0.4-0.9c-0.1-1,0.5-1.8,0.6-2.9c0-0.8-0.2-1.6-0.2-2.3
																	c0-0.2,0.1-0.5,0.2-0.7c0.1-0.7,0-1.4,0.1-2c0-0.3,0.2-0.6,0.3-1c0.1-1.1-0.2-2-0.2-3.1c0.3-1.1,0.6-2.2,0.8-3.4
																	c0.2-1.7,0.8-3.3,0.9-4.7s0.1-2.9,0.1-4.3c0-0.9,0.2-1.8,0.2-2.6c0-0.3-0.1-0.6-0.1-0.8c0.1-1.7,1.4-3.3,2-4.8
																	c0.5-1.5,0.7-3.1,1.1-4.7c0.2-0.8,0.5-1.5,0.6-2.3c0.6-2.9-0.3-6.6,0.8-9.4c1-0.9,2.2-1.5,3.1-2.6
																	c0.5-0.8,0.6-2,1.3-2.5c0.1-0.7,0-1.5,0-2.2c0-0.5,0.2-1,0.3-1.5c0-0.3-0.1-0.7-0.1-1s0.2-0.6,0.3-0.9
																	c0.1-0.5-0.1-0.9-0.1-1.3c0-0.4,0.3-0.8,0.3-1.2c0.1-0.3,0-0.6,0-0.8C-218.2,450.1-217.7,449.1-217.7,448.2z
																	 M-212.1,455.2c-0.5,0.1-0.4,0.9-0.4,1.3c0,0.9,0.3,1.6,0.4,2.2c0.4,1.9,0.4,3.7,0.3,5.5c0,1-0.2,1.9-0.1,2.7
																	s0.5,1.6,0.7,2.5c0.5,2,0.6,3.7,1.4,5.2c0.3-0.6,0.3-1.2-0.1-1.7c-0.4-1.8,0.1-3.9-0.3-5.5c-0.1-0.5-0.5-1-0.7-1.7
																	c-0.1-0.4,0-0.9,0-1.3c0-0.6-0.3-1.2-0.3-1.7c0-0.8,0.1-1.5-0.1-2.3c-0.6-1-0.7-2.7-0.8-4.1
																	C-212,455.8-211.7,455.4-212.1,455.2z"/>
																<path d="M-199.4,512.2c-0.1-0.9,0.2-1.8,0.2-2.9c0-1.5-0.3-3-0.8-4.1c-0.3-0.9-0.2-1.9-0.4-2.9
																	c-0.3-1.7-0.9-3.4-1.1-5.2c0-0.4,0.1-0.7,0.1-1.1c-0.1-1.5-0.8-2.7-1-3.8c-0.1-0.4,0-0.9-0.1-1.4
																	c-0.2-1.2-0.8-2.4-0.8-3.5c0-0.4,0.2-0.8,0.2-1.1c0.1-0.9,0-1.9,0.1-2.8c0-1.7,0.4-3.3,0.1-4.7
																	c-0.4-2.1-1.6-4.1-1.9-6.5c-0.1-0.6,0.1-1.3,0-1.9c-0.1-0.7-0.4-1.4-0.5-2.1c-0.1-0.8,0-1.6-0.1-2.4
																	c-0.1-1.5-0.4-3-0.8-4.6c-0.1-0.4-0.3-0.7-0.3-1.1c-0.2-1.5,0.2-2.9-0.5-3.8c0.1-0.3,0.1-0.6,0.3-0.8
																	c-0.6-0.2-0.8-0.8-1.1-1.4c-1-0.8-2-1.6-3.3-2c0-0.5-0.4-0.8-0.7-1.2c-0.3-0.4-0.6-1-0.9-1.2c-0.2-0.1-0.6,0-1-0.1
																	c-1.3-0.4-2.6-1.5-4.3-1.2c-0.1,0.9-0.6,1.9-0.8,2.9c0,0.3,0.1,0.6,0,0.8c-0.1,0.4-0.3,0.8-0.3,1.2s0.1,0.9,0.1,1.3
																	c0,0.3-0.2,0.6-0.3,0.9c0,0.3,0.1,0.7,0.1,1c0,0.5-0.3,1-0.3,1.5c0,0.7,0.1,1.5,0,2.2c-0.7,0.5-0.9,1.7-1.3,2.5
																	c-0.9,1-2.1,1.7-3.1,2.6c-1.2,2.8-0.2,6.5-0.8,9.4c-0.2,0.8-0.5,1.5-0.6,2.3c-0.4,1.5-0.6,3.2-1.1,4.7
																	c-0.6,1.5-1.9,3.1-2,4.8c0,0.3,0.1,0.5,0.1,0.8c0,0.8-0.2,1.7-0.2,2.6c-0.1,1.4,0,2.8-0.1,4.3
																	c-0.1,1.4-0.7,3-0.9,4.7c-0.1,1.2-0.4,2.3-0.8,3.4c0,1,0.3,2,0.2,3.1c0,0.3-0.2,0.6-0.3,1c-0.1,0.6,0,1.4-0.1,2
																	c0,0.2-0.2,0.5-0.2,0.7c0,0.8,0.2,1.6,0.2,2.3c-0.1,1-0.7,1.8-0.6,2.9c0.4,0.1,0.3,0.8,0.4,0.9
																	c1.4-0.1,2.6,0.3,3.7,0.5c2.4,0.3,4.3-0.3,6.4-0.8c3.2-0.7,6.8-0.8,10-0.5c3.5,0.3,6.8,1,10.2,0
																	C-199.7,513.5-199.7,512.6-199.4,512.2z M-197.7,511.7c0,0.4-0.5,0.2-0.6,0.5c-0.1,0.5-0.4,0.9-0.3,1.4
																	c0,0.5,0.6,0.7,0.4,1.2c-0.7,0.9-2.5,0.4-3.2,1.1c-5.4,0.8-10.3-1.5-15.3-0.5c-3.4,0.7-6.5,1.8-10.1,1.1
																	c-0.5-0.1-1-0.3-1.5-0.4c-0.7-0.1-1.3,0.2-2,0c-0.5-0.2-0.9-0.9-1.4-0.8c0-0.4,0.3-1.1-0.2-1.1
																	c0.7-1.3,0.3-3,0.3-4.7c0-1.2,0.3-2.4,0.4-3.7c0.1-1.2-0.1-2.4,0-3.6c0.2-2.5,1.3-4.8,1.6-7.4
																	c0.2-1.7,0-3.4,0.2-5.1c0-0.3,0.2-0.6,0.2-1c0-0.7-0.1-1.4-0.1-2.1c0.1-1.2,0.8-2.4,1.2-3.7c1-3.5,2-8,2.3-12.3
																	c0.1-1.5,0.2-3,0.4-4.3c0.1-0.4,0-0.9,0.1-1.3c0.4-1.4,1.5-2,2.4-2.9c0.8-0.8,1.5-1.9,2.5-2.1
																	c0.5-2.9,0.4-5.5,1-8.5c0.2-0.9,0.5-1.8,0.6-2.6c0-0.4-0.2-0.7-0.1-1.1c0.1-0.7,1.5-1.6,2.3-1.7
																	c0.8-0.2,1.7,0.2,2.7,0.4c0.4,0.1,0.8,0,1.1,0.1c0.4,0.2,0.7,0.7,1.1,1c0.7,0.5,1.3,0.5,1.5,1.1
																	c0.2,0.3,0.1,0.8,0.2,1.1c0.2,0.8,0.7,1.4,0.8,2.2c1.4,0.7,2.6,1.7,3.5,3c0,0.6-0.3,0.9-0.3,1.4
																	c0,0.6,0.3,1.2,0.4,1.8c0,0.3,0,0.7,0,1.1c0.2,1.5,0.8,2.9,0.9,4.4c0.1,1.2,0.1,2.3,0.4,3.5
																	c0.5,2.5,0.8,5.2,1.5,7.6c0.5,1.8,1,3.1,1,4.9c0,1.1-0.3,2.2-0.2,3.5c0,0.9,0.4,1.9,0.6,2.9s0.4,2,0.6,2.9
																	c0.3,1.9,0.8,3.9,0.9,5.9c0.2,2.5,0.5,5,0.8,7.5c0.4,2.9,1.3,5.5,1.1,8.7C-198,511.2-197.7,511.4-197.7,511.7z"/>
															</g>
														</g>
													</g>
												</g>
												<g>
													<g>
														<g id="XMLID_3_">
															<g>
																<path d="M-104.7,438c-0.3,1.3,0.2,2.8,0.1,4.5c0.2-0.4,0.4-0.7,0.4-1.3c-0.7-2.5,0.7-4.1,0.8-6.3
																	c0.5-0.4,1-2.2,0.2-2.2c-0.7,0-0.9,1.9-1.1,2.2C-103.7,436.2-104.5,437.2-104.7,438z"/>
																<path d="M-98.1,406.5c0.1-0.4,0.3-0.7,0.2-1.2c0-0.9-0.5-1.5-0.7-2.5c-0.1-0.6,0-1.4,0.1-2.1c0.1-1.2,0.6-1.9,0.4-3
																	c-0.5,0.1-0.5,0.8-0.6,1.2c-0.3,1.4-0.8,2.9-0.9,4.6c0,1.1,0.3,2.2,0.2,3.3c-0.2,2-0.9,3.9-0.7,5.6
																	c-1.1,0.4-1.9,1.7-2.7,2.7c-0.5,0.7-0.9,1.3-0.8,2c-0.2,0.1-0.4,0.1-0.5,0.3c0.1,0,0.1,0.2,0.1,0.4
																	c-0.6,2.7-1.9,4.9-1.6,8.1c0.6-0.2,0.6-1.2,0.8-1.9c0.3-0.8,1-1.3,1.1-2.1c0-0.4-0.2-0.6-0.2-1
																	c0.4-1.6,1-2.6,1.2-4.2c0.3-0.2,0.3-0.5,0.6-0.7c0.3-0.3,0.9-0.3,1.2-0.5c0.5-0.3,0.5-1,1.1-1.2
																	c-0.1,1.6-0.3,3.1-0.5,4.5c-0.1,1.1-0.2,2.3-0.5,3.4c-0.3,0.8-0.8,1.4-1,2.2c-0.2,1.2,0.1,3.1-0.1,4.2
																	c0.2-0.6,0.5-0.7,0.7-1.2c-0.2-2.2,0.9-3.6,1.5-5.1c0.2-0.5,0.3-1.1,0.5-1.6s0.5-1,0.6-1.6c0.1-0.9,0-1.6,0-2.7
																	c0-0.5,0.1-1,0-1.5c0-0.4-0.2-0.7-0.2-1.1c0-0.7,0.3-1.5,0.2-2.2c0-0.2-0.1-0.3-0.1-0.5c0-1,0.4-1.9,0.4-2.8
																	C-98.2,407.7-98.2,407.1-98.1,406.5z"/>
																<path d="M-90.9,434.1c-0.2,3.3,2,5.2,2.4,7.7c0.3-0.7,0.4-1.4,0.3-2.3c0-0.6,0-1.3-0.1-1.9c-0.1-1.5-0.8-2.8-1-4.4
																	c-0.2-1.6-0.4-2.9-0.5-4.3c0-1.1,0.4-2.5-0.6-2.7c-0.3,0.3,0,0.9,0,1.3c0,1.6-0.2,3.4,0.1,5
																	C-90.6,433.1-90.7,433.4-90.9,434.1z"/>
																<path d="M-90.1,407.1c-0.7,1.5,0,3.5,0.2,5.5c0.1,1.1,0,2.4,0.3,3.3c0.3,0.8,0.8,1.3,1,2.1c0.2,0.7-0.1,1.8,0.4,2.2
																	c0-0.7,0.3-1.5,0.2-2.2c-0.1-0.8-0.3-1.4-0.4-2.1c-0.1-0.9,0.2-1.8,0.1-2.7c0-0.4-0.3-0.7-0.4-1.1
																	c-0.1-1.1,0.6-2.1,0.4-3.4c-0.1-0.4-0.7-0.5-0.8-1c-0.1-0.4,0.2-0.8,0.2-1.1c-0.1-1.2-1-2-1-3.1
																	c-0.4-0.3-0.4-0.9-0.9-1C-90.4,404-90,405.2-90.1,407.1z"/>
																<path d="M-116.6,470.6c0,0.4,0.4,0.3,0.4,0.7c-0.5,1.4,1,1.6,2.3,1.7c1.8,0.2,2.6-0.5,4-0.8
																	c0.7-0.1,1.5-0.2,2.3-0.2c1.2,0,2.4-0.2,3.5-0.2c2.1,0,4.6,0.7,7.2,0.9c1.1,0.1,2.3-0.1,3.4,0
																	c1.7,0.1,3.4,0.5,4.9,0.6c2,0.2,4.1,0,6.1,0.1c0.6,0.1,1.2,0.2,1.9,0.3c0.8,0.1,1.5,0,2.2,0c0.6,0,1.2,0.2,1.9,0.3
																	c0.8,0,1.9-0.1,2.9,0c0.9,0.1,1.7,0.5,2.7,0.4v-0.1c0,0,0.1,0,0-0.1c-0.1-0.4-0.1-0.7,0-1.1
																	c-0.4-0.7-0.4-1.6-0.5-2.6c-0.1-0.4-0.2-0.7-0.3-1c-0.1-0.7-0.1-1.3-0.1-2c-0.1-1.5-0.2-2.9-0.4-4.2
																	c-0.1-0.6-0.3-1.1-0.5-1.8c-0.2-0.8-0.1-1.6-0.2-2.4c-0.1-0.5-0.2-1-0.2-1.5c-0.1-0.6,0-1.1,0-1.8
																	c0-1.2-0.5-2.2-0.6-3.3c-0.2-1.3,0.2-2.8-0.1-4.1c-0.1-0.5-0.4-0.9-0.5-1.3c-0.1-0.5-0.2-1-0.3-1.5
																	c-0.2-1.7-0.5-3.2-0.8-4.8c-0.2-1-0.6-2-0.4-3.1c-0.9,0.1-0.9-0.7-1.2-1.3c-0.7-1.7-2.2-2.9-2.9-4.4
																	c-0.2-0.4-0.3-0.9-0.4-1.2c-0.2-0.2-0.4-0.3-0.5-0.4c0.1-0.2,0-0.2,0-0.5c-0.3-0.6-0.4-1.3-0.6-2.1
																	c-0.4-1.5-1-2.9-1.3-4.4c-0.2-1-0.1-2.2-0.7-2.6c0.1-0.1,0.3-0.1,0.3-0.2c-0.3-0.4-0.4-1.1-0.3-1.7
																	c-0.3-1-0.5-2.2-0.7-3.3c-0.3-1.2-0.5-2.5-0.7-3.8c-0.1-0.6-0.3-1.2-0.4-1.9c-0.1-0.6-0.1-1.3-0.2-1.9
																	c-0.3-1.6-0.7-2.9-1.2-4.2c-0.4-0.3-0.7-0.6-1-1s-0.3-1-0.6-1.3c-0.3-0.3-0.7-0.3-0.9-0.6c-0.6-0.6-0.7-1.5-1-2.4
																	c-0.1-0.4-0.3-0.6-0.4-0.9c-0.4-1.6-0.4-3.5-0.9-5.2c-1-0.3-1.3-0.8-2.1-1.4c-0.4-0.3-0.8-0.6-1.1-0.8
																	c-0.3-0.3-0.6-1-1-1c-0.3,0-0.8,0.3-1.2,0.4c-1.4,0.3-2.3,1-3.8,1c0,0.7-0.5,1.3-0.8,2c-0.3,0.8-0.4,1.6-0.6,2.5
																	c-0.2,0.8-0.5,1.5-0.7,2.2c-0.4,1.6-0.8,3.3-0.9,5.1c-0.1,0.9-0.1,1.8-0.2,2.8c-0.1,0.8-0.4,1.6-0.4,2.4
																	c0,0.2,0.1,0.5,0.1,0.7c0,0.3-0.1,0.6-0.2,0.9c-0.1,1.1-0.3,2.1-0.7,2.9c-0.2,0.4-0.8,1.2-1,1.5
																	c-0.1,0.1-0.3,0.1-0.4,0.3c-0.1,0.1-0.1,0.3-0.2,0.4c-0.7,0.7-1.6,1.1-2.2,1.9c-0.5,2-0.4,4.1-0.7,5.9
																	c0,0.3-0.2,0.6-0.2,0.9c-0.1,0.6,0,1.2-0.1,1.8c-0.1,0.4-0.3,0.8-0.4,1.2s0,0.8-0.1,1.2c-0.2,0.8-0.7,1.7-0.9,2.4
																	c-0.1,0.4,0,0.8,0,1.1c0,0.2-0.2,0.4-0.2,0.6c-0.2,0.8-0.3,1.8-0.3,2.7c-0.1,0.9-0.2,1.9-0.2,2.9
																	c0,0.3,0.1,0.6,0,0.8c0,0.4-0.3,0.8-0.3,1.2c-0.1,0.9-0.2,1.7-0.5,2.6c-0.2,0.5-0.5,1-0.6,1.5
																	c-0.2,0.6-0.2,1.5-0.3,2.2c-0.2,1.1-0.4,1.7-0.6,2.7c0,0.3-0.2,0.6-0.2,0.7c0,0.4,0.3,0.8,0.3,1.3
																	c0.1,1-0.3,1.6-0.5,2.3c-0.1,0.7-0.1,1.5-0.2,2.2s-0.4,1.4-0.4,2c-0.1,0.5,0,1-0.1,1.5c-0.1,0.4-0.3,0.8-0.3,1.2
																	c-0.1,0.8,0.1,1.6,0,2.4c0,0.3-0.2,0.5-0.3,0.8c-0.4,2.4-0.3,5-0.2,7.4C-116.4,470-116.5,470.3-116.6,470.6z
																	 M-116.5,461.9c0-0.7-0.1-1.3-0.1-2c0.1-0.8,0.3-1.5,0.3-2.3c0.2-1.5,0.4-2.9,0.7-4.4c0.1-0.7,0.4-1.5,0.4-2.2
																	c0-0.5-0.3-0.8-0.3-1.3c-0.1-1.2,0.4-3.4,0.7-4.6c0.1-0.7,0.3-1.4,0.5-2c0.2-0.7,0.6-1.3,0.7-1.9
																	c0.3-1.7,0.6-3.4,0.7-5.2c0.1-1.7,0.1-3.5,0.3-5.2c0.1-1.3,0.7-2.4,0.9-3.7c0.1-0.8,0.2-1.7,0.3-2.6
																	c0.2-1.3,0.1-2.8,0.2-4c0.1-0.8,0.4-1.6,0.6-2.5s0.4-1.8,0.7-2.3c0.7-1.3,2.1-1.7,2.9-2.6c0.4,0.1,0.7-0.4,0.4-0.4
																	c-0.1,0,0-0.1,0.1-0.1c0.8-1.1,0.3-2.9,0.4-4.6c0.1-1.1,0.5-2.4,0.8-3.5c1.2-4.3,2-8.9,3.6-12.7
																	c-0.1-0.3-0.3-0.4-0.3-0.8c0-0.5,0.5-0.9,0.8-1.3c0.8-0.8,1.4-1.1,2.7-1.4c1.2-0.3,2-0.9,3.2-0.8
																	c1.4,0.6,2.2,2,3.4,2.8c0.1,0.8,1.1,1.2,1.2,2.2c0,0.7-0.1,1.7-0.1,2.4c0,0.6,0.3,1,0.3,1.5c0.3,0.2,0.3,0.6,0.4,1
																	c0.1,0.3,0.3,0.4,0.5,0.8s0.2,1.2,0.4,1.5c0.3,0.5,1.3,1.2,2,1.4c0.2,0.5,0.6,0.7,1,1c0.1,0.8,0.7,0.8,1.1,1.2
																	c0.3,0.3,0.3,0.9,0.7,1.2c0.1,0.1,0,0.2,0,0.4c0.6,1.1,1,3.1,0.8,4.7c0,0.2,0,0.3-0.2,0.5c0.6,1.7,0.5,3.5,0.8,5.4
																	c0.1,0.7,0.4,1.5,0.6,2.2c0.3,1.1,0.9,2.2,0.3,3.2c0.3,0.3,0.4,0.7,0.5,1.1c0.1,0.7,0,1.5,0.1,2.1
																	c0.1,0.5,0.4,1,0.6,1.6c0.3,1,0.5,1.9,0.6,3.1c0.3,0.5,0.5,1,0.7,1.6c0.2,0,0.6-0.1,0.7,0.1
																	c1.3,2.1,2.8,4.1,4.2,6.2c-0.2,0.7,0,2,0.3,3.3c0.2,1.1,0.6,2.1,0.3,2.9c0.3,0.8,0.4,2,0.6,2.9
																	c0.2,0.8,0.7,1.6,0.8,2.4c0.2,0.9,0.2,1.9,0.4,2.9c0.3,1.3,0.8,2.6,1,4.1c0.1,0.7,0.3,1.5,0.4,2.2
																	c0.1,0.8,0.1,1.5,0.2,2.3c0.2,1.5,0.4,3,0.5,4.6s0.2,3.2,0.3,4.7c0.1,1.5,0.8,3.2,0.8,4.9c0,1.1-0.5,3.2-1.4,1.7
																	c-0.9,0.3-1.9-0.4-2.7-0.6c-1-0.2-1.9-0.1-2.9-0.1c-0.6,0-1.3-0.2-2-0.3s-1.4,0-2.1-0.1c-1-0.1-2.1-0.3-3.1-0.3
																	c-1.8,0-3.6,0.1-5.3-0.1c-0.5-0.1-1-0.2-1.5-0.3c-0.5,0-1.1,0-1.6,0c-0.6,0-1.1-0.3-1.6-0.4
																	c-0.9-0.1-1.9,0.1-2.9,0.1c-1.3-0.1-2.7-0.3-4-0.4c-1.2-0.1-2.4-0.5-3.6-0.5c-0.7,0-1.4,0.1-2.1,0.1s-1.4-0.1-2.1,0
																	c-0.4,0-0.6,0.2-1,0.3c-0.3,0.1-0.6,0-1,0.1c-1.2,0.3-2.2,1-3.5,1c-0.3,0-0.7-0.2-1.1-0.3s-0.8,0-1.1-0.1
																	c-0.8-0.3-1.4-1-1.7-2c-0.2,0-0.2,0.1-0.4,0.1c1-1.4,0.4-5,0.9-7.3C-116.7,463.5-116.5,462.7-116.5,461.9z"/>
															</g>
														</g>
													</g>
													<g>
														<g>
															<g id="XMLID_2_">
																<g>
																	<path class="st1" d="M-108.4,450.3c-0.3,0-0.5,0-0.7,0c0,0.3,0,0.6,0,0.9c0,0.1,0.2,0,0.2,0.1
																		c0.3,1.2,1.2,2.2,1.4,3.5c0.1,0.5-0.1,1-0.1,1.5c0.1,1,0.4,2.7,0.9,3.6c-0.1-0.5,0.2-0.9,0.2-1.3
																		c0-0.6-0.3-1.1-0.4-1.7c0-0.7,0.5-1.3,0.4-2.1s-0.8-1.1-0.8-2.1c-0.5-0.4-0.6-1.3-1.2-1.6
																		C-108.2,450.8-108.2,450.7-108.4,450.3z M-106,449.2c0.2,1,1,1.3,1.6,2c0,0.1,0.1,0.1,0.1,0.2
																		c0.3,0.5,0.4,1.1,0.7,1.6c0.4,0.6,1.1,1,1.4,1.7c-0.2,4.6,0.8,7.8,1.5,12c0.3,1.9,0.9,3.6,1.3,5.3
																		c0.1,0.7,0.1,1.3,0.4,2c0.2,0.6,0.5,1.1,0.6,1.7c0.6,2.1,0.3,4.6,0.9,6.8c0.2,0.7,0.6,1.4,0.8,2.2
																		c0.1,0.6,0.1,1.2,0.3,1.8c0.2,0.8,0.6,1.7,0.7,2.5c0.1,0.4-0.1,0.7,0.2,1v0.1c-0.5,0.4-1.1,0.3-1.7,0.4
																		c-1.2,0.2-2.6,0.5-4.1,0.6c-4.8,0.2-9,0.1-12.7,0.4c-1.6,0.2-3.2,0.7-4.8,1c-2.1,0.3-4.3,0-6.8,0
																		c-0.9,0-1.9,0-2.7,0c-1,0-2,0.1-1.9-0.9c0.1-0.5,0.6-0.8,0.8-1.2c0.2-0.4,0.5-1.2,0.6-1.6c0-0.4-0.2-0.7-0.2-1.1
																		c-0.1-0.7-0.1-1.6,0-2.3c0.1-2.6,0.6-5.3,0.6-7.8c0-0.9,0.2-1.8,0.3-2.8c0.2-1,0.3-2,0.5-3
																		c0.2-0.9,0.6-1.6,0.8-2.5c0.2-1.1,0-2.3,0.1-3.5c0-0.5,0.1-1.1,0.2-1.6c0.2-1.2,0.9-2.4,0.7-3.8
																		c0.4-0.4,0.9-0.7,1.4-1c0.4-1,1.4-1.4,2-2.3c0.5-0.1,0.9-0.4,1.4-0.7c0.3-0.2,1-0.6,1.1-0.9c0.1-0.3-0.1-0.6-0.1-1
																		c0-0.6,0.2-1.1,0.3-1.8c0.1-0.7,0-1.6,0.1-2.4c0.1-0.6,0.3-1.1,0.4-1.7c0.1-1.2,0.1-2.6,0.5-3.6
																		c-0.5-0.8,0.2-1.6,0.3-2.4c0.1-0.5,0-1,0.1-1.5c0.1-0.3,0.2-0.5,0.3-0.8c0.4-1.2,1-2.2,1.6-3.2
																		c0-1.2,0.3-1.8,0.4-2.8c0.3-0.3,0.7-0.5,1.2-0.6c1,1.2,2.2,2.7,4.1,2.3c0.5,0.5,1.3,0.5,1.7,1.1
																		c0.2,0.3,0.3,1,0.4,1.6c0.2,1,0.6,2.5,0.5,3.9c0,1.1-0.3,2.2-0.2,3.2C-108.1,447.7-107.7,448.9-106,449.2z
																		 M-112.7,442.6c0-0.8-0.5-1.4-0.3-2.3c-0.2-0.1-0.3-0.5-0.6-0.4c-0.3,0.6-0.1,1.2-0.1,1.8c0,2-1.2,3.3-1.2,4.9
																		c0,0.7,0.1,1.6,0.2,2.4c0.1,0.6,0.1,1.3,0.2,1.9c0.1,0.6,0.5,0.9,0.8,1.6c0.6,1.4,0.6,3.2,1.4,4.7
																		c0.3-1-0.4-1.7-0.1-2.6c-0.8-1.1-0.4-2.8-0.5-4.1c0.2-0.9,0.6-1.5,0.5-2.6c-0.4-0.5-0.6-0.8-0.7-1.5
																		c0-0.2-0.1-0.5-0.1-0.6C-113.5,444.8-112.7,443.5-112.7,442.6z M-120.7,462.1c0.3-0.1,0.9-1.5,0.2-1.2
																		c-0.2,0.1-0.6,1-0.7,1.5c-0.5,1.4-0.7,2-0.8,3.6c0,0.7-0.2,1.4-0.3,2.1c-0.1,0.8,0,1.5-0.1,2.1
																		c-0.1,0.9-0.7,1.5-0.6,2.5c-0.2,0.6-0.6,1.4-0.2,2.1c0.3-0.8,0.8-1.2,1.3-1.9c0.4-0.5,0.7-1,0.9-1.6
																		c0.3-1-0.4-1.9-0.4-3.1c-0.1-1.2,0.3-2.3,0.5-3.5c0-0.2-0.1-0.3-0.1-0.5C-120.7,463.5-120.5,462.8-120.7,462.1z"/>
																	<path d="M-106.4,454.8c0.1,0.7-0.5,1.4-0.4,2.1c0,0.6,0.3,1.2,0.4,1.7c0,0.5-0.3,0.8-0.2,1.3
																		c-0.5-0.9-0.8-2.6-0.9-3.6c0-0.5,0.1-1,0.1-1.5c-0.2-1.4-1.1-2.4-1.4-3.5c0-0.1-0.2,0-0.2-0.1c0-0.3,0-0.6,0-0.9
																		c0.2,0.1,0.4,0,0.7,0c0.2,0.4,0.1,0.5,0,0.8c0.6,0.3,0.7,1.2,1.2,1.6C-107.2,453.6-106.5,453.9-106.4,454.8z"/>
																	<path d="M-113.4,446.3c0.1,0.8,0.3,1,0.7,1.5c0.1,1.2-0.3,1.8-0.5,2.6c0.2,1.3-0.3,3,0.5,4.1
																		c-0.3,1,0.4,1.7,0.1,2.6c-0.7-1.5-0.7-3.3-1.4-4.7c-0.3-0.7-0.7-0.9-0.8-1.6c-0.1-0.6-0.1-1.3-0.2-1.9
																		c-0.1-0.8-0.2-1.7-0.2-2.4c0-1.7,1.2-2.9,1.2-4.9c0-0.6-0.3-1.2,0.1-1.8c0.3-0.2,0.4,0.2,0.6,0.4
																		c-0.2,0.9,0.4,1.5,0.3,2.3c0,0.9-0.7,2.2-0.7,3.1C-113.5,445.8-113.5,446.1-113.4,446.3z"/>
																	<path d="M-121,456.5c-0.5,0.3-0.9,0.6-1.4,0.7l-0.1-0.2c0.1,0,0.1-0.1,0.2-0.2c0.6-2.6,1.3-5.7,1.8-8.9
																		c0.5-3.1,0.5-6.6,1.7-9c0.2-0.5,0.6-0.8,0.9-1.3c0.2-0.5,0.5-1.3,0.7-1.9c0.2-0.9,0.1-1.5,0.7-2.1
																		c0.4-0.4,1.5-1,2-0.9c0.2,0,0.3,0.3,0.5,0.5c0.2,0.1,0.4,0.1,0.6,0.2s0.5,0.4,0.7,0.5c0.6,0.4,1,0.5,1.3,1.1
																		c0.3,0.2,0.7,0.2,1,0.4c0.6,0.7,1.7,1,2.3,1.7c0.2,0.5,0.1,0.9,0.2,1.5c0.1,0.3,0.2,0.4,0.3,0.7
																		c0.1,0.2,0,0.5,0,0.7c0.1,0.3,0.3,0.6,0.3,0.8c0.1,0.7,0,1.4,0.1,2c0,0.5,0.2,1.1,0.3,1.7c0.2,0.9,0.3,1.7,0.6,2.6
																		c0.3,0.5,0.5,1,1,1.3c-0.1,0.2-0.1,0.5-0.3,0.6c0.5,0.6,1,1.4,1.5,2.1l-0.3,0.2c0-0.1-0.1-0.1-0.1-0.2
																		c-0.5-0.7-1.4-1.1-1.6-2c-1.7-0.3-2.1-1.6-2.3-3.4c-0.1-1,0.2-2,0.2-3.2c0-1.4-0.3-2.9-0.5-3.9
																		c-0.1-0.5-0.2-1.3-0.4-1.6c-0.4-0.6-1.1-0.6-1.7-1.1c-1.9,0.4-3.1-1.2-4.1-2.3c-0.5,0.1-0.9,0.3-1.2,0.6
																		c0,1-0.4,1.6-0.4,2.8c-0.6,1-1.2,2-1.6,3.2c-0.1,0.3-0.3,0.5-0.3,0.8c-0.1,0.5,0,1-0.1,1.5
																		c-0.1,0.8-0.8,1.5-0.3,2.4c-0.4,1-0.4,2.4-0.5,3.6c-0.1,0.5-0.3,1.1-0.4,1.7c-0.1,0.8,0,1.7-0.1,2.4
																		s-0.3,1.2-0.3,1.8c0,0.4,0.2,0.7,0.1,1C-120.1,455.9-120.7,456.3-121,456.5z"/>
																	<path d="M-122.2,468c0-0.7,0.2-1.4,0.3-2.1c0.1-1.6,0.2-2.1,0.8-3.6c0.2-0.5,0.5-1.4,0.7-1.5
																		c0.7-0.3,0.1,1.1-0.2,1.2c0.2,0.7,0,1.4-0.2,2c0,0.2,0.1,0.3,0.1,0.5c-0.3,1.3-0.6,2.3-0.5,3.5
																		c0.1,1.1,0.7,2.1,0.4,3.1c-0.2,0.5-0.5,1.1-0.9,1.6c-0.5,0.7-1,1.1-1.3,1.9c-0.4-0.6,0-1.4,0.2-2.1
																		c-0.1-1,0.5-1.6,0.6-2.5C-122.2,469.5-122.2,468.8-122.2,468z"/>
																	<path d="M-124.4,459.5c-0.5,0.3-1,0.6-1.4,1c0.2,1.3-0.6,2.5-0.7,3.8c-0.1,0.5-0.1,1.1-0.2,1.6
																		c-0.1,1.1,0.1,2.4-0.1,3.5c-0.2,0.9-0.6,1.7-0.8,2.5c-0.2,1-0.4,2-0.5,3c-0.2,1-0.3,1.8-0.3,2.8
																		c-0.1,2.5-0.6,5.2-0.6,7.8c0,0.7,0,1.6,0,2.3c0.1,0.4,0.2,0.8,0.2,1.1c0,0.4-0.3,1.2-0.6,1.6
																		c-0.2,0.4-0.7,0.7-0.8,1.2c-0.1,1,0.8,0.9,1.9,0.9c0.9,0,1.8,0,2.7,0c2.5,0,4.7,0.3,6.8,0c1.6-0.2,3.2-0.8,4.8-1
																		c3.8-0.4,7.9-0.2,12.7-0.4c1.5-0.1,2.9-0.4,4.1-0.6c0.6-0.1,1.2,0,1.7-0.4c0,0,0,0,0-0.1c-0.2-0.3-0.1-0.6-0.2-1
																		c-0.1-0.8-0.5-1.7-0.7-2.5c-0.1-0.6-0.1-1.3-0.3-1.8c-0.2-0.8-0.6-1.5-0.8-2.2c-0.6-2.2-0.3-4.7-0.9-6.8
																		c-0.2-0.6-0.4-1.1-0.6-1.7c-0.3-0.7-0.2-1.3-0.4-2c-0.3-1.7-0.9-3.4-1.3-5.3c-0.7-4.2-1.8-7.4-1.5-12
																		c-0.4-0.7-1-1-1.4-1.7c-0.3-0.5-0.5-1.1-0.7-1.6l0.3-0.2c0.2,0.4,0.5,0.7,0.7,1.1c0.3,0.4,0.6,0.9,0.9,1.2
																		c0.2,0.3,0.5,0.4,0.7,0.7c0.5,0.9,0.4,2.1,0.7,3.4c0.2,1.2,0.8,2.3,1,3.4c0.3,2,0.6,3.9,1,5.8
																		c0.5,1.9,0.8,3.8,1.2,5.8c0.1,0.8,0.5,1.4,0.7,2.1c0.3,1.1,0.3,2.2,0.3,3.3c0,1-0.3,2.1-0.3,3.2
																		c0,0.6,0.3,1.3,0.5,2s0.4,1.3,0.5,2c0.4,1.6,1,2.8,1.2,4.6c0.3,0.3-0.1,0.7-0.2,0.9c-1.1,0.2-2.4,0.1-3.6,0.3
																		c-0.2,0-0.4,0.2-0.7,0.3c-0.7,0.2-1.5,0-2.4,0.1c-0.7,0.1-1.5,0.3-2.1,0.4c-1.5,0.1-3.1,0-4.7,0
																		c-0.9,0-1.8,0.2-2.8,0.2c-1.3,0-2.4,0-3.6,0.3c-1.4,0.3-2.6,0.8-4.3,1c-2.3,0.3-4.7-0.2-6.9-0.1
																		c-0.7,0-1.3,0-2.2-0.2c-1-0.2-1.8,0-2.3-0.9c-0.3,0.1-0.4,0.5-0.8,0.4c-0.4-0.6,0.1-1.2,0.2-1.7
																		c0.1-0.9,0-1.9,0.1-2.8c0.2-2.7,0.7-5.3,1-7.9c0.3-2.6,0.8-5,1.5-7.4c0.2-0.8,0.5-1.6,0.6-2.3
																		c0.2-1.1,0-2.2,0.1-3.2c0.1-0.5,0.2-0.9,0.2-1.4c0.1-0.4,0-0.9,0.1-1.3c0.2-0.9,0.7-1.7,0.9-2.7
																		c0.2-1.2,0.1-1.9,0.9-2.6c0.9-0.8,2.4-1.5,3.5-2.3l0.1,0.2C-123,458.1-124,458.5-124.4,459.5z"/>
																</g>
															</g>
														</g>
														<path class="st1" d="M-130.1,491.3c-0.6,0.2-0.9,1.3-0.9,1.5c0,0.1,6.3,1.8,6.3,1.8l18.3-1.9l-0.8-3.4
															C-107.2,489.2-129.1,491-130.1,491.3z"/>
													</g>
													<g>
														<g id="XMLID_1_">
															<g>
																<path d="M-98.6,462.3c-0.1-1.6-0.1-3.2,0.3-4.9c0.1-0.5,0.4-1.2,0.4-2c0-0.4,0.1-1.1-0.4-1.2
																	c-0.3,0.2-0.1,0.6-0.1,0.9c-0.1,1.3-0.2,2.8-0.8,3.7c-0.2,0.7-0.1,1.3-0.1,2c0,0.4-0.2,1-0.3,1.5
																	c0,0.4,0.1,0.9,0,1.2c-0.2,0.7-0.6,1.1-0.7,1.6c-0.4,1.4,0.1,3.4-0.3,4.9c-0.5,0.4-0.5,0.9-0.1,1.5
																	c0.8-1.3,0.9-2.9,1.4-4.7c0.2-0.8,0.6-1.5,0.7-2.2C-98.4,464-98.5,463.1-98.6,462.3z"/>
																<path d="M-91.4,462.5c0,0.2-0.2,0.2-0.2,0.5c0,0.2,0.2,0.3,0.3,0.5c-0.1,0.9-0.1,1.7,0,2.6c0.1,0.8,0.6,1.6,0.6,2.2
																	c0,0.3-0.2,0.6-0.3,0.9c0,0.6,0.4,1.1,0.5,1.7c0,0.2,0,0.4,0,0.5c0.1,0.4,0.4,0.9,0.6,1.5c0.2,0.5,0.4,1.1,0.6,1.5
																	c0.2,0.3,0.5,0.6,0.7,1c-0.2-1-0.5-1.9-0.4-2.8c0-0.2,0.2-0.5,0.2-0.7c0.2-1.9-1.1-3.4-1.3-5.4
																	c-0.1-0.6,0-1.1-0.1-1.5c-0.1-0.7-0.5-1.1-0.6-1.7c-0.2-0.8,0.1-1.6-0.8-1.6C-91.7,462-91.6,462.3-91.4,462.5z"/>
																<path class="st1" d="M-91.4,462.5c0,0.2-0.2,0.2-0.2,0.5c0,0.2,0.2,0.3,0.3,0.5c-0.1,0.9-0.1,1.7,0,2.6
																	c0.1,0.8,0.6,1.6,0.6,2.2c0,0.3-0.2,0.6-0.3,0.9c0,0.6,0.4,1.1,0.5,1.7c0,0.2,0,0.4,0,0.5c0.1,0.4,0.4,0.9,0.6,1.5
																	c0.2,0.5,0.4,1.1,0.6,1.5c0.2,0.3,0.5,0.6,0.7,1c-0.2-1-0.5-1.9-0.4-2.8c0-0.2,0.2-0.5,0.2-0.7
																	c0.2-1.9-1.1-3.4-1.3-5.4c-0.1-0.6,0-1.1-0.1-1.5c-0.1-0.7-0.5-1.1-0.6-1.7c-0.2-0.8,0.1-1.6-0.8-1.6
																	C-91.7,462-91.6,462.3-91.4,462.5z M-91.7,450.6c0,0.2,0,0.5,0,0.7c0.1,0.4,0.3,0.7,0.3,1.1s-0.1,0.8-0.1,1.2
																	c0,0.3,0.2,0.5,0.3,0.8c0,0.3-0.1,0.6-0.1,0.9c0,0.5,0.3,0.9,0.3,1.3c0,0.7-0.1,1.3,0,2c0.7,0.4,0.9,1.5,1.3,2.2
																	c0.9,0.9,2.1,1.5,3.1,2.3c1.2,2.5,0.2,5.8,0.8,8.4c0.2,0.7,0.4,1.3,0.6,2c0.4,1.4,0.6,2.9,1.1,4.2
																	c0.6,1.4,1.9,2.8,2,4.3c0,0.2-0.1,0.5-0.1,0.7c0,0.7,0.2,1.5,0.2,2.4c0.1,1.2,0,2.6,0.1,3.8s0.7,2.7,0.9,4.2
																	c0.2,1.1,0.4,2.1,0.8,3c0,0.9-0.3,1.8-0.2,2.8c0,0.3,0.2,0.6,0.3,0.9c0.1,0.6,0,1.2,0.1,1.8c0,0.2,0.2,0.5,0.2,0.7
																	c0,0.7-0.2,1.4-0.2,2.1c0.1,0.9,0.7,1.7,0.6,2.6c-0.4,0.1-0.3,0.7-0.4,0.8c-1.4-0.1-2.6,0.3-3.7,0.4
																	c-2.4,0.3-4.3-0.3-6.4-0.7c-3.2-0.6-6.8-0.8-10-0.5c-3.5,0.3-6.8,0.9-10.2,0c-0.2-0.6-0.2-1.3-0.6-1.7
																	c0.1-0.8-0.2-1.7-0.2-2.6c0-1.3,0.3-2.7,0.8-3.7c0.3-0.8,0.2-1.7,0.4-2.6c0.3-1.5,0.9-3.1,1.1-4.7
																	c0-0.3-0.1-0.7-0.1-1c0.1-1.3,0.8-2.4,1-3.4c0.1-0.4,0-0.8,0.1-1.2c0.2-1.1,0.8-2.1,0.8-3.1c0-0.3-0.2-0.7-0.2-1
																	c-0.1-0.8-0.1-1.7-0.1-2.6c0-1.5-0.4-2.9-0.1-4.2c0.4-1.9,1.6-3.6,1.9-5.8c0.1-0.5-0.1-1.1,0-1.7s0.4-1.3,0.5-1.9
																	c0.1-0.7,0-1.5,0.1-2.2c0.1-1.4,0.4-2.7,0.8-4.1c0.1-0.3,0.3-0.6,0.3-0.9c0.2-1.3-0.2-2.6,0.5-3.4
																	c-0.1-0.2-0.1-0.5-0.3-0.7c0.6-0.2,0.8-0.8,1.1-1.3c1-0.7,2-1.4,3.3-1.8c0-0.4,0.4-0.7,0.7-1.1
																	c0.3-0.3,0.6-0.9,0.9-1.1c0.2-0.1,0.6,0,1-0.1c1.2-0.3,2.5-1.4,4.3-1.1C-92.5,448.8-92,449.7-91.7,450.6z
																	 M-98.2,455.1c-0.1,1.3-0.2,2.8-0.8,3.7c-0.2,0.7-0.1,1.3-0.1,2c0,0.4-0.2,1-0.3,1.5c0,0.4,0.1,0.9,0,1.2
																	c-0.2,0.7-0.6,1.1-0.7,1.6c-0.4,1.4,0.1,3.4-0.3,4.9c-0.5,0.4-0.5,0.9-0.1,1.5c0.8-1.3,0.9-2.9,1.4-4.7
																	c0.2-0.8,0.6-1.5,0.7-2.2s-0.1-1.6-0.1-2.4c-0.1-1.6-0.1-3.2,0.3-4.9c0.1-0.5,0.4-1.2,0.4-2c0-0.4,0.1-1.1-0.4-1.2
																	C-98.5,454.4-98.2,454.8-98.2,455.1z"/>
																<path d="M-110.2,507.1c3.4,0.9,6.8,0.3,10.2,0c3.2-0.3,6.8-0.1,10,0.5c2.1,0.4,4.1,0.9,6.4,0.7
																	c1.2-0.1,2.4-0.5,3.7-0.4c0-0.1,0-0.7,0.4-0.8c0.1-0.9-0.5-1.6-0.6-2.6c0-0.7,0.2-1.4,0.2-2.1
																	c0-0.2-0.1-0.4-0.2-0.7c-0.1-0.6,0-1.3-0.1-1.8c-0.1-0.3-0.2-0.6-0.3-0.9c-0.1-0.9,0.2-1.8,0.2-2.8
																	c-0.3-0.9-0.6-2-0.8-3c-0.2-1.5-0.8-2.9-0.9-4.2s-0.1-2.6-0.1-3.8c0-0.8-0.2-1.6-0.2-2.4c0-0.3,0.1-0.5,0.1-0.7
																	c-0.1-1.5-1.4-3-2-4.3c-0.5-1.3-0.7-2.8-1.1-4.2c-0.2-0.7-0.5-1.3-0.6-2c-0.6-2.6,0.3-5.9-0.8-8.4
																	c-1-0.8-2.2-1.4-3.1-2.3c-0.5-0.7-0.6-1.8-1.3-2.2c-0.1-0.7,0-1.3,0-2c0-0.4-0.2-0.9-0.3-1.3c0-0.3,0.1-0.6,0.1-0.9
																	s-0.2-0.5-0.3-0.8c0-0.4,0.1-0.8,0.1-1.2s-0.3-0.7-0.3-1.1c0-0.2,0-0.5,0-0.7c-0.2-0.9-0.6-1.8-0.8-2.6
																	c-1.7-0.3-3,0.8-4.3,1.1c-0.3,0.1-0.8,0-1,0.1c-0.3,0.2-0.6,0.8-0.9,1.1s-0.7,0.7-0.7,1.1c-1.3,0.4-2.3,1.1-3.3,1.8
																	c-0.3,0.5-0.5,1.1-1.1,1.3c0.1,0.2,0.2,0.5,0.3,0.7c-0.7,0.8-0.3,2.1-0.5,3.4c0,0.3-0.2,0.6-0.3,0.9
																	c-0.3,1.4-0.6,2.8-0.8,4.1c-0.1,0.7,0,1.4-0.1,2.2c-0.1,0.6-0.4,1.3-0.5,1.9s0.1,1.2,0,1.7
																	c-0.3,2.2-1.5,3.9-1.9,5.8c-0.2,1.3,0.1,2.7,0.1,4.2c0,0.9,0,1.7,0.1,2.6c0,0.3,0.2,0.7,0.2,1c0,1-0.5,2-0.8,3.1
																	c-0.1,0.4,0,0.8-0.1,1.2c-0.2,1-0.9,2.1-1,3.4c0,0.3,0.1,0.7,0.1,1c-0.2,1.6-0.8,3.1-1.1,4.7
																	c-0.1,0.9-0.1,1.8-0.4,2.6c-0.5,1-0.7,2.4-0.8,3.7c0,1,0.3,1.8,0.2,2.6C-110.6,505.8-110.5,506.5-110.2,507.1z
																	 M-112.2,504.3c-0.2-2.9,0.7-5.2,1.1-7.8c0.4-2.2,0.6-4.5,0.8-6.7c0.1-1.8,0.6-3.6,0.9-5.3c0.2-0.9,0.4-1.8,0.6-2.6
																	s0.5-1.8,0.6-2.6c0.1-1.1-0.2-2.2-0.2-3.1c0.1-1.6,0.5-2.8,1-4.4c0.7-2.2,0.9-4.6,1.5-6.8c0.3-1,0.3-2,0.4-3.1
																	c0.1-1.3,0.7-2.6,0.9-3.9c0-0.3,0-0.6,0-0.9c0-0.6,0.4-1.1,0.4-1.6s-0.2-0.7-0.3-1.3c0.9-1.2,2.1-2.1,3.5-2.7
																	c0.1-0.7,0.6-1.3,0.8-2c0.1-0.3,0-0.7,0.2-1c0.3-0.5,0.8-0.5,1.5-0.9c0.5-0.3,0.8-0.7,1.1-0.9
																	c0.4-0.2,0.7-0.1,1.1-0.1c1-0.1,2-0.5,2.7-0.3c0.8,0.1,2.2,0.9,2.3,1.5c0.1,0.3-0.1,0.6-0.1,0.9
																	c0,0.8,0.4,1.6,0.6,2.4c0.6,2.7,0.5,5,1,7.6c1,0.2,1.6,1.2,2.5,1.9c1,0.8,2,1.3,2.4,2.6c0.1,0.3,0.1,0.7,0.1,1.1
																	c0.2,1.2,0.3,2.5,0.4,3.9c0.3,3.9,1.2,7.9,2.3,11.1c0.4,1.1,1,2.2,1.1,3.3c0.1,0.6-0.1,1.3-0.1,1.9
																	c0,0.3,0.1,0.6,0.2,0.9c0.2,1.5,0,3.1,0.2,4.6c0.3,2.3,1.4,4.4,1.6,6.7c0.1,1.1-0.1,2.2,0,3.2
																	c0.1,1.1,0.4,2.2,0.4,3.3c0,1.6-0.4,3.1,0.3,4.3c-0.4,0-0.2,0.7-0.2,1c-0.5-0.1-0.9,0.5-1.4,0.7
																	c-0.6,0.1-1.3-0.1-2,0c-0.5,0-1,0.2-1.5,0.3c-3.5,0.7-6.7-0.3-10.1-0.9c-4.9-0.9-9.8,1.2-15.3,0.5
																	c-0.7-0.7-2.5-0.2-3.2-1c-0.2-0.4,0.3-0.6,0.4-1.1c0-0.4-0.2-0.8-0.3-1.2c-0.1-0.2-0.7-0.1-0.6-0.5
																	C-112.5,504.7-112.2,504.5-112.2,504.3z"/>
															</g>
														</g>
													</g>
												</g>
											</g>
										</g>
										<g>
											<path d="M-212,522.1c-0.5,0.1-0.9,0.9-1.4,0.7c-0.4-0.1-0.7-0.5-1-0.6c0.2-2,1.1-2.8,2-4.3c-0.1-0.1-0.1-0.6-0.4-0.4
												c-0.4-0.8-0.2-1.4,0-2.3c-0.2,0.1-0.6,0.3-1,0.4c0-0.2,0.2-0.1,0.1-0.3c-0.5,0.1-0.5-0.3-0.9-0.4
												c-0.1-0.9,0.3-1.4,0.4-2.1c0.9-1.1,1.4-2.6,2.9-3.1c0.5-0.7,1.3-1.2,1.8-1.9c0-0.2-0.2-0.3-0.3-0.4
												c-0.3,0-0.2,0.4-0.4,0.4c-0.2-0.1-0.1-0.2-0.1-0.4c-0.3,0.1-0.4,0.4-0.7,0.4c0.1-0.4,0.3-0.4,0.3-0.8
												c-0.1-0.2-0.1,0.2-0.3,0.2c0-0.2,0.4-0.6,0.1-0.9c0-0.2,0-0.1,0.1-0.1c0-0.2-0.1-0.3-0.2-0.6c0.2-0.4,0.4-0.8,0.6-1.2
												c-0.2,0.1-0.5-0.1-0.8-0.2c-0.4-1.3,0.7-2.2,1.1-3.2c0-0.3-0.2-0.3-0.4-0.3c0.1-0.1,0-0.3,0.1-0.4c0-0.2-0.1,0.1-0.3,0
												c0.1-0.2,0.2-0.5,0.3-0.7c-0.2,0-0.2-0.1-0.4-0.3c0-0.1,0.1-0.2,0.2-0.2c-0.1-0.4,0-0.8,0.2-1.1c0.7-1.1,1.3-2.3,2.5-2.8
												c-0.1-0.3,0.1-0.2,0-0.4c0.2,0.1,0.3,0.3,0.6,0.3c0.1,0,0.1-0.2,0.1-0.3c0.2,0.1,0.2,0.4,0.3,0.5
												c0.2,0.1,0.4,0.2,0.6,0.4c0.1,0.1,0.7,0.6,0.8,0.8c0,0.1,0.4,0.2,0.4,0.4c0,0.1,0,0.2,0,0.3c0.4,0.8,1.5,1.8,1.3,2.8
												c-0.4,0-0.8,0.3-0.8,0.6c-0.6-0.1-0.8-0.5-1.7-0.5c0.5,0.7,1.3,1.1,1.8,1.8c0.5,0.5,1,0.9,1.4,1.4
												c0.1,0.1,0.3,0.4,0.3,0.6c0.2,0.2,0.3,0.4,0.5,0.5c-0.1,0.5-0.6,0.6-1,0.9c-0.8-0.1-1.8-1-3-0.6c0.8,1.2,1.9,2.1,2.8,3.2
												c0,0.1-0.1,0.1-0.1,0.2c0.2,0.2,0.3,0.3,0.4,0.5c-0.3,0.3-0.7,0.9-1.2,0.7c-0.1,0.1,0,0.2,0,0.4c-0.1,0-0.2,0-0.3-0.1
												c0.1,0.3,1.1,1.7,0.1,2c0.6,1.1,1.7,1.7,2.5,2.5c0,0.3,0.1,0.4,0.1,0.6c-0.2,0.2-0.3,0.4-0.5,0.6c-1.5,0-2.3-0.9-3.8-1
												c0.5,0.6,1.6,1.2,2.7,1.3c0.6,0.9,3.2,1.3,3,2.9c0,0.3-0.7,1.1-1.1,1.2s-0.8-0.2-1.2-0.3c-0.3,0.3-0.3,0.7-0.7,0.9
												c-0.3,0.1-0.7-0.1-1,0.3c0.6,1.1,2,1.4,2.3,2.8c-0.1,0.3-0.4,0.4-0.6,0.7c-1.1,0.1-2.3-0.9-3.4-0.8
												c0.2,0.8,0.2,2.2-0.8,2c-0.1,0-0.1,0.1-0.2,0.1c0.4,2.1,0,4.2-0.2,6.3c0,0.6,0.3,1.2-0.1,1.7c0.2,0.5,0,1.3-0.3,1.6
												c-0.4-0.1-0.4,0.2-0.8,0.1c-0.3-0.4-0.6-0.8-0.8-1.2c0.1-0.4,0-0.8-0.1-1.1c-0.3-2.3,0.9-4.7,0.3-6.9
												c-0.9,0-1.2,1.1-2.2,0.5c-0.2-0.6,0-1.3,0.1-1.9c-0.7,0.3-1,1.8-2.2,1.6c-0.2-0.7-0.9-1-0.5-1.5c-0.1,0-0.1,0-0.1,0.1
												C-213.5,523.8-212.7,523-212,522.1z M-205,511.6c0.1,0,0.3,0.2,0.4,0.1C-204.7,511.7-204.9,511.5-205,511.6z M-207,501.4
												c0.2,0.7-0.3,1.3-0.1,2C-207.1,502.6-206.1,501.9-207,501.4z M-207,512c0,0.1,0,0.2,0,0.3h0.1
												C-206.7,512.2-207,512.1-207,512z M-207.9,500.4c-0.2,0.3-0.6,0.9-0.5,1.3C-207.7,501.8-207.7,500.9-207.9,500.4z
												 M-208.6,512.8c-0.3,1-0.9,1.6-1.2,2.5c0.4,0.3,0.9,0.5,1.3,0.8c-0.1,0.2,0.3,0.4,0.1,0.2
												C-208.6,515.2-208.4,514.2-208.6,512.8z M-209.5,511.8c0.4-0.1,0.5-0.6,1-0.6c0-0.3,0-0.5,0.1-0.7
												C-208.7,510.9-209.5,511.5-209.5,511.8z M-209.2,519.4c0.2,0,0.5,0,0.7,0c0-0.2,0.2-0.8,0-1.1
												C-208.7,518.8-209.2,518.9-209.2,519.4z M-209.5,523C-209.4,523-209.4,523-209.5,523C-210,523.3-209.7,523.6-209.5,523z"
												/>
											<path d="M-147.2,527.5L-147.2,527.5c0.4,0.5-0.4,0.7-0.6,1.3c-1.2,0.2-1.5-1.2-2.2-1.4c0.2,0.5,0.4,1.2,0.1,1.7
												c-0.9,0.6-1.3-0.5-2.2-0.5c-0.7,2,0.6,4.1,0.3,6.2c-0.1,0.3-0.1,0.7-0.1,1c-0.3,0.4-0.5,0.7-0.8,1.1
												c-0.4,0.1-0.5-0.2-0.8-0.1c-0.2-0.3-0.4-1-0.3-1.4c-0.3-0.5,0-1-0.1-1.5c-0.2-1.9-0.6-3.8-0.2-5.7
												c-0.1,0-0.1-0.1-0.2-0.1c-1,0.2-1-1.1-0.8-1.8c-1-0.1-2.3,0.8-3.4,0.7c-0.2-0.2-0.5-0.4-0.6-0.6c0.3-1.3,1.7-1.6,2.3-2.5
												c-0.2-0.3-0.7-0.1-1-0.2c-0.4-0.2-0.4-0.5-0.7-0.8c-0.4,0.1-0.8,0.3-1.2,0.2s-1.1-0.8-1.1-1.1c-0.2-1.4,2.4-1.9,3-2.6
												c1.2-0.1,2.2-0.7,2.7-1.2c-1.4,0.1-2.2,0.9-3.8,0.9c-0.2-0.2-0.3-0.4-0.5-0.6c-0.1-0.3,0.1-0.3,0.1-0.6
												c0.8-0.7,1.9-1.3,2.5-2.2c-1.1-0.2-0.1-1.5,0.1-1.8c-0.1,0-0.1,0.1-0.3,0.1c0-0.1,0.1-0.2,0-0.3
												c-0.5,0.2-0.9-0.3-1.2-0.6c0.1-0.2,0.3-0.3,0.4-0.5c0-0.1-0.1-0.1-0.1-0.2c0.9-1,2-1.8,2.8-2.9c-1.1-0.3-2.1,0.4-3,0.6
												c-0.3-0.3-0.9-0.3-1-0.8c0.2-0.1,0.3-0.3,0.5-0.5c-0.1-0.2,0.1-0.4,0.3-0.6c0.4-0.4,0.9-0.8,1.4-1.3
												c0.6-0.6,1.4-1,1.8-1.6c-0.8,0-1,0.3-1.7,0.5c0-0.3-0.4-0.5-0.8-0.5c-0.1-0.9,1-1.8,1.3-2.5c0-0.1,0-0.2,0-0.3
												c0.1-0.2,0.4-0.3,0.4-0.3c0.1-0.2,0.7-0.7,0.8-0.7c0.2-0.2,0.4-0.3,0.6-0.3c0.1-0.1,0.2-0.4,0.3-0.5c0,0.1,0,0.3,0.1,0.3
												c0.4,0.1,0.4-0.1,0.6-0.2c-0.1,0.2,0.1,0.1,0,0.4c1.1,0.5,1.8,1.6,2.5,2.5c0.2,0.3,0.3,0.7,0.2,1c0.1,0,0.2,0,0.2,0.2
												c-0.2,0.1-0.2,0.2-0.4,0.2c0.1,0.2,0.2,0.4,0.3,0.6c-0.1,0.1-0.2-0.2-0.3,0c0.1,0.1,0,0.3,0.1,0.3c-0.1,0-0.3,0-0.4,0.3
												c0.5,0.9,1.6,1.7,1.1,2.9c-0.3,0.1-0.6,0.2-0.8,0.2c0.2,0.4,0.3,0.8,0.6,1.1c-0.1,0.2-0.2,0.4-0.2,0.5
												c0.1,0,0.1-0.1,0.1,0.1c-0.3,0.3,0.1,0.6,0.1,0.8c-0.2,0-0.2-0.3-0.3-0.2c0.1,0.3,0.2,0.3,0.3,0.7
												c-0.3-0.1-0.4-0.3-0.7-0.4c0.1,0.2,0.1,0.3-0.1,0.3c-0.3,0-0.2-0.3-0.4-0.3c-0.1,0.2-0.2,0.2-0.3,0.4
												c0.5,0.7,1.3,1.1,1.8,1.7c1.5,0.4,2,1.8,2.9,2.8c0.1,0.6,0.5,1.1,0.4,1.9c-0.4,0.1-0.4,0.5-0.9,0.4
												c0,0.2,0.2,0.1,0.1,0.3c-0.4-0.1-0.8-0.3-1-0.4c0.2,0.8,0.4,1.3,0,2.1c-0.3-0.2-0.2,0.2-0.4,0.3c0.8,1.3,1.8,2,2,3.8
												c-0.3,0.1-0.6,0.4-1,0.5c-0.5,0.2-0.9-0.6-1.4-0.6C-148.1,525.9-147.2,526.6-147.2,527.5z M-156.2,515.7
												c0.1,0.2,0.3,0,0.4-0.1C-155.9,515.5-156.1,515.7-156.2,515.7z M-153.7,508.2c0.3-0.6-0.2-1.2-0.1-1.8
												C-154.7,506.8-153.7,507.5-153.7,508.2z M-153.9,516.2h0.1c0-0.1,0-0.2,0-0.3C-153.7,516-154.1,516.2-153.9,516.2z
												 M-152.4,506.7c0.1-0.4-0.3-0.9-0.5-1.2C-153,506-153,506.8-152.4,506.7z M-152.5,519.9c-0.2,0.2,0.2,0,0.1-0.2
												c0.5-0.2,0.9-0.4,1.3-0.7c-0.3-0.8-0.9-1.4-1.2-2.3C-152.5,517.9-152.2,518.8-152.5,519.9z M-152.4,514.6
												c0.1,0.2,0,0.3,0.1,0.6c0.5,0,0.6,0.5,1,0.6C-151.2,515.5-152,514.9-152.4,514.6z M-152.2,521.6c-0.2,0.3,0,0.8,0,1
												c0.2,0,0.5,0,0.7,0C-151.6,522.2-152.1,522.1-152.2,521.6z M-151.4,525.8C-151.4,525.9-151.4,525.9-151.4,525.8
												C-151,526.4-150.7,526.2-151.4,525.8z"/>
											<path d="M-180.4,529.2L-180.4,529.2c0.4,0.5-0.4,0.7-0.6,1.3c-1.2,0.2-1.5-1.2-2.2-1.4c0.2,0.5,0.4,1.2,0.1,1.7
												c-0.9,0.6-1.3-0.5-2.2-0.5c-0.7,2,0.6,4.1,0.3,6.2c-0.1,0.3-0.1,0.7-0.1,1c-0.3,0.4-0.5,0.7-0.8,1.1
												c-0.4,0.1-0.5-0.2-0.8-0.1c-0.2-0.3-0.4-1-0.3-1.4c-0.3-0.5,0-1-0.1-1.5c-0.2-1.9-0.6-3.8-0.2-5.7
												c-0.1,0-0.1-0.1-0.2-0.1c-1,0.2-1-1.1-0.8-1.8c-1-0.1-2.3,0.8-3.4,0.7c-0.2-0.2-0.5-0.4-0.6-0.6c0.3-1.3,1.7-1.6,2.3-2.5
												c-0.2-0.3-0.7-0.1-1-0.2c-0.4-0.2-0.4-0.5-0.7-0.8c-0.4,0.1-0.8,0.3-1.2,0.2c-0.4-0.1-1.1-0.8-1.1-1.1
												c-0.2-1.4,2.4-1.9,3-2.6c1.2-0.1,2.2-0.7,2.7-1.2c-1.4,0.1-2.2,0.9-3.8,0.9c-0.2-0.2-0.3-0.4-0.5-0.6
												c0-0.3,0.1-0.3,0.1-0.6c0.9-0.7,1.9-1.3,2.5-2.2c-1.1-0.2-0.1-1.5,0.1-1.8c-0.1,0-0.1,0.1-0.3,0.1c0-0.1,0.1-0.2,0-0.3
												c-0.5,0.2-0.9-0.3-1.2-0.6c0.1-0.2,0.3-0.3,0.4-0.5c0-0.1-0.1-0.1-0.1-0.2c0.9-1,2-1.8,2.8-2.9c-1.1-0.3-2.1,0.4-3,0.6
												c-0.3-0.3-0.9-0.3-1-0.8c0.2-0.1,0.3-0.3,0.5-0.5c-0.1-0.2,0.1-0.4,0.3-0.6c0.4-0.4,0.9-0.8,1.4-1.3
												c0.6-0.6,1.4-1,1.8-1.6c-0.8,0-1,0.3-1.7,0.5c0-0.3-0.4-0.5-0.8-0.5c-0.1-0.9,1-1.8,1.3-2.5c0-0.1,0-0.2,0-0.3
												c0.1-0.2,0.4-0.3,0.4-0.3c0.1-0.2,0.7-0.7,0.8-0.7c0.2-0.2,0.4-0.3,0.6-0.3c0.1-0.1,0.2-0.4,0.3-0.5c0,0.1,0,0.3,0.1,0.3
												c0.4,0.1,0.4-0.1,0.6-0.2c-0.1,0.2,0.1,0.1,0,0.4c1.1,0.5,1.8,1.6,2.5,2.5c0.2,0.3,0.3,0.7,0.2,1c0.1,0,0.2,0,0.2,0.2
												c-0.2,0.1-0.2,0.2-0.4,0.2c0.1,0.2,0.2,0.4,0.3,0.6c-0.1,0.1-0.2-0.2-0.3,0c0.1,0.1,0,0.3,0.1,0.3c-0.1,0-0.3,0-0.4,0.3
												c0.5,0.9,1.6,1.7,1.1,2.9c-0.3,0.1-0.6,0.2-0.8,0.2c0.2,0.4,0.3,0.8,0.6,1.1c-0.1,0.2-0.2,0.4-0.2,0.5
												c0.1,0,0.1-0.1,0.1,0.1c-0.3,0.3,0.1,0.6,0.1,0.8c-0.2,0-0.2-0.3-0.3-0.2c0.1,0.3,0.2,0.3,0.3,0.7
												c-0.3-0.1-0.4-0.3-0.7-0.4c0.1,0.2,0.1,0.3-0.1,0.3c-0.3,0-0.2-0.3-0.4-0.3c-0.1,0.2-0.2,0.2-0.3,0.4
												c0.5,0.7,1.3,1.1,1.8,1.7c1.5,0.4,2,1.8,2.9,2.8c0.1,0.6,0.5,1.1,0.4,1.9c-0.4,0.1-0.4,0.5-0.9,0.4
												c0,0.2,0.2,0.1,0.1,0.3c-0.4-0.1-0.8-0.3-1-0.4c0.2,0.8,0.4,1.3,0,2.1c-0.3-0.2-0.2,0.2-0.4,0.3c0.8,1.3,1.8,2,2,3.8
												c-0.3,0.1-0.6,0.4-1,0.5c-0.5,0.2-0.9-0.6-1.4-0.6C-181.2,527.6-180.4,528.2-180.4,529.2z M-189.4,517.4
												c0.1,0.2,0.3,0,0.4-0.1C-189,517.2-189.2,517.4-189.4,517.4z M-186.9,509.9c0.3-0.6-0.2-1.2-0.1-1.8
												C-187.7,508.5-186.9,509.2-186.9,509.9z M-187,517.9h0.1c0-0.1,0-0.2,0-0.3C-187,517.7-187.2,517.9-187,517.9z
												 M-185.5,508.4c0.1-0.4-0.3-0.9-0.5-1.2C-186.2,507.7-186.2,508.5-185.5,508.4z M-185.6,521.6c-0.2,0.2,0.2,0,0.1-0.2
												c0.5-0.2,0.9-0.4,1.3-0.7c-0.3-0.8-0.9-1.4-1.2-2.3C-185.6,519.6-185.2,520.5-185.6,521.6z M-185.5,516.3
												c0.1,0.2,0,0.3,0.1,0.6c0.5,0,0.6,0.5,1,0.6C-184.5,517.2-185.2,516.6-185.5,516.3z M-185.2,523.3c-0.2,0.3,0,0.8,0,1
												c0.2,0,0.5,0,0.7,0C-184.7,523.9-185.2,523.8-185.2,523.3z M-184.6,527.5C-184.6,527.6-184.5,527.6-184.6,527.5
												C-184.2,528.1-184,527.9-184.6,527.5z"/>
											<path d="M-195.2,519.5c0.9,0.5,3.3,0.6,2.2,2.3c-0.7,0.1-1.5,0.1-2-0.1c-0.3,1.1-0.2,2.6-0.3,3.8c0,0.2,0.1,0.5,0.1,0.7
												c0,1-0.6,1.7-0.8,2.5c-0.3,0.1-0.6,0.2-1,0.3c-0.6-0.3-1.3-0.2-1.4-0.9c-0.2-0.8,0.5-1.5,0.7-2.2c-0.6-1.9-0.1-3,0-5.3
												c-0.5-0.4-1-0.9-1.4-1.5c-0.7,0.8-1.6,1.5-2.7,1.6c-0.1-0.3-0.3-0.5-0.6-0.6c0-0.2,0.1-0.3,0.1-0.4
												c-0.9-1.3,1-2.8,1.8-3.8c-0.2,0-0.4,0.2-0.6,0.2c-1.6-0.5-0.1-2.4,0.4-3.2c-0.4,0-0.5-0.4-0.7-0.6c-0.1-1.6,1.1-2,1.7-3
												c-0.2-0.1-0.5-0.1-0.9-0.1c-0.4,0.6-1.9,1.6-2.4,0.5c-0.4-0.9,0.6-1.6,1.1-2.2c0.7-0.9,0.9-1.5,1.7-2
												c0.1-0.7,0.6-1,0.8-1.6c-0.4,0.4-0.9,0.6-1.3,0.5c-0.1-0.3-0.5-0.4-0.2-0.6c-0.2-0.2,0.1-1.1,0.3-1.5
												c0.6-0.9,1.5-2.1,2.4-2.5c0.1-0.3,0.4-0.4,0.3-0.8c-0.4,0.1-0.4,0.5-0.8,0.7c-0.2-0.1-0.2-0.1-0.5-0.1
												c-0.7-1.4,0.9-2.3,1.2-3.6c0.1,0,0.1-0.2,0.3-0.1c0-1,0.4-2.3-0.1-2.7c0.5-0.5,1,0.6,1.6,0.4c0.8,0.7,1.3,1.3,1.7,2.4
												c0.2,0.7,0.8,1.1,0.8,1.9c-0.2,0.2-0.4,0.5-0.6,0.7c-0.5-0.2-0.9-0.2-1.5-0.3c0.2,0.5,0.8,0.7,1.3,1.1
												c0.1,0.1,0.2,0.3,0.3,0.4c0.3,0.3,0.8,0.5,1.1,0.8c0.8,0.9,1.1,1.8-0.6,1.8c0.2,0.8,0.9,1.1,1.1,1.9
												c-0.4,0.8-1.4,0.7-2.3,0.6c0.3,0.6,0.9,1,1.5,1.5c0.2,0.2,0.3,0.5,0.4,0.7c0.3,0.3,0.8,0.4,1.1,0.7
												c0.2,0.2,0.2,0.5,0.4,0.6c0,0.2-0.3,0.5,0,0.6c-0.1,0.2-0.3,0.2-0.2,0.6c-0.4-0.1-0.3,0.3-0.8,0.2c0.2,0.4,0.7,0.9,1,1.3
												c0.4,0.7-0.2,1.7-1.3,1.4c-0.2,0.2,0.1,0.5-0.1,0.7c0.5,0.7,2.4,1.1,2.4,2.3c0,0.7-1,1.3-2,0.8c0.1,0.7,1.5,0.9,1.9,1.6
												c0.6,0.8-0.7,1.8-1.6,2C-193.1,519.8-194,519.2-195.2,519.5z M-196.1,499.7c0,0.3,0,0.7,0,1c0.4,0.2,0.9-0.1,1.2-0.3
												C-195.2,500.4-195.5,499.8-196.1,499.7z M-196.1,502.1c0,0.2,0,0.8,0.1,0.7C-196,502.5-196,502.2-196.1,502.1z
												 M-197.2,505.6c0.1-0.1,0.1-0.5,0.1-0.5C-197.2,505.2-197.6,505.5-197.2,505.6z M-198.9,514.3c0,0.1,0,0.3,0,0.4
												c0.5-0.1,0.7-1,1.4-1.1c0-0.2,0.1-0.5-0.1-0.5C-197.7,513.7-198.2,514.1-198.9,514.3z M-198,517.6
												c0.5-0.2,0.4-1.3,0.4-1.8C-197.7,516.5-197.7,517-198,517.6z"/>
											<path d="M-174.5,524.3c0.8,1.1,2,2.2,3,2.9c0.1,0.4-0.1,0.4-0.1,0.9c-1,0.9-2.1,0.2-2.9-0.6c-0.4,0-0.7,0.2-1.1,0.1
												c0.2,0.7,1,0.8,1.5,1.3c0.3,0.3,0.5,0.6,0.5,1.2c-0.7,0.5-1.6,0.1-2.1-0.3c-0.1,1.9-0.1,4-0.8,5.5
												c-0.3,0.2-0.8,0.1-1.2,0.1c-1.3-1.8,0-4.6-0.3-6.8c-0.7-0.5-1.3-1-1.5-1.9c-1,0.8-2,2.6-3.6,2c0.1-0.2,0-0.4-0.1-0.9
												c0.3-0.5,0.4-0.8,0.8-1.3c-0.5-0.3-0.4-0.9-0.3-1.6c-0.1-0.1-0.3-0.1-0.4-0.1c-0.6-1.3,0.4-2.3,1.3-3
												c0.1-1.7,1.6-2.8,2.5-4c-0.5,0.2-0.8,0.7-1.3,0.9s-1.1,0.2-1.6,0.4c-0.3,0-0.4-0.6-0.5-0.8c0.4-1.7,1.7-2.6,2.6-3.8
												c-0.2-0.1-0.4,0.3-0.5,0.4c-1.2,0.1-1.8-0.9-1.5-1.7c0.2-0.5,1.4-1.2,1.6-1.7c-0.6-0.4-1.5-1-1.4-2.2
												c0.1-0.8,0.6-1.3,1-1.9c-0.2-0.6-0.3-1.3,0.1-1.7c1.2-0.1,1.6-0.9,2.1-1.7c-0.2-0.3-0.9-1.6-1-2.2
												c-0.1-0.6,0.1-1.1,0.6-1.3c0.2-0.1,0.5,0,0.8-0.2c0.7-0.4,0.7-1.3,1.1-1.9c0.1-0.2,0.6,0,0.4-0.4
												c0.3,0.5,0.8,0.8,0.8,1.4c0.1,0.4-0.2,0.9,0,1.2c0.3,0.6,0.9,1.3,1.3,1.9c0.4,0.7,1.1,1.1,0.9,2c-0.2,0.1-0.4,0-0.6,0.1
												c-0.4-0.1-0.4-0.6-1-0.5c0.7,1.3,2,2,2.9,3.1c-0.2,0.3-0.2,0.7,0,1.1c-0.5,0.3-1.4,0.3-2-0.1c0.9,1,2,1.7,2.6,3
												c-0.3,0.1-0.2,0.6-0.3,0.9c-0.5,0-0.9,0.1-1.3-0.1c0.4,0.8,1.6,1.3,1.4,2.5c0.1,0.1,0.1,0.3,0.2,0.3
												c-0.1,0.2-0.4,0.5-0.2,0.9c-0.7,0.1-1.3,0-1.7-0.3c1.4,1.3,3.3,2.5,4.1,4.3c-0.2,0.4-0.3,0.8-0.4,1.2
												c-0.7,0.1-1.2-0.2-1.7,0c-0.6-0.3-1.1-0.7-1.6-1.1c-0.1,0.9,1.9,2.3,0.5,3.1c0.3,0.4,0.6,1,0.3,1.5
												C-173.2,525.1-174,524.8-174.5,524.3z M-176.6,502.1l-0.1,0.1c0,0.2,0.1,0.3,0.2,0.3
												C-176.5,502.4-176.5,502.3-176.6,502.1z M-177.4,513.2c-0.4,0.8-1.2,1.6-1.2,2.5c0.8-0.1,0.6-1.4,1.3-1.5
												C-177.2,513.7-177.1,513.5-177.4,513.2z M-177.4,511.5c-0.3,0.3-0.7,0.5-1,0.9C-177.9,512.4-177,512.1-177.4,511.5z
												 M-177.5,517.9c-0.1,0.2-0.1,0.5-0.3,0.6C-177.5,518.5-177.2,518.1-177.5,517.9z M-178.4,525.6c0.3,0,0.5,0.2,0.7,0.1
												c0-0.4,0.2-0.6,0-1C-177.9,525.1-178.2,525.2-178.4,525.6z"/>
											<path d="M-172.2,520.9c0.4-0.6,1.2-0.6,1.8-0.9c1.4-0.7,2.7-1.7,3.6-2.8c-0.8,0.2-1.7,1.4-2.8,0.7
												c-0.5-0.3-1.1-1.3-1-1.9c0.1-0.8,1.2-1.2,1.5-2c-0.7-0.4-1.7-1.5-1.2-2.2c0.5-0.6,1.7-0.3,2.3-0.9
												c-0.3-0.9-1.4-1.2-1.1-2.7c0.6-0.9,2-0.8,2.7-1.7c0.1-0.2,0.1-0.5,0.2-0.6c0.5,0.1,1,0.3,1.3,0.6
												c0.1,0.3-0.1,0.4-0.3,0.6c0.1,0.3,0.3,0.5,0.4,0.8c1.5,0.7,2.9,1.7,3.6,2.9c0,0.3-0.1,0.5-0.3,0.7c-0.7,0-1.2,0-1.7-0.1
												c0.4,1.5,1.9,1.9,2.5,3.2c-0.1,0.2-0.1,0.5-0.2,0.7c-0.8,0.7-1.7-0.4-2.5-0.1c0.6,1.3,2,1.7,2.6,3
												c-0.2,0.7-0.7,1-1.7,0.8c0.1,0.7,1.5,0.9,1.5,1.7c0,0.5-0.7,0.9-1.6,0.6c0.7,0.7,1.4,1.9,0.9,3c-0.3,0-0.9,0.2-1.1-0.1
												c0.8,0.7,1.9,1.8,2.4,2.9c-0.2,0.2-0.3,0.4-0.2,0.8c-1.3,0.6-2.4,0.1-3.5-0.4c0.4,0.5,1.4,0.8,1.7,1.5
												c0,0.3-0.3,0.3-0.3,0.6c-0.7,0.1-1.5,0-2.2-0.5c-0.2,0.9-0.1,1.7-0.1,2.5c-0.1,1.1-0.4,1.9-0.4,3.2
												c0,1.2-0.1,2.9-0.9,3.9c-0.3,0-0.4-0.1-0.6-0.1c-0.5-0.6-0.7-1.7-0.6-2.7c0-0.5,0.3-0.9,0.3-1.4c0.2-1.6,0.1-3.7,0.1-5
												c0-0.7,0-1.1,0.1-1.8c-1,0.2-2,0.9-2.9,1.3c-0.1,0.1-0.8,0.3-1,0.3c-0.7,0-1.3-0.8-1.3-1.3c0.1-0.7,1.3-1,1.5-1.6
												c-1-0.1-2.1-0.7-2.2-1.5c-0.1-1.2,1.8-1.1,2.4-2C-171.2,522.7-172.1,522-172.2,520.9z M-164.6,521.9
												c-0.1,0.2,0.1,0.3-0.1,0.5c0.2,0,0.4,0,0.4-0.2C-164.4,522.1-164.4,521.9-164.6,521.9z M-165.2,511.8
												c0,0.2-0.1,0.6,0.1,0.6C-165,512.3-165,512-165.2,511.8z M-167.5,519.9c0.4,0,0.6,0.2,0.9,0.3c0.1-0.3,0.1-0.7,0.1-1.1
												C-166.9,519.3-167.2,519.4-167.5,519.9z M-167.5,526.1c0.1,0,0.2,0.1,0.4,0.1c-0.1-0.4,0.3-0.4,0.3-0.7
												C-167.1,525.4-167.4,525.8-167.5,526.1z"/>
											<path d="M-136.1,519.6c0.6,1,2.7,1,2.6,2.4c-0.1,0.9-1.4,1.5-2.6,1.6c0.2,0.7,1.6,1,1.6,1.9c0,0.7-0.8,1.4-1.5,1.5
												c-0.2,0-1-0.3-1.2-0.4c-1-0.5-2.1-1.4-3.2-1.6c0.1,0.8,0,1.3,0,2c-0.1,1.4-0.3,3.8-0.2,5.7c0,0.6,0.3,1.1,0.3,1.6
												c0,1.1-0.3,2.3-0.9,3c-0.3-0.1-0.4,0.1-0.7,0c-0.8-1.1-0.9-3.2-0.8-4.5c0.1-1.5-0.3-2.4-0.3-3.7c0-0.9,0.2-1.9,0-2.9
												c-0.7,0.5-1.7,0.7-2.5,0.5c0-0.3-0.3-0.4-0.3-0.7c0.4-0.8,1.6-1.1,2-1.7c-1.3,0.6-2.6,1.1-4,0.3c0.2-0.4,0-0.7-0.2-0.9
												c0.6-1.2,1.9-2.4,2.8-3.1c-0.3,0.3-0.9,0.1-1.3,0c-0.6-1.3,0.4-2.6,1.2-3.4c-1,0.2-1.8-0.2-1.8-0.8
												c0-0.9,1.7-1.1,1.8-1.9c-1.1,0.2-1.6-0.2-1.8-1c0.7-1.5,2.4-1.8,3.1-3.3c-0.9-0.3-2,0.8-2.8,0c-0.1-0.3-0.1-0.6-0.2-0.8
												c0.8-1.4,2.5-1.8,3-3.5c-0.6,0.2-1.1,0.1-2,0c-0.1-0.2-0.2-0.5-0.3-0.8c0.9-1.3,2.6-2.4,4.3-3.1c0.1-0.3,0.4-0.6,0.6-0.9
												c-0.1-0.2-0.3-0.3-0.3-0.7c0.4-0.4,0.9-0.5,1.6-0.7c0.1,0.2,0.1,0.5,0.2,0.7c0.7,1,2.4,1,3,2c0.2,1.7-1,2-1.5,3
												c0.6,0.8,2.1,0.5,2.6,1.2c0.6,0.8-0.7,2-1.5,2.5c0.2,1,1.4,1.4,1.6,2.4c0.1,0.7-0.7,1.8-1.3,2.1c-1.3,0.7-2.2-0.6-3.2-1
												c1,1.4,2.4,2.5,4,3.4c0.7,0.4,1.5,0.4,2,1.1C-134.2,518.8-135.2,519.6-136.1,519.6z M-143.2,518.6c0,0.2,0.2,0.2,0.4,0.2
												c-0.1-0.2,0-0.3,0-0.6C-143.1,518.3-143.1,518.5-143.2,518.6z M-141.9,507.5c0.3,0,0.1-0.5,0.2-0.7
												C-141.9,506.9-141.9,507.3-141.9,507.5z M-140.6,515.2c0,0.4-0.1,0.9,0,1.2c0.3-0.1,0.6-0.2,1-0.2
												C-139.7,515.6-140.1,515.4-140.6,515.2z M-140.6,522.5c0,0.4,0.4,0.4,0.3,0.8c0.2,0.1,0.3,0,0.5,0
												C-140,522.9-140.2,522.4-140.6,522.5z"/>
										</g>
									</g>
								</g>
							</g>
						</g>
					</g>
				</g>
			</g>
			<rect x="-226" y="293.8" class="st2" width="141.7" height="255.1"/>
			<g>
				<path d="M-90.7,539.2h-128.7V308.4h128.7L-90.7,539.2L-90.7,539.2z M-215.5,535.2h120.8V312.4h-120.8L-215.5,535.2L-215.5,535.2
					z"/>
			</g>
			<g>
				<rect x="-207.6" y="301.1" class="st1" width="104.9" height="35.6"/>
				<path d="M-101.7,337.6h-106.9v-37.5h106.9V337.6z M-206.6,335.6h102.9v-33.5h-102.9V335.6z"/>
			</g>
			<g>
				<rect x="-204.7" y="303.9" class="st1" width="99.2" height="29.9"/>
				<path d="M-105,334.3h-100.2v-30.9H-105L-105,334.3L-105,334.3z M-204.2,333.3h98.2v-28.9h-98.2L-204.2,333.3L-204.2,333.3z"/>
			</g>
			<g>
				<path class="st3" d="M-179.7,313.2c0,1.9-0.3,3.2-1,4c-0.8,1-1.9,1.5-3.3,1.5c-0.7,0-1.4-0.2-2.2-0.7c-0.5-0.3-1-0.8-1.3-1.5
					s-0.5-1.4-0.5-2.1c0-0.5,0.1-0.9,0.4-1.3c0.2-0.3,0.4-0.5,0.6-0.5c0.3,0,0.5,0.2,0.5,0.7c0.1,1.2,0.3,2,0.6,2.5
					c0.5,0.8,1.1,1.1,2,1.1c0.7,0,1.3-0.3,1.8-1c0.4-0.5,0.6-1.3,0.6-2.5c0-2-0.1-3.3-0.3-3.9c-0.1-0.3-0.2-0.5-0.2-0.6
					c0-0.4,0.2-0.7,0.6-0.7c0.2,0,0.5,0.1,0.8,0.4c0.4,0.4,0.6,0.8,0.7,1.3C-179.7,310.8-179.7,311.9-179.7,313.2z"/>
				<path class="st3" d="M-171.6,317.9c0,0.5-0.3,0.8-0.8,0.8c-0.4,0-0.8-0.2-1.1-0.6c0-0.1-0.1-0.1-0.1-0.2
					c-0.1,0.1-0.3,0.2-0.4,0.2c-0.9,0.3-1.6,0.5-2.3,0.5c-0.5,0-0.9-0.2-1.4-0.5c-0.7-0.5-1.1-1.1-1.1-2c0-0.7,0.2-1.2,0.6-1.7
					c0.5-0.5,1.4-1,3-1.3c0.7-0.2,1.2-0.3,1.4-0.6c0-0.3-0.1-0.5-0.2-0.6s-0.2-0.2-0.4-0.2c-0.2,0-0.5,0.1-0.9,0.2l-0.7,0.5
					c-1,0.4-1.6,0.5-1.8,0.5c-0.3,0-0.5-0.1-0.7-0.3s-0.2-0.3-0.2-0.5c0-0.3,0.2-0.6,0.6-0.9c0.1-0.1,0.2-0.1,0.4-0.1
					c0.1,0,0.2,0,0.4-0.1c1.1-0.5,2.1-0.7,2.7-0.7c1.4,0,2.2,0.7,2.5,2c0.1,0.3,0.1,0.7,0.1,1.1v0.6c0,0.3-0.1,0.7-0.1,1.2
					c0,0.2,0,0.6,0,1.2c0,0.3,0,0.5,0.1,0.6c0,0.1,0.1,0.3,0.2,0.5C-171.6,317.6-171.6,317.8-171.6,317.9z M-173.7,314.4
					c-0.3,0.2-0.7,0.3-1.3,0.5c-0.8,0.2-1.3,0.4-1.5,0.6s-0.3,0.5-0.3,0.8s0.2,0.4,0.5,0.5c0.2,0.1,0.5,0.1,0.7,0.1
					c0.6,0,1.2-0.1,1.7-0.4c0-0.1,0-0.2,0-0.4C-173.9,315.9-173.9,315.3-173.7,314.4z"/>
				<path class="st3" d="M-163.6,314.3c0,0.9-0.2,1.6-0.5,2.4s-0.8,1.4-1.4,1.7c-0.4,0.2-0.9,0.4-1.4,0.4c-0.3,0-0.7-0.1-1.2-0.3
					c-0.2-0.1-0.5-0.2-0.7-0.4c0,1.2-0.2,1.9-0.4,2.2c-0.1,0.2-0.3,0.3-0.5,0.3c-0.3,0-0.5-0.1-0.6-0.3c-0.2-0.3-0.4-0.8-0.4-1.4
					c0-0.8,0-1.8,0.1-2.9c0-1.3,0.1-2.1,0.1-2.3c0-1.1-0.1-1.9-0.2-2.3c0-0.2-0.1-0.3-0.1-0.3c0-0.2,0.1-0.3,0.2-0.5
					c0.1-0.1,0.2-0.2,0.4-0.2c0.2,0,0.4,0.1,0.6,0.3c0.1,0.1,0.2,0.3,0.4,0.5h0.1c0.1,0,0.3-0.1,0.6-0.3c0.6-0.3,1.2-0.4,1.7-0.4
					c0.6,0,1.1,0.1,1.5,0.4c0.5,0.3,0.9,0.8,1.2,1.4C-163.7,312.8-163.6,313.6-163.6,314.3z M-165.2,314.3c0-0.7-0.2-1.2-0.5-1.7
					c-0.3-0.4-0.7-0.6-1.2-0.6c-0.3,0-0.7,0.1-1.1,0.3c-0.1,0.1-0.4,0.2-0.6,0.3c0,0.6,0.1,1.9,0.1,3.8c0,0,0.1,0,0.1,0.1
					c0.5,0.4,1,0.6,1.5,0.5c0.5,0,1-0.3,1.3-0.9C-165.5,315.6-165.2,315-165.2,314.3z"/>
				<path class="st3" d="M-155.7,317.9c0,0.5-0.3,0.8-0.8,0.8c-0.4,0-0.8-0.2-1.1-0.6c0-0.1-0.1-0.1-0.1-0.2
					c-0.1,0.1-0.3,0.2-0.4,0.2c-0.9,0.3-1.6,0.5-2.3,0.5c-0.5,0-0.9-0.2-1.4-0.5c-0.7-0.5-1.1-1.1-1.1-2c0-0.7,0.2-1.2,0.6-1.7
					c0.5-0.5,1.4-1,3-1.3c0.7-0.2,1.2-0.3,1.4-0.6c0-0.3-0.1-0.5-0.2-0.6s-0.2-0.2-0.4-0.2s-0.5,0.1-0.9,0.2l-0.8,0.3
					c-1,0.4-1.6,0.5-1.8,0.5c-0.3,0-0.5-0.1-0.7-0.3c-0.2-0.2-0.2-0.3-0.2-0.5c0-0.3,0.2-0.6,0.6-0.9c0.1-0.1,0.2-0.1,0.4-0.1
					c0.1,0,0.2,0,0.4-0.1c1.1-0.5,2.1-0.7,2.7-0.7c1.4,0,2.2,0.7,2.5,2c0.1,0.3,0.1,0.7,0.1,1.1v0.6c0,0.3-0.1,0.7-0.1,1.2
					c0,0.2,0,0.6,0,1.2c0,0.3,0,0.5,0.1,0.6c0,0.1,0.1,0.3,0.2,0.5C-155.7,317.6-155.7,317.8-155.7,317.9z M-157.9,314.4
					c-0.3,0.2-0.7,0.3-1.3,0.5c-0.8,0.2-1.3,0.4-1.5,0.6s-0.3,0.5-0.3,0.8s0.2,0.4,0.5,0.5c0.2,0.1,0.5,0.1,0.7,0.1
					c0.6,0,1.2-0.1,1.7-0.4c0-0.1,0-0.2,0-0.4C-158,315.9-158,315.3-157.9,314.4z"/>
				<path class="st3" d="M-148,317.8c0,0.2-0.1,0.4-0.3,0.6c-0.2,0.2-0.4,0.3-0.6,0.3c-0.5-0.1-0.8-0.3-1-0.9
					c-0.1-0.2-0.1-0.5-0.1-1c0-1,0-1.9,0.1-2.5c0-1.1-0.1-1.7-0.2-1.9c-0.1-0.2-0.3-0.3-0.5-0.3c-0.3,0-0.7,0.1-1.1,0.4l-0.8,0.4
					c-0.1,0-0.2,0.1-0.3,0.2c0,0.4,0,1.1,0,2.2v1.7c0,0.6-0.1,1-0.3,1.3c-0.2,0.3-0.3,0.4-0.6,0.4c-0.2,0-0.4-0.1-0.5-0.3
					c-0.4-0.3-0.6-0.9-0.6-1.5c0-0.3,0-0.8,0.1-1.5c0.1-0.9,0.1-1.7,0.2-2.5c0-0.6-0.1-1.1-0.3-1.5c-0.1-0.2-0.1-0.4-0.1-0.5
					c0-0.2,0-0.4,0.1-0.5s0.3-0.2,0.5-0.2s0.4,0.1,0.7,0.3c0.2,0.2,0.4,0.4,0.5,0.6c0.1,0,0.1-0.1,0.2-0.1c0.6-0.3,1.1-0.5,1.5-0.6
					s0.8-0.2,1.1-0.2c0.4,0,0.8,0.1,1.2,0.3c0.4,0.3,0.7,0.8,0.9,1.4c0.1,0.6,0.2,1.5,0.2,2.7c0,0.3,0,0.7,0,1.2s0,0.9,0,1.2
					c0,0.1,0,0.2,0.1,0.4C-148,317.6-148,317.7-148,317.8z"/>
				<path class="st3" d="M-139.9,317.9c0,0.5-0.3,0.8-0.8,0.8c-0.4,0-0.8-0.2-1.1-0.6c0-0.1-0.1-0.1-0.1-0.2
					c-0.1,0.1-0.3,0.2-0.4,0.2c-0.9,0.3-1.6,0.5-2.3,0.5c-0.5,0-0.9-0.2-1.4-0.5c-0.7-0.5-1.1-1.1-1.1-2c0-0.7,0.2-1.2,0.6-1.7
					c0.5-0.5,1.4-1,3-1.3c0.7-0.2,1.2-0.3,1.4-0.6c0-0.3-0.1-0.5-0.2-0.6s-0.2-0.2-0.4-0.2c-0.2,0-0.5,0.1-0.9,0.2l-0.8,0.3
					c-1,0.4-1.6,0.5-1.8,0.5c-0.3,0-0.5-0.1-0.7-0.3c-0.1,0.1-0.1-0.1-0.1-0.3c0-0.3,0.2-0.6,0.6-0.9c0.1-0.1,0.2-0.1,0.4-0.1
					c0.1,0,0.2,0,0.4-0.1c1.1-0.5,2.1-0.7,2.7-0.7c1.4,0,2.2,0.7,2.5,2c0.1,0.3,0.1,0.7,0.1,1.1v0.6c0,0.3-0.1,0.7-0.1,1.2
					c0,0.2,0,0.6,0,1.2c0,0.3,0,0.5,0.1,0.6c0,0.1,0.1,0.3,0.2,0.5C-140,317.6-139.9,317.8-139.9,317.9z M-142.1,314.4
					c-0.3,0.2-0.7,0.3-1.3,0.5c-0.8,0.2-1.3,0.4-1.5,0.6s-0.3,0.5-0.3,0.8s0.2,0.4,0.5,0.5c0.2,0.1,0.5,0.1,0.7,0.1
					c0.6,0,1.2-0.1,1.7-0.4c0-0.1,0-0.2,0-0.4C-142.2,315.9-142.2,315.3-142.1,314.4z"/>
				<path class="st3" d="M-130.4,317.8c0,0.3-0.1,0.5-0.3,0.7c-0.2,0.2-0.4,0.3-0.6,0.3c-0.7,0-1-0.6-1-1.9c0-0.4,0-1,0.1-1.8
					c0-0.8,0.1-1.4,0.1-1.8s0-0.6-0.1-0.8c-0.1-0.2-0.2-0.2-0.4-0.2c-0.2,0-0.4,0.1-0.7,0.2l-0.7,0.1c0,0.5,0,0.9,0,1.3v2.7
					c0,0.5,0,0.8,0.1,1.1c0,0.3-0.1,0.5-0.3,0.7c-0.2,0.2-0.4,0.2-0.6,0.2c-0.6-0.1-0.8-0.7-0.8-1.8c0-0.3,0-0.6,0-0.9
					c0-0.6,0.1-1.1,0.1-1.6v-1.4c0-0.3,0-0.6-0.1-0.8c-0.1-0.1-0.2-0.2-0.3-0.2c-0.2,0-0.5,0.1-0.9,0.3c-0.1,0.1-0.3,0.1-0.4,0.2
					c0,0.1,0,0.2,0,0.3c0,0.1,0,0.2,0,0.3v3.2c0,1.1-0.1,1.8-0.3,2c-0.2,0.2-0.3,0.3-0.5,0.3s-0.3-0.1-0.5-0.3
					c-0.3-0.4-0.5-1-0.5-1.7c0,0.1,0-0.6,0.1-2.1c0-0.6,0.1-1.3,0.1-2s-0.1-1.1-0.2-1.4c0-0.1-0.1-0.2-0.1-0.3
					c0-0.4,0.2-0.7,0.5-0.7c0.2,0,0.4,0.1,0.5,0.2s0.3,0.3,0.4,0.5c0.2-0.1,0.5-0.3,0.9-0.4c0.5-0.2,0.8-0.3,1.1-0.3
					s0.5,0.1,0.8,0.3c0.1,0.1,0.2,0.2,0.3,0.4c0.3-0.2,0.5-0.3,0.8-0.4c0.5-0.2,0.9-0.3,1.3-0.3c0.7,0,1.2,0.4,1.5,1.1
					c0.1,0.3,0.2,1,0.2,2.1c0,0.4,0,0.9,0,1.6c0,0.8,0,1.3,0,1.6s0,0.6,0.1,0.8C-130.5,317.6-130.4,317.8-130.4,317.8z"/>
				<path class="st3" d="M-122.4,314c0,0.4-0.1,0.6-0.4,0.8c-0.3,0.2-0.6,0.3-1.1,0.3h-3.9c0,0.3,0.1,0.5,0.3,0.8
					c0.4,0.7,1,1.1,1.8,1.2c0.6,0,1.3-0.5,2-1.3c0.1-0.2,0.3-0.2,0.5-0.2c0.1,0,0.3,0.1,0.4,0.2s0.1,0.3,0.2,0.4
					c0,0.4-0.2,0.8-0.4,1.1c-0.3,0.4-0.7,0.8-1.2,1.1c-0.5,0.3-0.9,0.4-1.5,0.4c-0.7,0-1.4-0.2-2.1-0.7c-1.2-0.8-1.7-2-1.7-3.5
					c0-0.8,0.2-1.5,0.6-2.3c0.3-0.6,0.8-1.1,1.4-1.5s1.2-0.5,1.8-0.5s1.2,0.2,1.7,0.5c0.6,0.4,1,0.9,1.4,1.5
					C-122.6,312.9-122.4,313.4-122.4,314z M-124.2,313.3c0-0.1-0.1-0.3-0.3-0.6c-0.4-0.5-0.9-0.8-1.4-0.8c-0.3,0-0.7,0.1-1,0.3
					c-0.4,0.3-0.7,0.7-0.9,1.2h2.8C-124.5,313.5-124.2,313.4-124.2,313.3z"/>
			</g>
			<polygon class="st1" points="-100.2,473.1 -87.4,478.5 -87.4,543.7 -130.9,541.9 -138.9,534.1 			"/>
			<g>
				<path class="st4" d="M-90.7,497.4c-1.4-1.2-3.8-1.6-6.1-1.8c-0.5-0.8-0.3-2.1-1-2.9c0-0.3,0.1-0.5,0-0.9
					c-0.1-0.2-0.4-0.3-0.5-0.5c1.9-0.3,3.7-1.2,4.1-3.2c-0.7-1.9-3.3-1.9-5-3c0.9-0.2,1.7,0.1,2.5,0c1-0.1,1.8-0.8,2.8-0.9
					c0.3-0.4,0.6-0.4,1-0.7c0.9-0.8,0.6-2.7-0.2-3.6c-0.7-0.7-1.4-1-2.1-1.4c-0.5-0.2-1-0.5-1.5-0.6c-3-0.7-6.3-1.2-9.8-1
					c-1.6,0.1-3.3,0-5.1-0.1c0.2-0.5,0.8-0.8,1.2-1.2c0.2-0.2,0.2-0.6,0.4-0.9c0.2-0.3,0.5-0.4,0.6-0.7c0.2-0.4,0.3-1,0.4-1.5
					c0.2-1,0.3-2.2,0.3-3.2c0-0.8-0.2-1.6-0.3-2.3c0-0.4,0.3-0.8-0.1-1.1c-0.5-0.1-0.8,0.7-1.7,0.5c-1.6,1-2.6,2.5-3.5,4.4
					c-1,2-1.2,4.2-1.5,6.5c-0.6,0.1-1.6,0.1-2.1,0c0.2-0.4,0.1-0.9,0-1.3c0.5-1,0.3-2.4,0.6-3.5c0.1-0.2,0.2-0.4,0.3-0.7
					c0.2-0.8,0.2-1.7,0.5-2.4c0.3-0.9,0.9-1.8,0.9-2.8c-0.3-0.2-0.7,0.2-0.8,0.1c-0.2-0.1,0.2-0.4-0.1-0.4c-0.2,0.1-0.5,0-0.8,0.1
					c-1.1,0.4-2.5,1.6-3.5,2.6c-1.2,1.1-2.1,2.5-2.3,3.9c-0.2,0.9,0.2,1.4,0.4,2.3c0.3,1.2,0.4,2.2,1,3c-4.7,1.8-9.7,3.7-10.9,9.1
					c-1.5,2.3-2.3,5.3-2.1,8.8c0.3,4.5,1.5,10.1,3.7,12.6c-0.5,0.6-1.4,2.1-0.6,3c1.7,2.2,7.7,2.5,10.7,2.8
					c-0.2,0.1-0.4,0.2-0.5,0.3c0.1,0.2,0.1,0.6,0.1,0.9c-0.7-0.1-0.9,0.3-1.5,0.2c-0.5,0.5-1.3,0.4-2,0.7c-1.1,0.5-2.7,2.4-2.9,3.4
					c-0.4,1.7,0.8,2.4,1.7,3.2c-3.2-0.1-5.3,1.4-5.9,3.3l-0.5,0.2c-0.4-0.5-0.9-0.9-1.5-1.2c0.3,0.5,0.7,1.1,1,1.7
					c0.1,0.1,0.1,0.2,0.2,0.3l-0.4,0.3c-0.7-1.1-1.3-2.2-2.3-3c0.1,0.3,0.2,0.4,0.1,0.8c0.6,0.6,0.8,1.6,1.3,2.4l-0.6,0.2
					c-0.4-0.8-0.9-1.8-1.5-2.2c0.7,1.6,0.7,3.8,2.2,4.6l-0.3,0.7c-0.5,3.8,4.4,5.4,6.8,3.5c0.1-0.4,0.4-0.7,0.7-0.9h0.1
					c1.7,0.8,4.6,0.4,6.6,1.1c1.1,0.3,2,0.5,2.9,1c-0.3,1.3-0.1,2.3,0.5,3c0.2,0.3,0.5,0.4,0.7,0.7c0.5,1.1-0.1,2.8-0.2,3.9
					c0.7,0.1,1.3-0.5,1.6-1.3l0.6,0.2c-0.1,0.3-0.2,0.5-0.4,0.8c0.5,0.1,1-0.4,1.3-1l0.2,0.1c-0.1,0.2-0.2,0.4-0.2,0.7
					c1,0.7,1.4-0.8,2-1.2c0.1-0.7,0.7-0.9,0.8-1.6c0-0.3-0.5-0.4-0.4-0.5c2.8,0.7,5.3-0.9,6-2.9c0.7,0,1.1-0.4,1.5-0.7h0.5
					c1.3-0.8,2.2-1.8,3.6-2.4c0.1-0.2,0.2-0.4,0.3-0.6c0.6-0.2,0.7-0.6,1-0.9c0.2-0.3,0.6-0.4,0.9-0.7c0.6-0.6,1.2-1.6,1.4-2.3
					c0.1-0.3,0.5-0.5,0.6-0.7s0-0.4,0.1-0.6c0.1-0.3,0.5-0.6,0.6-0.9s0-0.6,0.1-0.9c0.1-0.3,0.3-0.5,0.4-0.8s0-0.6,0.1-0.9
					c0.1-0.4,0.3-0.7,0.3-1.1c0.4-2.9-0.4-5.7-0.7-8.7c-0.5-0.6-0.8-1.3-1.4-1.8c0-1.3-0.7-2.9-2-3v-0.3c2.5,0.3,4.2-1.9,6.3-2.7
					c0.2-0.6,0.5-1.1,0.5-1.9c-0.6-1.1-1.5-1.8-2.8-2.2c1.5-0.8,3.5-1.2,3.9-2.8C-89.1,499-90,498-90.7,497.4z"/>
				<g>
					<path d="M-107.7,503.8c-0.1-0.2-0.1-0.5-0.2-0.6c-0.3-0.4-1.3-0.7-1.8-0.6c-0.3,0.1-0.9,0.8-1.1,1c-0.2,0.3-0.6,1.7-0.5,2.1
						c0.1,0.4,1,0.9,1.6,1.1c1.1,0.3,2-0.1,2.5-0.8c0.1-0.6,0.1-1.2-0.1-1.8C-107.5,504.1-107.7,504-107.7,503.8z"/>
					<path d="M-113.4,540.4c-0.1,1.2-0.5,2.1-1,3C-113.1,543.5-112,540.9-113.4,540.4z"/>
					<path d="M-124.1,503c-0.5-0.3-0.9,0-1.4-0.2c-0.5,0.7-1.2,0.6-1.6,1.4c-0.4,0.8,0.4,2.3,1.2,2.7c1,0.5,2.5-0.2,2.8-1.5
						C-123,504.8-123.6,503.4-124.1,503z"/>
					<path d="M-131,529.4c0.4-0.8-0.3-1.3-0.8-1.8c-0.7-0.8-1.3-1.7-2.2-2.1c0.3,0.5,0.7,1.1,1,1.7
						C-132.4,528.1-132,529.1-131,529.4z"/>
					<path d="M-135.4,525.6c0.9,1,1,2.9,2.4,3.5c0.1-0.2,0.3-0.3,0.2-0.6c-0.9-1.2-1.6-2.7-2.8-3.7
						C-135.5,525-135.2,525.2-135.4,525.6z"/>
					<path d="M-90.7,497.4c-1.4-1.2-3.7-1.6-6.1-1.8c-0.5-0.8-0.3-2.1-1-2.9c0-0.3,0.1-0.5,0-0.9c-0.1-0.2-0.4-0.3-0.6-0.5
						c2-0.3,3.7-1.2,4.1-3.2c-0.7-1.9-3.4-1.9-5-3c0.9-0.2,1.7,0.1,2.5,0c1-0.1,1.8-0.8,2.8-0.9c0.3-0.4,0.6-0.4,1-0.7
						c0.9-0.8,0.6-2.7-0.2-3.6c-0.7-0.7-1.4-1-2.1-1.3c-0.5-0.2-1-0.5-1.5-0.6c-3-0.7-6.2-1.2-9.8-1c-1.6,0.1-3.3,0-5.1-0.1
						c0.2-0.5,0.8-0.8,1.2-1.2c0.2-0.2,0.2-0.6,0.4-0.9c0.2-0.3,0.5-0.4,0.6-0.7c0.2-0.4,0.3-1,0.4-1.5c0.2-1,0.2-2.2,0.3-3.2
						c0-0.8-0.2-1.6-0.3-2.4c0-0.4,0.3-0.8-0.1-1.1c-0.5-0.1-0.8,0.7-1.7,0.5c-1.6,1-2.6,2.5-3.5,4.4c-1,1.9-1.2,4.2-1.5,6.5
						c-0.6,0.1-1.6,0.1-2.1,0c0.2-0.4,0.2-0.9,0-1.3c0.5-1,0.3-2.4,0.6-3.5c0.1-0.2,0.2-0.4,0.3-0.7c0.2-0.8,0.2-1.7,0.5-2.4
						c0.3-0.9,0.9-1.8,0.9-2.8c-0.3-0.2-0.7,0.2-0.8,0.1c-0.2-0.1,0.2-0.4-0.1-0.4c-0.2,0.1-0.5,0-0.8,0.1c-1.1,0.4-2.5,1.6-3.5,2.6
						c-1.1,1.1-2.1,2.5-2.3,3.9c-0.1,0.9,0.2,1.4,0.4,2.3c0.3,1.2,0.4,2.2,1,3c-4.7,1.8-9.7,3.7-10.9,9.1c-1.5,2.4-2.3,5.3-2.1,8.8
						c0.3,4.5,1.5,10.1,3.7,12.6c-0.5,0.6-1.4,2.1-0.6,3c1.7,2.2,7.7,2.5,10.7,2.8c-0.2,0.1-0.4,0.1-0.5,0.3
						c0.1,0.2,0.1,0.6,0.1,0.9c-0.6-0.1-0.9,0.3-1.5,0.2c-0.5,0.5-1.3,0.4-2,0.7c-1.1,0.5-2.7,2.4-2.9,3.4c-0.4,1.7,0.8,2.4,1.7,3.2
						c-3.2-0.1-5.3,1.4-6,3.3c0.5,0.2,0.6-0.2,1.3-0.1c0.7-0.6,1.4-1.4,2.4-1.8c0.9-0.3,2.1-0.7,3.3-0.5c1.1,0.2,2.1,1.4,2.8,0.4
						c-0.2-0.5-1-0.5-1.2-0.8c2.1-0.1,4-0.3,5-1.4c0.2-0.2,0.1-0.6,0.6-0.7c0.6,0.1,2.1,0.3,2.3-0.5c-0.1-0.4-0.8-0.1-1-0.3
						c0.5-0.1,0.7-0.4,1-0.7c0.3,0,1.4,0.1,1.7-0.1c-0.3-0.6-1.6-0.3-2.4-0.3c-0.1,0.3-0.5,0.4-0.8,0.6c-0.4,0.3-0.7,0.8-1.1,0.9
						c-2,0.6-4.4,1.9-7.1,1.3c-0.4-0.4-1-0.5-1.2-1c-0.4-0.9,0.2-2,0.6-2.6c0.4-0.5,0.7-1,1.2-1.3s1-0.7,1.4-0.9
						c0.7-0.4,1.5-0.4,2.1-0.7c0.6,0.4,1.5,1,2.6,1.2c-2.2,0.6-4,1.2-5.9,2.1c0.8-0.1,1.7,0.2,2.7,0c0.2-0.1,0.5-0.3,0.8-0.4
						c1.2-0.5,2.8-0.8,3.5-1.4c0.1-1,0.6-1.7,0.9-2.6c0.4,0.4,0.7,0.9,0.6,1.8c-0.3,0.1-0.8,0-1,0c0.6,0.6,1.8,0.5,2.4,1.1
						c-0.6,0-1.4-0.1-1.7,0.2c0.2,0,0.3,0.1,0.5,0.1c-0.2,0-0.4,0.1-0.5,0.1c0.9,0.2,1.7,0.3,2.5,0.3c0.1,0,0.3,0.1,0.4,0.1
						c0.1-0.1,0.1-0.2,0.2-0.2c0.7,0.3,1.7,0.3,2.8,0.4c1.3,0.1,2.7,0.8,2.6-0.4c-1.6-0.3-3.8-0.4-5.4-0.1c0.1-0.2,0-0.4,0-0.7
						c-0.2-0.3-0.9-0.4-0.8-0.6c1.6,0.1,3.3-0.7,4.6-1.5c1.3,0.4,2.3,1.2,3.3,2s2.1,1.2,1.7,2.9c-1.4,2.5-5.4,1.9-8.4,1.4
						c-0.9,0.3-2,0.4-2.6-0.1c-0.6,0-1.4,0.2-2.3,0.3c0.5,0.6,1.4,0.1,2.2,0.2c0.4,0.1,0.7,0.5,1.2,0.5c0.9,0.2,1.4-0.1,2.1-0.6
						c1.1,1,3.6,1,5.5,1.1c0.3,1.2,1,2.5,1.2,3.9c0,0.2,0,0.5,0.1,0.7c0.2,0.7,0.7,1.4,0.8,2.1c0.3,1.5,0.2,3.1-0.5,4.2
						c0,0.3,0,0.3,0,0.7c-1.5,2-3,3.9-6.6,3.9c-0.2,0-0.2-0.5-0.4-0.3c-0.3,0.5,0.3,0.8,0.6,1.1c-0.5,1.2-1.3,2.1-1.7,3.4
						c1,0.7,1.4-0.8,2-1.2c0.1-0.7,0.7-0.9,0.8-1.6c0-0.3-0.5-0.4-0.4-0.5c2.8,0.7,5.3-0.9,6-2.9c0.7,0,1.1-0.4,1.5-0.7h0.5
						c1.3-0.7,2.2-1.8,3.6-2.4c0.1-0.2,0.2-0.4,0.3-0.6c0.6-0.2,0.7-0.6,1-0.9c0.2-0.3,0.6-0.4,0.9-0.7c0.6-0.6,1.2-1.6,1.5-2.3
						c0.1-0.3,0.5-0.5,0.6-0.7s0-0.4,0.1-0.6c0.1-0.3,0.5-0.6,0.6-0.9s0-0.6,0.1-0.9c0.1-0.3,0.3-0.6,0.4-0.8c0.1-0.3,0-0.6,0.1-0.9
						c0.1-0.4,0.3-0.7,0.3-1.1c0.4-2.9-0.4-5.7-0.7-8.7c-0.5-0.6-0.8-1.3-1.4-1.8c0-1.3-0.7-2.9-2-3c0.8,0.7,0.6,2.1,1.1,3
						c0.2,0.4,0.6,0.6,0.7,0.9c0.2,0.8,0.1,1.6,0.1,2.4c0.3,2.7,0.8,5.1,0.1,7.7c-0.3,1.2-0.7,2.4-1.2,3.4c-0.5,1.1-1.4,1.8-1.9,2.8
						c-0.8,0.3-1.1,1-1.7,1.5c-0.5,0.5-1.3,0.7-1.9,1.1c-0.6,0.4-1.1,0.9-1.7,1.1c0.9-1.4,0.4-3.9,0.3-5.4c-0.3-0.9-1-1.5-1.2-2.4
						c-0.1-0.3-0.2-0.6-0.3-0.9c-0.2-0.9-0.6-1.4-1.4-1.9c1.8,0,3.7-1.8,2.6-3.5c0.5-1.4-1-2.8-1.9-3.4c-1-0.7-2.5-1-3.5-1.3
						c0.1-0.3,0.3-0.4,0.3-0.7c-0.2-0.4-0.5-0.7-0.8-1.1c1.7-1.3,4.2-1.4,5.9-2.7c0.3-0.2,0.4-0.5,0.6-0.7c0.7-0.6,1.9-0.7,1.9-1.8
						c1.1-0.7,1.4-2.4,2.4-3.2c-0.1-0.4-0.1-0.7-0.1-1.1c0.3-0.3,0.6-0.6,0.9-0.9c0-0.5,0.1-0.7,0.5-1c-0.2-0.3,0-0.7,0.1-1
						c0.2-1.4,0.2-2.9,0.2-4.6c1,0.3,3.4,0.4,4.4,1.2c0.2,0.2,0.8,0.9,0.8,1.2c0,0.5-0.9,1.5-1.3,2c-0.9,1-2.1,1.8-3.3,2
						c0.7,0.8,1.9,0.4,3.1,0.9c0.6,0.3,1.4,1,1.3,1.6c-0.1,0.4-1.3,1.3-1.7,1.6c-0.4,0.3-0.6,0.5-0.9,0.7s-0.9,0.4-1.1,0.6
						c-0.2,0.2-0.3,0.5-0.5,0.7c-0.1,0.1-0.4,0.2-0.6,0.3c-0.3,0.2-0.7,0.4-0.6,0.5c2.5,0.3,4.2-1.9,6.3-2.7
						c0.2-0.6,0.5-1.1,0.5-1.9c-0.6-1.1-1.5-1.8-2.8-2.2c1.4-0.8,3.5-1.2,3.9-2.8C-89.1,499-90,498-90.7,497.4z M-114.2,474.3
						c0.3-0.5,0.5-1.1,0.8-1.8c0.2-0.6,0.6-1.1,0.8-1.7c0.3-0.8,0.4-1.5,0.8-2.2s0.7-1,1.2-1.6c0.3-0.3,0.2-0.5,0.8-0.4
						c-0.5,1.7-0.3,4.3-0.8,6.3c-0.3,1.2-1.4,3.2-2.4,3.8c-0.4,0.2-0.9,0.2-1.5,0.2C-114.6,476-114,475.1-114.2,474.3z
						 M-121.5,473.1c0.1-0.6,0.8-2.5,1.2-3c0.4-0.6,0.8-0.9,1.5-1.4c0.8-0.6,1.5-1.3,2.5-1.6c-1.7,2.7-3.3,6.5-2.8,10.4
						c-0.6,0.3-0.8-0.1-1.3-0.2C-121,476.1-121.6,474.7-121.5,473.1z M-131.2,503.5c-0.6-2.7-0.8-6.1-0.8-9.2
						c0.1-2.6,0.9-4.7,1.8-6.7c1.9-1.1,2.6-3.4,4.3-4.7c1.7-1.2,3.7-2,6.1-2.6c1.6-0.4,2.7-0.6,4.7-0.7c0.6,0,1.2-0.2,1.8-0.3
						c2.7-0.3,5.3,0.2,7.7,0.1c-1.5,0.4-2.9,0.2-4.6,0.3c-2.2,0.1-4.6,0.5-6.8,0.9c-2.9,0.6-6.1,1.9-8,3.6c-0.7,0.6-1.5,1.5-0.8,2.5
						c-1,0.4-2,0.8-1.9,2.2c-0.4,0.2-0.2,0.7-0.3,0.9c-0.2,0.2-0.5,0.2-0.8,0.4c-0.4,0.4-0.5,1-1,1.1c0.1,0.8,0.2,1.4,0.6,2
						c-0.9,0.4-1.9,1.1-1.9,2.1c0.1,1.3,1.8,1.7,3.1,1.4c-0.9,0.6-2.2,0.4-3.1,0.9C-130.7,499.6-131.2,501.8-131.2,503.5z
						 M-126.9,511.7c-0.6,0.2-2,0-2.7-0.2c0-0.7,0.4-1.1,0.3-1.7c0.2-0.2,0.6-0.1,0.7-0.3c0.7,0.2,1.2,0.6,1.9,0.7
						c-0.5,0.2-1-0.2-1.5-0.3C-128.2,510.8-127.7,511.5-126.9,511.7z M-104.9,502.9c0,0.3-0.2,0.6-0.2,1c0,1,0.1,3-0.4,3.8
						c-0.2,0.4-1.2,0.7-2.1,0.8c-1.4,0.1-2.9,0.2-4.6,0.3c-4.4,0.2-8,0.2-12.1,0.2c-1.4,0-3-0.5-4.4-0.5c-0.1-1,0.3-1.7-0.1-2.3
						c0.3-0.8,0.1-1.4-0.2-2.2c0.3-0.6,0-1.2,0.1-1.9c0.1-0.9,0.7-1.8,0.3-2.6c0.1-0.4,0.3-0.6,0.4-1c1.5-0.3,2.9-1,4.8-1.1
						c3-0.1,5.3,0.1,7.9,0.2c1.4,0.1,2.8-0.1,4.1-0.1c2.2,0.1,4.3,0.5,6.4,0.8c0.1,0,0.2,0.1,0.2,0.1
						C-105.2,500.2-104.7,501.4-104.9,502.9z M-99.5,498.2c-0.1,2.1-0.7,4.1-1.3,5.7c-0.2,0.5-0.7,0.9-0.9,1.5
						c-0.7,1.5-1.3,3.2-2.6,3.8c0.1-0.4,0.7-0.8,0.6-1.6c0.8-0.1,0.9-0.7,1.2-1.3c0.2-0.4,0.6-0.6,0.7-0.9c0.1-0.4,0-0.9,0.1-1.4
						c0.2-0.2,0.3-0.5,0.6-0.7c0-0.2,0.1-0.5-0.1-0.5c0.9-2,1.1-3.9,0.8-6.2c0.3-0.1,0.1-0.2,0.2-0.4c0-0.4,0-0.8-0.1-1.1
						s-0.4-0.4-0.8-0.6c0.3-1.3-1-1.6-1.7-2.2c0.5-0.4,1.1-0.6,1.5-1.1c-0.1,1.4,0.7,1.9,1.2,2.7c0.2,0.6,0.3,1.3,0.4,1.9
						c0,0.1,0,0.1,0,0.2l0,0C-99.5,496.7-99.5,497.5-99.5,498.2z"/>
					<path d="M-134.7,528.1c-0.4-0.8-0.9-1.8-1.5-2.1c0.7,1.6,0.7,3.8,2.2,4.6C-133.5,529.9-134.2,528.9-134.7,528.1z"/>
					<path d="M-114.5,539.8c-0.6-1.1-1.7-2.2-1.1-3.3c1,0.3,2.2,0.5,3,0.8c0.2,0.3,0.6,0.6,1,0.4c0.3-0.1,0.3-0.8,0.1-0.9
						c-1.5-1.6-3.9-2.4-6.6-2.8s-5.8-0.1-8.4-0.2c-0.2,0-0.5-0.1-0.8-0.2c-1.9,0.3-4.2,1-5.3-0.1c-0.2-0.2-0.2-0.5-0.3-0.8
						c-0.4-0.5-0.8-0.9-1.2-1.4c-0.5,3.8,4.4,5.4,6.8,3.5c0.1-0.4,0.4-0.7,0.7-0.9c1.7,0.8,4.6,0.5,6.7,1.1c1.1,0.3,2,0.6,2.9,1
						c-0.3,1.3,0,2.3,0.6,3c0.2,0.3,0.6,0.4,0.7,0.7c0.5,1.1-0.1,2.8-0.2,3.9C-114.7,543.9-113.9,541.1-114.5,539.8z"/>
				</g>
			</g>
		</g>
	</g>
</g>
<g id="url" class="st10">
  <path d="M-217.7,545.4v-4h0.5v1.4c0.2-0.3,0.5-0.4,0.9-0.4c0.2,0,0.4,0,0.6,0.1s0.3,0.2,0.3,0.4s0.1,0.4,0.1,0.7v1.8h-0.5v-1.8
    c0-0.2-0.1-0.4-0.2-0.5c-0.1-0.1-0.3-0.2-0.5-0.2c-0.1,0-0.3,0-0.4,0.1c-0.1,0.1-0.2,0.2-0.3,0.3c-0.1,0.1-0.1,0.3-0.1,0.5v1.6
    H-217.7z"/>
  <path d="M-213.5,545l0.1,0.4c-0.1,0-0.3,0-0.4,0c-0.2,0-0.3,0-0.4-0.1c-0.1-0.1-0.2-0.1-0.2-0.2c0-0.1-0.1-0.3-0.1-0.6v-1.7h-0.4
    v-0.4h0.4v-0.7l0.5-0.3v1h0.5v0.4h-0.5v1.7c0,0.1,0,0.2,0,0.3c0,0,0,0.1,0.1,0.1s0.1,0,0.2,0C-213.6,545-213.6,545-213.5,545z"/>
  <path d="M-211.9,545l0.1,0.4c-0.1,0-0.3,0-0.4,0c-0.2,0-0.3,0-0.4-0.1c-0.1-0.1-0.2-0.1-0.2-0.2c0-0.1-0.1-0.3-0.1-0.6v-1.7h-0.4
    v-0.4h0.4v-0.7l0.5-0.3v1h0.5v0.4h-0.5v1.7c0,0.1,0,0.2,0,0.3c0,0,0,0.1,0.1,0.1s0.1,0,0.2,0C-212.1,545-212,545-211.9,545z"/>
  <path d="M-211.4,546.5v-4h0.4v0.4c0.1-0.1,0.2-0.3,0.4-0.3c0.1-0.1,0.3-0.1,0.5-0.1c0.2,0,0.5,0.1,0.7,0.2
    c0.2,0.1,0.3,0.3,0.4,0.5c0.1,0.2,0.1,0.5,0.1,0.8c0,0.3-0.1,0.6-0.2,0.8c-0.1,0.2-0.3,0.4-0.5,0.5c-0.2,0.1-0.4,0.2-0.6,0.2
    c-0.2,0-0.3,0-0.4-0.1s-0.2-0.2-0.3-0.3v1.4H-211.4z M-211,544c0,0.4,0.1,0.7,0.2,0.8s0.3,0.3,0.5,0.3c0.2,0,0.4-0.1,0.6-0.3
    c0.2-0.2,0.2-0.5,0.2-0.9c0-0.4-0.1-0.6-0.2-0.8c-0.2-0.2-0.3-0.3-0.5-0.3c-0.2,0-0.4,0.1-0.6,0.3C-210.9,543.3-211,543.6-211,544
    z"/>
  <path d="M-208.2,543.1v-0.6h0.6v0.6H-208.2z M-208.2,545.4v-0.6h0.6v0.6H-208.2z"/>
  <path d="M-207.1,545.5l1.2-4.1h0.4l-1.2,4.1H-207.1z"/>
  <path d="M-205.6,545.5l1.2-4.1h0.4l-1.2,4.1H-205.6z"/>
  <path d="M-204.3,546.5l0.1-0.4c0.1,0,0.2,0,0.2,0c0.1,0,0.2,0,0.2-0.1c0-0.1,0.1-0.2,0.1-0.5v-3.1h0.5v3.1c0,0.4,0,0.6-0.1,0.7
    c-0.1,0.2-0.3,0.3-0.6,0.3C-204,546.6-204.2,546.6-204.3,546.5z M-203.7,542v-0.6h0.5v0.6H-203.7z"/>
  <path d="M-200.5,545.1c-0.2,0.2-0.4,0.3-0.5,0.3c-0.2,0.1-0.4,0.1-0.5,0.1c-0.3,0-0.6-0.1-0.7-0.2c-0.2-0.2-0.3-0.4-0.3-0.6
    c0-0.1,0-0.3,0.1-0.4c0.1-0.1,0.1-0.2,0.3-0.3c0.1-0.1,0.2-0.1,0.4-0.2c0.1,0,0.2,0,0.4-0.1c0.4,0,0.7-0.1,0.9-0.2
    c0-0.1,0-0.1,0-0.1c0-0.2,0-0.3-0.1-0.4c-0.1-0.1-0.3-0.2-0.6-0.2c-0.2,0-0.4,0-0.5,0.1s-0.2,0.2-0.2,0.4l-0.5-0.1
    c0-0.2,0.1-0.4,0.2-0.5c0.1-0.1,0.2-0.2,0.4-0.3c0.2-0.1,0.4-0.1,0.7-0.1c0.2,0,0.4,0,0.6,0.1c0.2,0.1,0.3,0.1,0.3,0.2
    c0.1,0.1,0.1,0.2,0.2,0.3c0,0.1,0,0.2,0,0.5v0.7c0,0.5,0,0.7,0,0.9c0,0.1,0.1,0.2,0.1,0.3h-0.5
    C-200.5,545.3-200.5,545.2-200.5,545.1z M-200.6,544c-0.2,0.1-0.4,0.1-0.8,0.2c-0.2,0-0.3,0.1-0.4,0.1c-0.1,0-0.1,0.1-0.2,0.2
    c0,0.1-0.1,0.1-0.1,0.2c0,0.1,0,0.2,0.1,0.3c0.1,0.1,0.2,0.1,0.4,0.1c0.2,0,0.4,0,0.5-0.1s0.3-0.2,0.3-0.3
    c0.1-0.1,0.1-0.3,0.1-0.5V544z"/>
  <path d="M-199.3,546.5v-4h0.4v0.4c0.1-0.1,0.2-0.3,0.4-0.3c0.1-0.1,0.3-0.1,0.5-0.1c0.2,0,0.5,0.1,0.7,0.2
    c0.2,0.1,0.3,0.3,0.4,0.5c0.1,0.2,0.1,0.5,0.1,0.8c0,0.3-0.1,0.6-0.2,0.8c-0.1,0.2-0.3,0.4-0.5,0.5c-0.2,0.1-0.4,0.2-0.6,0.2
    c-0.2,0-0.3,0-0.4-0.1s-0.2-0.2-0.3-0.3v1.4H-199.3z M-198.9,544c0,0.4,0.1,0.7,0.2,0.8s0.3,0.3,0.5,0.3c0.2,0,0.4-0.1,0.6-0.3
    c0.2-0.2,0.2-0.5,0.2-0.9c0-0.4-0.1-0.6-0.2-0.8c-0.2-0.2-0.3-0.3-0.5-0.3c-0.2,0-0.4,0.1-0.6,0.3
    C-198.8,543.3-198.9,543.6-198.9,544z"/>
  <path d="M-194.3,545.1c-0.2,0.2-0.4,0.3-0.5,0.3c-0.2,0.1-0.4,0.1-0.5,0.1c-0.3,0-0.6-0.1-0.7-0.2c-0.2-0.2-0.3-0.4-0.3-0.6
    c0-0.1,0-0.3,0.1-0.4c0.1-0.1,0.1-0.2,0.3-0.3c0.1-0.1,0.2-0.1,0.4-0.2c0.1,0,0.2,0,0.4-0.1c0.4,0,0.7-0.1,0.9-0.2
    c0-0.1,0-0.1,0-0.1c0-0.2,0-0.3-0.1-0.4c-0.1-0.1-0.3-0.2-0.6-0.2c-0.2,0-0.4,0-0.5,0.1s-0.2,0.2-0.2,0.4l-0.5-0.1
    c0-0.2,0.1-0.4,0.2-0.5c0.1-0.1,0.2-0.2,0.4-0.3c0.2-0.1,0.4-0.1,0.7-0.1c0.2,0,0.4,0,0.6,0.1c0.2,0.1,0.3,0.1,0.3,0.2
    c0.1,0.1,0.1,0.2,0.2,0.3c0,0.1,0,0.2,0,0.5v0.7c0,0.5,0,0.7,0,0.9c0,0.1,0.1,0.2,0.1,0.3h-0.5
    C-194.2,545.3-194.3,545.2-194.3,545.1z M-194.3,544c-0.2,0.1-0.4,0.1-0.8,0.2c-0.2,0-0.3,0.1-0.4,0.1c-0.1,0-0.1,0.1-0.2,0.2
    c0,0.1-0.1,0.1-0.1,0.2c0,0.1,0,0.2,0.1,0.3c0.1,0.1,0.2,0.1,0.4,0.1c0.2,0,0.4,0,0.5-0.1s0.3-0.2,0.3-0.3
    c0.1-0.1,0.1-0.3,0.1-0.5V544z"/>
  <path d="M-193.1,545.4v-2.9h0.4v0.4c0.2-0.3,0.5-0.5,0.9-0.5c0.2,0,0.3,0,0.5,0.1c0.1,0.1,0.3,0.1,0.3,0.2
    c0.1,0.1,0.1,0.2,0.2,0.4c0,0.1,0,0.3,0,0.5v1.8h-0.5v-1.8c0-0.2,0-0.4-0.1-0.5c0-0.1-0.1-0.2-0.2-0.2c-0.1-0.1-0.2-0.1-0.3-0.1
    c-0.2,0-0.4,0.1-0.5,0.2s-0.2,0.4-0.2,0.8v1.6H-193.1z"/>
  <path d="M-188.1,545.1c-0.2,0.2-0.4,0.3-0.5,0.3c-0.2,0.1-0.4,0.1-0.5,0.1c-0.3,0-0.6-0.1-0.7-0.2c-0.2-0.2-0.3-0.4-0.3-0.6
    c0-0.1,0-0.3,0.1-0.4c0.1-0.1,0.1-0.2,0.3-0.3c0.1-0.1,0.2-0.1,0.4-0.2c0.1,0,0.2,0,0.4-0.1c0.4,0,0.7-0.1,0.9-0.2
    c0-0.1,0-0.1,0-0.1c0-0.2,0-0.3-0.1-0.4c-0.1-0.1-0.3-0.2-0.6-0.2c-0.2,0-0.4,0-0.5,0.1s-0.2,0.2-0.2,0.4l-0.5-0.1
    c0-0.2,0.1-0.4,0.2-0.5c0.1-0.1,0.2-0.2,0.4-0.3c0.2-0.1,0.4-0.1,0.7-0.1c0.2,0,0.4,0,0.6,0.1c0.2,0.1,0.3,0.1,0.3,0.2
    c0.1,0.1,0.1,0.2,0.2,0.3c0,0.1,0,0.2,0,0.5v0.7c0,0.5,0,0.7,0,0.9c0,0.1,0.1,0.2,0.1,0.3h-0.5C-188,545.3-188,545.2-188.1,545.1z
     M-188.1,544c-0.2,0.1-0.4,0.1-0.8,0.2c-0.2,0-0.3,0.1-0.4,0.1c-0.1,0-0.1,0.1-0.2,0.2c0,0.1-0.1,0.1-0.1,0.2c0,0.1,0,0.2,0.1,0.3
    c0.1,0.1,0.2,0.1,0.4,0.1c0.2,0,0.4,0,0.5-0.1s0.3-0.2,0.3-0.3c0.1-0.1,0.1-0.3,0.1-0.5V544z"/>
  <path d="M-186.8,545.4v-2.9h0.4v0.4c0.1-0.1,0.2-0.3,0.4-0.3c0.2-0.1,0.3-0.1,0.5-0.1c0.2,0,0.4,0,0.5,0.1
    c0.1,0.1,0.2,0.2,0.3,0.4c0.2-0.3,0.5-0.5,0.9-0.5c0.3,0,0.5,0.1,0.7,0.2c0.2,0.2,0.2,0.4,0.2,0.7v2h-0.5v-1.8c0-0.2,0-0.3,0-0.4
    c0-0.1-0.1-0.2-0.2-0.2c-0.1-0.1-0.2-0.1-0.3-0.1c-0.2,0-0.4,0.1-0.5,0.2c-0.1,0.1-0.2,0.4-0.2,0.7v1.7h-0.5v-1.9
    c0-0.2,0-0.4-0.1-0.5c-0.1-0.1-0.2-0.2-0.4-0.2c-0.1,0-0.3,0-0.4,0.1c-0.1,0.1-0.2,0.2-0.3,0.3c-0.1,0.1-0.1,0.3-0.1,0.6v1.5
    H-186.8z"/>
  <path d="M-180.2,544.5l0.5,0.1c-0.1,0.3-0.2,0.5-0.4,0.7c-0.2,0.2-0.5,0.2-0.8,0.2c-0.4,0-0.8-0.1-1-0.4s-0.4-0.6-0.4-1.1
    c0-0.5,0.1-0.9,0.4-1.1c0.3-0.3,0.6-0.4,1-0.4c0.4,0,0.7,0.1,1,0.4c0.2,0.3,0.4,0.6,0.4,1.1c0,0,0,0.1,0,0.1h-2.2
    c0,0.3,0.1,0.6,0.3,0.7c0.2,0.2,0.4,0.3,0.6,0.3c0.2,0,0.3,0,0.5-0.1C-180.4,544.8-180.3,544.7-180.2,544.5z M-181.8,543.7h1.6
    c0-0.2-0.1-0.4-0.2-0.5c-0.2-0.2-0.4-0.3-0.6-0.3c-0.2,0-0.4,0.1-0.6,0.2C-181.7,543.2-181.8,543.4-181.8,543.7z"/>
  <path d="M-178.9,545.4v-0.6h0.6v0.6H-178.9z"/>
  <path d="M-178.1,546.5l0.1-0.4c0.1,0,0.2,0,0.2,0c0.1,0,0.2,0,0.2-0.1c0-0.1,0.1-0.2,0.1-0.5v-3.1h0.5v3.1c0,0.4,0,0.6-0.1,0.7
    c-0.1,0.2-0.3,0.3-0.6,0.3C-177.9,546.6-178,546.6-178.1,546.5z M-177.5,542v-0.6h0.5v0.6H-177.5z"/>
  <path d="M-176.3,546.5v-4h0.4v0.4c0.1-0.1,0.2-0.3,0.4-0.3c0.1-0.1,0.3-0.1,0.5-0.1c0.2,0,0.5,0.1,0.7,0.2
    c0.2,0.1,0.3,0.3,0.4,0.5c0.1,0.2,0.1,0.5,0.1,0.8c0,0.3-0.1,0.6-0.2,0.8c-0.1,0.2-0.3,0.4-0.5,0.5c-0.2,0.1-0.4,0.2-0.6,0.2
    c-0.2,0-0.3,0-0.4-0.1s-0.2-0.2-0.3-0.3v1.4H-176.3z M-175.8,544c0,0.4,0.1,0.7,0.2,0.8s0.3,0.3,0.5,0.3c0.2,0,0.4-0.1,0.6-0.3
    c0.2-0.2,0.2-0.5,0.2-0.9c0-0.4-0.1-0.6-0.2-0.8c-0.2-0.2-0.3-0.3-0.5-0.3c-0.2,0-0.4,0.1-0.6,0.3
    C-175.7,543.3-175.8,543.6-175.8,544z"/>
  <path d="M-173.5,545.5l1.2-4.1h0.4l-1.2,4.1H-173.5z"/>
</g>
<g id="variables">
  <text id="japaname_string" transform="matrix(1 0 0 1 -155.6502 348.4565)" class="st5 st6">舞医家流</text>
	<text id="japaname_code" transform="matrix(1 0 0 1 -165.9317 330.4198)" class="st7 st8">00-0042</text>
	<text id="original_name" transform="matrix(1 0 0 1 -155.6575 482.1234)" class="st7 st9" text-anchor="middle">michael</text>
	<rect id="qrcode_container" x="-219.5" y="499" class="st1" width="41.2" height="41.2"/>

  <image id="qrcode" transform="matrix(1 0 0 1 -219.5 500.2)" width="40" height="40" style="" xlink:href=""></image>
	<text id="japaname_url" transform="matrix(1 0 0 1 -171.5469 545.4196)" class="st7 st8">00-0042</text>
</g>
</svg>
