<?xml version="1.0" encoding="utf-8"?>
<!-- Generator: Adobe Illustrator 19.1.0, SVG Export Plug-In . SVG Version: 6.00 Build 0)  -->
<svg version="1.1" id="レイヤー_1" xmlns="http://www.w3.org/2000/svg" xmlns:xlink="http://www.w3.org/1999/xlink" x="0px"
	 y="0px" viewBox="-478.9 409 141.7 255.1" style="enable-background:new -478.9 409 141.7 255.1;" xml:space="preserve">
<style type="text/css">
	.st0{clip-path:url(#SVGID_2_);}
	.st1{fill:#FFFFFF;}
	.st2{fill:none;}
	.st3{stroke:#000000;stroke-width:0.2155;stroke-miterlimit:10;}
	.st4{fill:#FFFFFF;stroke:#FFFFFF;stroke-width:5;stroke-linecap:round;stroke-linejoin:round;stroke-miterlimit:10;}
	.st6{font-size:5.6031px;}
	.st7{font-size:6.9116px;}
	.st8{font-family:'ro-shino-std';}
	.st9{font-size:30px;glyph-orientation-vertical:0;writing-mode:tb;}
	.st10{font-size:10px;}
</style>
<g id="ol">
	<g>
		<g>
			<g>
				<g>
					<g>
						<g>
							<g>
								<defs>
									<rect id="SVGID_1_" x="-470.4" y="425.6" width="124.7" height="232.4"/>
								</defs>
								<clipPath id="SVGID_2_">
									<use xlink:href="#SVGID_1_"  style="overflow:visible;"/>
								</clipPath>
								<g class="st0">
									<g>
										<path d="M-403.5,424.6c-0.2,0.4-0.5,0.7-0.3,1.3c1.4,4.9-1.7,18.9-3,19.7c-0.8,1.3-3.3,1-5.2,1.3
											c-1.6,0.3-3.3,0.5-4.9,0.4c-0.3,0.7-0.2,1.5-0.4,2.2c-0.5,2.2-2,3.9-3.9,4.9c-0.5,0.4-0.7,1.3-1.3,1.7
											c-0.9,0.6-2,0.3-3.4,0.6c-0.5,0.1-1,0.6-1.5,0.8c-1.1,0.3-2.1,0-2.9,0.3c-0.1,2.1,0,4.1-0.9,5.8c-0.7,0.8-1.6,1.7-2.5,2.4
											c-0.3,0.2-0.7,0.4-1,0.6c-0.5,0.4-1,0.9-1.8,1.1c-0.9,0.2-1.8,0.1-2.7,0.3c-1.6,0.2-3.2,0.6-4.9,0.3
											c-0.2,1,0.1,1.8,0.3,2.7c-1.2,1.5-1.7,3.7-4.3,4c0.6,0.6,1.4,0.3,2.2,0.4c0.6,0.1,1.5,0.5,2,0.8c0.3,0.2,0.4,0.5,0.7,0.6
											c0.8,0.5,1.9,0.4,2,1.7c0.6,0.6,1.3,1.2,1.7,2.1c-0.4,0.8,0,1.7-0.2,2.4c-0.3,0.8-1.1,1.4-1.2,2.4c-0.8,0.7-1.6,1.4-2.5,2
											c-1.1,0.4-2.4,0.5-3.8,0.9c-1.4,0.4-2.4,0.7-4,0.9c-2.6,0.4-5.1,0-7.8-0.2c-0.3,0.6-0.7,1.3-1.3,1.7
											c0.1,0.5-0.4,0.8-0.6,1.2c-0.1,0.3-0.1,0.6-0.2,0.7c-0.4,0.6-0.9,0.9-1.5,1.2c-0.8,0.5-1.7,1.5-2.6,1.9
											c-0.3,0.1-0.6,0.2-0.9,0.3c-0.6,0.3-1.2,0.8-2.2,0.9c-0.4,0-0.7,0-1,0c-0.9,0-1.8,0.2-2.8,0.6c-0.3,0.1-0.5,0.3-0.8,0.4
											c-2,0.6-4.2-0.1-6.1-0.5c-0.3,0.1-0.6,0.2-0.9,0.4c-0.3-0.5-0.7-0.8-0.7-1.7c0-0.2,0.1-0.4,0.1-0.7c0-1-0.4-2-0.4-2.9
											c0-0.5,0.2-1,0.1-1.6c-0.1-1.2-0.3-2.3-0.5-3.4c0-0.3,0.3,0,0.2-0.3c0.1-0.4-0.2,0-0.2-0.2c-0.6-3.6-0.3-7.2,0.1-10.8
											c0.1-0.5-0.1-1,0-1.6c0.1-0.5,0.2-0.9,0.3-1.4c0.1-0.7,0.4-1.3,0.5-2c0.1-0.5,0-1.1,0.1-1.6c0.1-0.6,0.3-1.4,0.3-2.1
											c0-0.5-0.1-1-0.1-1.6c0-0.7,0.2-2.1,0-3.1c-0.1-0.4-0.3-0.6-0.3-0.9c0-0.4,0.4-1.1,0.3-1.4c0,0.1,0.1-1.2,0.2-1.6
											c0.1-0.4,0.5-0.9,0.5-1.4c0.1-0.6,0-1.2,0.3-1.7c-0.3-1.8-0.1-3.5-0.4-5.4c0.2-0.2,0.3-0.4,0.3-0.8c0.7-1,1.1-2.3,1.8-3.4
											c0.7-0.6,0.9-1.6,1.6-2.2c0-0.6,0.3-12.3,0.5-12.7c-0.6-1.3,1.3-7.1,2.1-8.2c2.6-2.2,6.2-3.8,10.2-4.7
											c1.5-0.4,3.1-0.5,4.8-0.6c2.4-0.2,4.6-0.7,7.1-0.6c1.9,0.1,3.9,0.4,6.1,0.4c2.8,0.1,5.6,0.1,8.4,0c1.4-0.1,2.8,0,4.1-0.1
											c1.4-0.1,2.7-0.4,4.1-0.4c4.4-0.2,8.5,0.4,13,0.8c0.7,0.1,1.4,0,2.1,0.1c0.6,0,1.3,0.2,1.9,0.3c1.6,0.1,2.8-0.1,4,0.2
											c0.5,0.1,1.3,0.4,1.8,0.6c0.7,0.4,1.2,1.1,1.7,1.9c-0.5,0.5,0.4,1.1-0.2,1.5C-403.9,423-403.9,424-403.5,424.6z
											 M-412.6,445.9c1.2-0.2,2.4-0.1,3.4-0.4c1.1-0.3,1.8-1.1,2.6-1.8c0.5-0.5,1-12.2,1.3-12.6c0.9-1.6-0.5-7.7,0-9.3
											c-0.5-0.5-0.3-1.2-0.3-1.8c-0.5,0-1.1-0.3-1.5-0.7c-0.7,0.4-1.1-0.5-1.6-0.6c-0.6-0.1-1.4,0.3-2,0.3s-1.2-0.4-1.8-0.4
											c-0.8-0.1-1.7,0.1-2.5,0.1c-1.2,0-2.2-0.4-3.4-0.6c-2-0.2-4.1-0.3-6-0.4c-1.4-0.1-2.7,0.1-3.8,0c-2.2,0.8-5.2,0.4-8,0.5
											c-0.3,0-0.6,0.1-0.9,0.1c-3.1,0.2-6.1,0.1-9-0.1c-1.5-0.1-2.9-0.4-4.3-0.4c-1.6-0.1-3.6,0.3-5.4,0.5s-3.5,0-5.1,0.2
											c-1.6,0.2-3,1-4.3,1.6c-1.5,0.8-3.4,0.8-4.7,1.4c-0.8,0.4-1.2,1-1.8,1.5c-1.6,1.6-2.2,19.9-3.5,21.6
											c-0.1,1.5-1.2,2.5-1.8,3.7c-1,1.9-0.9,4-1,6.9c0,1.3-0.4,2.1-0.7,3.3c-0.3,1.4-0.5,2.9-0.4,4.2c0,0.7,0.2,1.5,0.2,2.2
											c0,0.9,0.2,2,0.1,2.9c-0.1,0.8-0.4,1.5-0.5,2.2c0,0.3,0.1,0.5,0.1,0.7c-0.1,1.3-0.5,2.6-0.7,3.8c-0.2,1.5-0.4,2.9-0.4,3.8
											c0,0.1-0.1,0.2-0.1,0.2c-0.1,1.5-0.1,3.2-0.1,4.7c0,1.7,0.5,3.4,0.7,5.1c0.1,0.8,0.2,1.7,0.3,2.5c0.1,0.8,0.3,1.7,0.3,2.5
											c0,1.1-0.4,2.2-0.1,3.2c1.8,0.4,3.3-0.2,5.3,0.1c1.3-0.4,2.4-1,3.8-1.1c0.6-0.1,1.4,0.1,2.1,0c0.3-0.1,0.8-0.4,1.2-0.6
											c1.8-0.8,3.9-1.8,4.8-3.3c0.1-0.3,0.1-0.6,0.3-0.9c0.4-0.8,1.3-1.4,1.5-2.2c-1.1-0.4-2.2-0.4-3.2-0.9
											c-2-1-3.1-3.4-2.1-5.8c0.1-0.3,0.5-0.8,0.8-1.1c1.3-1.5,3.2-2.1,5.7-2.1c0.7,0,1.3-0.3,2-0.3c1.5-0.1,2.6,0.5,3.7,0.8
											c0,0.5,0.6,0.6,0.7,1c0.1,0.2,0.1,0.5,0.1,0.8c0.2,1,0.1,1.5-0.3,2.4c-0.7,0.6-2,1.4-3.3,1.6c-2,0.3-3.7-0.5-4.1-1.9
											c0.4,0.3,0.8,0.3,1.2,0.6c0.3,0.2,0.4,0.5,0.7,0.6c2.2,0.8,4.8-1.1,4.4-3.1c-0.1-0.8-1.4-1.8-2.2-2
											c-0.7-0.1-1.6,0.2-2.3,0.3c-0.9,0.1-1.9,0-2.7,0.2c-1.5,0.3-3.2,2.5-3.4,3.8c-0.1,0.6-0.1,1.4,0.1,2
											c0.4,1.8,3.3,2.3,5.3,2.6c2.3,0.3,4.7,0.6,6.7,0.4c2.3-0.3,4.4-0.9,6.3-1.4c2.2-0.6,3.4-2.4,4.6-3.9
											c0.1-0.7,0.3-1.1,0.3-1.6c0-1.2-0.9-1.7-1.1-2.9c-0.3-0.4-0.8-0.5-1.2-0.7c-0.2-0.1-0.2-0.4-0.4-0.6
											c-0.4-0.4-1.6-1.3-2-1.5c-1.2-0.5-2.6,0.1-4.4-0.3c0.3-0.6-0.1-0.5-0.4-0.9c0.2-0.4,0.9-0.5,1.5-0.4
											c1.2-0.3,1.8-1,2.5-1.8c0.4-0.5,1.1-1.1,1.2-1.6c0.2-0.6,0-1.3,0.1-1.9c0.1-0.4,0.3-0.6,0.3-1c-1.4,0-3.1-0.4-4.2-1.1
											c-0.3-0.2-0.5-0.5-0.8-0.7c-0.5-0.3-1.1-0.4-1.6-0.7c-1.2-0.7-1.6-1.9-1.8-3.5c-0.3-1.9,0.9-2.7,1.6-4
											c0.4-0.2,0.8-0.8,1.5-1s2.4-0.6,3.4-0.7c0.3,0,0.6,0,0.9,0c0.4-0.1,0.8-0.2,1.2-0.2c1.2-0.1,1.7,0.3,2.3,0.6
											c0.4,0.2,0.8,0.1,1.1,0.4c0.3,0.2,0.4,0.6,0.7,0.8c0.3,1.1,0.8,2.1,0.5,3.2c-0.1,0.4-0.7,1-1.1,1.2
											c-1,0.6-2.8,0.8-3.8,0.7c-1.3-0.1-1.6-0.7-2.2-1.3c-0.1-0.1-0.4-0.2-0.3-0.4c0.9-0.3,0.9,0.7,1.7,0.9
											c0.7,0.2,2.6-0.1,3.1-0.4c1-0.5,1.3-2.4,0.7-3.5c-1.2-0.8-2.6-1.4-4.2-1.4c-0.6,0-1.4-0.1-2.1,0.1c-0.9,0.2-1.6,1.1-2,1.7
											c-0.1,0.2-0.4,0.4-0.5,0.6c-0.3,0.4-0.8,1-0.9,1.4c-0.6,1.5,0.2,2.9,0.6,4.1c0.8,0.6,2,0.7,2.8,1.2
											c0.3,0.2,0.5,0.5,0.7,0.6c1.5,0.7,3.3,0.5,5.2,0.6c1.3,0.1,2.1-0.1,3.3-0.3c1-0.1,2-0.2,2.7-0.4c1-0.3,2.1-1.5,2.8-2.1
											c0.6-0.6,1.2-1,1.6-1.7c0.6-1.2,0.6-2.5,1-3.8c0.2-0.5,0.6-1,0.4-1.6c0-0.3-0.3-0.2-0.4-0.3c1.6-0.4,3.1-1,4.9-1.4
											c0.7-0.1,1.9,0,2.6-0.3c0.6-0.2,0.9-1,1.5-1.5s1.4-0.8,2-1.4c0.6-0.6,0.8-1.3,1.5-1.9c0.5-1.1,0.5-2.7,1-3.8
											C-416.6,446.4-414.6,446.2-412.6,445.9z M-471.8,422.7c0.1-0.2,0.4-0.2,0.4-0.4C-471.6,422.3-471.9,422.5-471.8,422.7z"/>
										<path d="M-411.9,422.4c-0.6-0.4,0.3-1-0.2-1.5c0.5-0.8,0.9-1.5,1.7-1.9c0.4-0.2,1.3-0.5,1.8-0.6c1.1-0.3,2.4-0.1,4-0.2
											c0.6,0,1.3-0.2,1.9-0.3c0.7,0,1.4,0,2.1-0.1c4.6-0.4,8.6-1,13-0.8c1.4,0.1,2.7,0.3,4.1,0.4s2.7,0.1,4.1,0.1
											c2.8,0.1,5.6,0.1,8.4,0c2.1-0.1,4.1-0.3,6.1-0.4c2.5-0.1,4.8,0.3,7.1,0.6c1.7,0.2,3.3,0.3,4.9,0.6c4,0.9,7.6,2.6,10.2,4.7
											c0.7,1.1,2.7,6.9,2.4,8.4c0.2,0.4,0.5,12.1,0.5,12.7c0.7,0.6,0.9,1.6,1.6,2.2c0.7,1,1.1,2.3,1.8,3.4
											c-0.1,0.4,0.1,0.6,0.3,0.8c-0.3,1.9-0.1,3.6-0.4,5.4c0.3,0.5,0.3,1.1,0.3,1.7c0.1,0.5,0.5,0.9,0.5,1.4
											c0.1,0.4,0.2,1.7,0.2,1.6c-0.1,0.4,0.2,1.1,0.3,1.4c0,0.4-0.2,0.6-0.3,0.9c-0.2,0.9,0,2.3,0,3.1c0,0.5-0.1,1.1-0.1,1.6
											c0,0.7,0.2,1.5,0.3,2.1c0.1,0.5,0,1.1,0.1,1.6c0.1,0.6,0.4,1.3,0.5,2c0.1,0.5,0.2,0.9,0.3,1.4c0.1,0.5-0.1,1,0,1.6
											c0.5,3.6,0.8,7.2,0.1,10.8c0,0.3-0.3-0.1-0.2,0.2c-0.1,0.3,0.2,0,0.2,0.3c-0.2,1-0.5,2.2-0.5,3.4c0,0.5,0.1,1,0.1,1.6
											c0,0.9-0.4,2-0.4,2.9c0,0.2,0.1,0.5,0.1,0.7c0,1-0.4,1.2-0.7,1.7c-0.2-0.2-0.5-0.3-0.9-0.4c-1.8,0.4-4.1,1.1-6.1,0.5
											c-0.3-0.1-0.5-0.3-0.8-0.4c-0.9-0.3-1.8-0.5-2.8-0.6c-0.3,0-0.7,0-1,0c-1-0.1-1.6-0.6-2.2-0.9c-0.3-0.1-0.6-0.2-0.9-0.3
											c-0.9-0.5-1.7-1.4-2.6-1.9c-0.6-0.4-1.2-0.6-1.6-1.2c-0.1-0.2-0.1-0.5-0.2-0.7c-0.2-0.4-0.7-0.7-0.6-1.2
											c-0.6-0.4-0.9-1-1.3-1.7c-2.6,0.2-5.2,0.6-7.8,0.2c-1.7-0.3-2.6-0.5-4-0.9s-2.7-0.5-3.8-0.9c-0.9-0.6-1.7-1.3-2.5-2
											c-0.1-0.9-0.9-1.5-1.2-2.4c-0.2-0.8,0.2-1.6-0.2-2.4c0.4-0.8,1.1-1.4,1.7-2.1c0-1.3,1.1-1.2,2-1.7
											c0.3-0.2,0.4-0.5,0.7-0.6c0.6-0.3,1.4-0.7,2-0.8c0.8-0.1,1.6,0.2,2.2-0.4c-2.6-0.2-3.1-2.5-4.3-4c0.1-0.8,0.5-1.7,0.3-2.7
											c-1.7,0.3-3.2-0.1-4.9-0.3c-0.9-0.1-1.8,0-2.7-0.3c-0.8-0.2-1.3-0.7-1.8-1.1c-0.3-0.3-0.7-0.4-1-0.6
											c-0.9-0.7-1.8-1.6-2.5-2.4c-0.9-1.7-0.8-3.7-0.9-5.8c-0.8-0.2-1.8,0.1-2.9-0.3c-0.6-0.2-1-0.7-1.5-0.8
											c-1.3-0.3-2.5,0-3.4-0.6c-0.6-0.4-0.8-1.3-1.3-1.7c-1.9-1-3.4-2.7-3.9-4.9c-0.2-0.8-0.1-1.5-0.4-2.2
											c-1.6,0.1-3.3-0.1-4.9-0.4c-1.9-0.3-4.4,0-5.2-1.3c-1.4-0.8-4.4-14.8-3-19.7c0.2-0.6-0.1-1-0.3-1.3
											C-412.3,424-412.3,423-411.9,422.4z M-398.1,447c0.5,1.1,0.5,2.7,1,3.8c0.7,0.5,0.9,1.3,1.5,1.9c0.6,0.6,1.4,0.9,2,1.4
											s0.8,1.2,1.5,1.5c0.7,0.3,1.9,0.1,2.6,0.3c1.8,0.3,3.3,1,4.9,1.4c-0.1,0.1-0.4,0-0.4,0.3c-0.2,0.6,0.2,1.1,0.4,1.6
											c0.4,1.3,0.4,2.6,1,3.8c0.4,0.7,0.9,1.1,1.6,1.7c0.7,0.6,1.8,1.9,2.8,2.1c0.7,0.2,1.7,0.2,2.7,0.4c1.3,0.2,2,0.4,3.3,0.3
											c1.8-0.1,3.7,0.1,5.2-0.6c0.3-0.1,0.5-0.5,0.7-0.6c0.9-0.5,2-0.6,2.8-1.2c0.4-1.2,1.2-2.6,0.6-4.1c-0.1-0.3-0.7-1-0.9-1.4
											c-0.1-0.2-0.4-0.3-0.5-0.6c-0.4-0.6-1.1-1.6-2-1.7c-0.6-0.1-1.5-0.1-2.1-0.1c-1.5,0-2.9,0.5-4.2,1.4
											c-0.6,1.1-0.3,3,0.7,3.5c0.5,0.3,2.4,0.5,3.1,0.4c0.8-0.2,0.8-1.3,1.7-0.9c0.1,0.2-0.2,0.3-0.3,0.4
											c-0.6,0.6-0.9,1.2-2.2,1.3c-1,0.1-2.8-0.2-3.8-0.7c-0.5-0.3-1-0.8-1.1-1.2c-0.4-1,0.2-2.1,0.5-3.2
											c0.3-0.3,0.4-0.6,0.7-0.8c0.3-0.2,0.8-0.2,1.1-0.4c0.6-0.2,1.1-0.6,2.3-0.6c0.4,0,0.8,0.2,1.2,0.2c0.3,0,0.6,0,0.9,0
											c1,0.1,2.7,0.5,3.4,0.7c0.6,0.2,1,0.8,1.5,1c0.7,1.3,1.8,2.1,1.5,4c-0.2,1.6-0.6,2.8-1.8,3.5c-0.5,0.3-1.1,0.4-1.6,0.7
											c-0.3,0.2-0.5,0.5-0.8,0.7c-1.2,0.7-2.8,1.1-4.2,1.1c0,0.4,0.3,0.6,0.3,1c0.1,0.6,0,1.3,0.1,1.9c0.1,0.5,0.8,1.1,1.2,1.6
											c0.7,0.8,1.3,1.5,2.5,1.8c0.6-0.1,1.3,0,1.5,0.4c-0.3,0.3-0.7,0.3-0.4,0.9c-1.8,0.3-3.2-0.3-4.4,0.3
											c-0.5,0.2-1.6,1.1-2,1.5c-0.2,0.2-0.2,0.4-0.4,0.6c-0.4,0.3-0.9,0.3-1.2,0.7c-0.2,1.1-1.1,1.7-1.1,2.9
											c0,0.5,0.2,0.9,0.3,1.6c1.2,1.5,2.4,3.3,4.6,3.9c1.8,0.5,3.9,1.1,6.3,1.4c1.9,0.3,4.3,0,6.7-0.4c2.1-0.3,4.9-0.8,5.3-2.6
											c0.1-0.6,0.2-1.4,0.1-2c-0.2-1.3-1.9-3.5-3.4-3.8c-0.8-0.2-1.8-0.1-2.7-0.2c-0.7-0.1-1.6-0.4-2.3-0.3
											c-0.7,0.2-2,1.2-2.2,2c-0.3,2,2.2,3.9,4.4,3.1c0.3-0.1,0.4-0.4,0.7-0.6c0.4-0.2,0.8-0.2,1.2-0.6c-0.4,1.4-2.2,2.2-4.1,1.9
											c-1.3-0.2-2.6-1-3.3-1.6c-0.4-0.8-0.6-1.3-0.3-2.4c0.1-0.3,0.1-0.6,0.1-0.8c0.2-0.4,0.7-0.5,0.7-1
											c1.1-0.4,2.2-0.9,3.7-0.8c0.6,0,1.3,0.3,2,0.3c2.5,0,4.4,0.6,5.7,2.1c0.3,0.3,0.7,0.8,0.8,1.1c1,2.4-0.1,4.8-2.1,5.8
											c-1,0.5-2.1,0.5-3.2,0.9c0.2,0.8,1.1,1.4,1.5,2.2c0.1,0.3,0.1,0.6,0.3,0.9c0.8,1.5,3,2.5,4.8,3.3c0.4,0.2,0.9,0.5,1.2,0.6
											c0.7,0.1,1.4-0.1,2.1,0c1.4,0.2,2.5,0.7,3.8,1.1c2.1-0.3,3.5,0.3,5.3-0.1c0.4-1-0.1-2.1-0.1-3.2c0-0.8,0.2-1.7,0.3-2.5
											c0.1-0.8,0.2-1.7,0.3-2.5c0.2-1.7,0.6-3.4,0.7-5.1c0-1.5,0-3.2-0.1-4.7c0-0.1-0.1-0.2-0.1-0.2c0-0.9-0.2-2.3-0.4-3.8
											c-0.2-1.2-0.6-2.5-0.7-3.8c0-0.2,0.1-0.5,0.1-0.7c-0.1-0.8-0.4-1.5-0.5-2.2c-0.1-0.9,0.1-2,0.1-2.9c0-0.8,0.2-1.5,0.2-2.2
											c0.1-1.3-0.1-2.9-0.4-4.2c-0.3-1.2-0.6-2-0.7-3.3c-0.1-2.9,0-5-1-6.9c-0.6-1.1-1.7-2.1-1.8-3.7
											c-1.3-1.8-1.9-20.1-3.4-21.6c-0.6-0.4-0.9-1.1-1.8-1.5c-1.3-0.6-3.2-0.7-4.7-1.4c-1.3-0.7-2.7-1.4-4.3-1.6
											s-3.4-0.1-5.1-0.2c-1.8-0.2-3.8-0.6-5.4-0.5c-1.4,0.1-2.9,0.4-4.3,0.4c-3,0.1-6,0.3-9,0.1c-0.3,0-0.6-0.1-0.9-0.1
											c-2.7-0.1-5.7,0.3-8-0.5c-1.2,0.1-2.5-0.1-3.8,0c-1.9,0.1-4,0.2-6,0.4c-1.1,0.1-2.1,0.6-3.4,0.6c-0.8,0-1.7-0.1-2.5-0.1
											c-0.6,0.1-1.2,0.4-1.8,0.4s-1.4-0.4-2-0.3c-0.5,0.1-0.9,1-1.6,0.6c-0.4,0.4-0.9,0.7-1.5,0.7c-0.1,0.6,0.2,1.4-0.3,1.8
											c0.5,1.6-1,7.7,0,9.3c0.3,0.4,0.8,12.2,1.3,12.6c0.8,0.7,1.5,1.5,2.6,1.8c1,0.2,2.2,0.2,3.4,0.4
											C-401.5,446.2-399.5,446.4-398.1,447z M-344.6,422.2c0,0.3,0.3,0.2,0.4,0.4C-344.1,422.5-344.6,422.3-344.6,422.2z"/>
										<g>
											<g>
												<g>
													<g id="XMLID_6_">
														<g>
															<path d="M-458.5,553.2c0.3,1.3-0.2,2.8-0.1,4.5c-0.2-0.4-0.4-0.7-0.4-1.3c0.7-2.5-0.7-4.1-0.8-6.3
																c-0.5-0.4-1-2.2-0.2-2.2c0.7,0,0.9,1.9,1.1,2.2C-459.4,551.4-458.6,552.4-458.5,553.2z"/>
															<path d="M-465.1,521.7c-0.1-0.4-0.3-0.7-0.2-1.2c0-0.9,0.5-1.5,0.7-2.5c0.1-0.6,0-1.4-0.1-2.1
																c-0.1-1.2-0.6-1.9-0.4-3c0.5,0.1,0.5,0.8,0.6,1.2c0.3,1.4,0.8,2.9,0.9,4.6c0,1.1-0.3,2.2-0.2,3.3
																c0.2,2,0.9,3.9,0.7,5.6c1.1,0.4,1.9,1.7,2.7,2.7c0.5,0.7,0.9,1.3,0.8,2c0.2,0.1,0.4,0.1,0.5,0.3
																c-0.1,0-0.1,0.2-0.1,0.4c0.6,2.7,1.9,4.9,1.6,8.1c-0.6-0.2-0.6-1.2-0.8-1.9c-0.3-0.8-1-1.3-1.1-2.1
																c0-0.4,0.2-0.6,0.2-1c-0.3-1.6-1-2.6-1.2-4.2c-0.3-0.2-0.3-0.5-0.6-0.7c-0.3-0.3-0.9-0.3-1.2-0.5
																c-0.5-0.3-0.5-1-1.1-1.2c0.1,1.6,0.3,3.1,0.5,4.5c0.1,1.1,0.2,2.3,0.5,3.4c0.3,0.8,0.8,1.4,1,2.2
																c0.2,1.2-0.1,3.1,0.1,4.2c-0.2-0.6-0.5-0.7-0.7-1.2c0.2-2.2-0.9-3.6-1.5-5.1c-0.2-0.5-0.3-1.1-0.5-1.6
																s-0.5-1-0.6-1.6c-0.1-0.9,0-1.6,0-2.7c0-0.5-0.1-1,0-1.5c0-0.4,0.2-0.7,0.2-1.1c0-0.7-0.3-1.5-0.2-2.2
																c0-0.2,0.1-0.3,0.1-0.5c0-1-0.4-1.9-0.4-2.8C-465,522.9-465,522.3-465.1,521.7z"/>
															<path d="M-472.3,549.3c0.2,3.3-2,5.2-2.4,7.7c-0.3-0.7-0.4-1.4-0.3-2.3c0-0.6,0-1.3,0.1-1.9c0.1-1.5,0.8-2.8,1-4.4
																c0.2-1.6,0.4-2.9,0.5-4.3c0-1.1-0.4-2.5,0.6-2.7c0.3,0.3,0,0.9,0,1.3c0,1.6,0.2,3.4-0.1,5
																C-472.6,548.3-472.4,548.6-472.3,549.3z"/>
															<path d="M-473.1,522.3c0.7,1.5,0,3.5-0.2,5.5c-0.1,1.1,0,2.4-0.3,3.3c-0.3,0.8-0.8,1.3-1,2.1
																c-0.2,0.7,0.1,1.8-0.4,2.2c0-0.7-0.3-1.5-0.2-2.2c0.1-0.8,0.3-1.4,0.4-2.1c0.1-0.9-0.2-1.8-0.1-2.7
																c0-0.4,0.3-0.7,0.4-1.1c0.1-1.1-0.6-2.1-0.4-3.4c0.1-0.4,0.7-0.5,0.8-1c0.1-0.4-0.2-0.8-0.2-1.1c0.1-1.2,1-2,1-3.1
																c0.4-0.3,0.4-0.9,0.9-1C-472.8,519.2-473.1,520.4-473.1,522.3z"/>
															<path d="M-447,584.9c0.1-2.4,0.1-5-0.2-7.4c0-0.3-0.2-0.5-0.3-0.8c-0.1-0.8,0-1.6,0-2.4c0-0.4-0.3-0.7-0.3-1.2
																c-0.1-0.5,0-1-0.1-1.5c-0.1-0.7-0.3-1.3-0.4-2c-0.1-0.7,0-1.5-0.2-2.2c-0.1-0.7-0.5-1.3-0.5-2.3
																c0-0.4,0.3-0.9,0.3-1.3c0-0.2-0.1-0.4-0.2-0.7c-0.2-1-0.4-1.7-0.6-2.7c-0.2-0.8-0.2-1.6-0.3-2.2
																c-0.1-0.5-0.5-0.9-0.6-1.5c-0.3-0.8-0.3-1.7-0.5-2.6c-0.1-0.4-0.3-0.8-0.3-1.2c0-0.3,0.1-0.6,0-0.8
																c0-1-0.2-2-0.2-2.9c0-0.9-0.1-1.9-0.3-2.7c0-0.2-0.2-0.4-0.2-0.6c-0.1-0.4,0-0.8,0-1.1c-0.2-0.7-0.7-1.6-0.9-2.4
																c-0.1-0.4,0-0.8-0.1-1.2s-0.3-0.8-0.4-1.2c-0.1-0.6,0-1.2-0.1-1.8c0-0.3-0.2-0.6-0.2-0.9c-0.3-1.9-0.2-3.9-0.7-5.9
																c-0.6-0.7-1.5-1.1-2.2-1.9c-0.1-0.1-0.1-0.3-0.2-0.4s-0.3-0.1-0.4-0.3c-0.3-0.3-0.8-1.1-1-1.5
																c-0.4-0.9-0.6-1.8-0.7-2.9c0-0.3-0.2-0.6-0.2-0.9c0-0.2,0.1-0.5,0.1-0.7c0-0.8-0.3-1.6-0.4-2.4
																c-0.1-0.9-0.1-1.8-0.2-2.8c-0.2-1.8-0.6-3.4-0.9-5.1c-0.2-0.8-0.5-1.5-0.7-2.2c-0.2-0.9-0.3-1.7-0.6-2.5
																c-0.3-0.7-0.8-1.2-0.8-2c-1.5-0.1-2.4-0.7-3.8-1c-0.4-0.1-0.9-0.4-1.2-0.4s-0.6,0.7-1,1c-0.2,0.2-0.7,0.5-1.1,0.8
																c-0.7,0.6-1.1,1.1-2.1,1.4c-0.5,1.7-0.5,3.6-0.9,5.2c-0.1,0.3-0.3,0.5-0.4,0.9c-0.3,0.9-0.4,1.8-1,2.4
																c-0.3,0.3-0.6,0.3-0.9,0.6s-0.3,0.9-0.6,1.3c-0.3,0.5-0.6,0.7-1,1c-0.5,1.3-0.9,2.6-1.2,4.2
																c-0.1,0.6-0.1,1.3-0.2,1.9c-0.1,0.6-0.3,1.2-0.4,1.9c-0.2,1.3-0.5,2.5-0.7,3.8c-0.2,1.1-0.4,2.2-0.7,3.3
																c0.1,0.6,0,1.3-0.3,1.7c0,0.1,0.2,0.1,0.3,0.2c-0.6,0.4-0.5,1.7-0.7,2.6c-0.4,1.5-1,2.9-1.3,4.4
																c-0.2,0.7-0.3,1.4-0.6,2.1c0,0.3-0.1,0.4,0,0.5c-0.1,0.2-0.3,0.2-0.5,0.4c-0.2,0.3-0.3,0.8-0.4,1.2
																c-0.7,1.6-2.1,2.8-2.9,4.4c-0.3,0.6-0.3,1.4-1.2,1.3c0.1,1.1-0.2,2.1-0.4,3.1c-0.3,1.6-0.6,3.1-0.8,4.8
																c-0.1,0.5-0.2,1-0.3,1.5c-0.1,0.5-0.4,0.9-0.5,1.3c-0.3,1.3,0.1,2.8-0.1,4.1c-0.2,1.1-0.6,2.1-0.6,3.3
																c0,0.6,0.1,1.2,0,1.8c-0.1,0.5-0.2,1-0.2,1.5c-0.1,0.8,0,1.6-0.2,2.4c-0.1,0.7-0.4,1.2-0.5,1.8
																c-0.2,1.3-0.3,2.7-0.4,4.2c-0.1,0.6,0,1.3-0.1,2c0,0.3-0.2,0.7-0.3,1c-0.1,0.9-0.1,1.9-0.5,2.6c0,0.4,0.1,0.7,0,1.1
																c0,0.1,0,0.1,0,0.1v0.1c1,0.1,1.8-0.3,2.7-0.4c1-0.1,2.1,0,2.9,0c0.6,0,1.2-0.2,1.9-0.3c0.7,0,1.4,0.1,2.2,0
																c0.6-0.1,1.2-0.2,1.9-0.3c2.1-0.2,4.1,0,6.1-0.1c1.5-0.1,3.2-0.4,4.9-0.6c1.1-0.1,2.3,0.1,3.4,0
																c2.6-0.2,5.1-0.9,7.2-0.9c1.1,0,2.3,0.2,3.5,0.2c0.8,0,1.6,0.1,2.3,0.2c1.4,0.3,2.2,0.9,4,0.8
																c1.3-0.1,2.8-0.3,2.3-1.7c0-0.4,0.4-0.3,0.4-0.7C-446.6,585.5-446.8,585.2-447,584.9z M-446.1,579.6
																c0.5,2.3-0.1,5.9,0.9,7.3c-0.2,0-0.2-0.1-0.4-0.1c-0.4,0.9-0.9,1.7-1.7,2c-0.3,0.1-0.7,0-1.1,0.1
																c-0.4,0.1-0.8,0.2-1.1,0.3c-1.3,0-2.4-0.7-3.5-1c-0.3-0.1-0.6,0-1-0.1c-0.3-0.1-0.6-0.2-1-0.3c-0.7-0.1-1.4,0-2.1,0
																s-1.4-0.2-2.1-0.1c-1.2,0-2.4,0.4-3.6,0.5c-1.3,0.1-2.6,0.4-4,0.4c-0.9,0-1.9-0.2-2.9-0.1c-0.5,0.1-1.1,0.3-1.6,0.4
																c-0.5,0-1,0-1.6,0c-0.5,0-1,0.2-1.5,0.3c-1.7,0.2-3.6,0-5.3,0.1c-1.1,0-2.1,0.3-3.1,0.3c-0.7,0-1.4,0-2.1,0.1
																s-1.3,0.3-2,0.3c-1,0-1.9-0.1-2.9,0.1c-0.8,0.2-1.8,0.9-2.7,0.6c-0.9,1.5-1.4-0.6-1.4-1.7c0-1.7,0.7-3.4,0.8-4.9
																c0.1-1.5,0.2-3.1,0.3-4.7c0.1-1.6,0.3-3.1,0.5-4.6c0.1-0.8,0.1-1.5,0.2-2.3c0.1-0.7,0.3-1.5,0.4-2.2
																c0.2-1.5,0.7-2.8,1-4.1c0.2-1,0.2-2,0.4-2.9s0.6-1.6,0.8-2.4c0.2-0.9,0.3-2,0.6-2.9c-0.3-0.8,0.1-1.8,0.3-2.9
																c0.3-1.3,0.5-2.6,0.3-3.3c1.4-2.1,2.8-4.1,4.2-6.2c0.2-0.1,0.5,0,0.7-0.1c0.2-0.6,0.4-1.1,0.7-1.6
																c0.1-1.3,0.3-2.2,0.6-3.1c0.2-0.6,0.5-1.1,0.6-1.6c0.1-0.6,0-1.4,0.1-2.1c0.1-0.4,0.3-0.8,0.5-1.1
																c-0.6-1,0-2.1,0.3-3.2c0.2-0.7,0.5-1.5,0.6-2.2c0.3-1.9,0.2-3.7,0.8-5.4c-0.2-0.1-0.1-0.2-0.2-0.5
																c-0.2-1.6,0.2-3.7,0.8-4.7c0-0.2-0.1-0.3,0-0.4c0.4-0.4,0.4-0.9,0.7-1.2c0.3-0.4,1-0.5,1.1-1.2c0.4-0.2,0.8-0.5,1-1
																c0.7-0.3,1.6-0.9,2-1.4c0.2-0.4,0.3-1.2,0.4-1.5c0.2-0.3,0.4-0.5,0.5-0.8s0-0.8,0.4-1c0-0.6,0.3-0.9,0.3-1.5
																c0-0.7-0.2-1.7-0.1-2.4c0.1-0.9,1-1.3,1.2-2.2c1.2-0.9,1.9-2.2,3.4-2.8c1.2,0,2,0.6,3.2,0.8c1.3,0.3,1.9,0.6,2.7,1.4
																c0.4,0.4,0.8,0.8,0.8,1.3s-0.2,0.5-0.3,0.8c1.6,3.9,2.4,8.4,3.6,12.7c0.3,1.1,0.7,2.4,0.8,3.5
																c0.1,1.7-0.4,3.4,0.4,4.6c0.1,0,0.1,0.1,0.1,0.1c-0.3,0.1,0.1,0.6,0.4,0.4c0.7,0.9,2.2,1.4,2.9,2.6
																c0.3,0.5,0.5,1.4,0.7,2.3c0.2,0.9,0.5,1.7,0.6,2.5c0.2,1.2,0,2.7,0.2,4c0.1,0.9,0.2,1.8,0.3,2.6
																c0.2,1.2,0.8,2.3,1,3.7c0.2,1.8,0.2,3.5,0.3,5.2c0.1,1.8,0.3,3.5,0.7,5.2c0.1,0.6,0.5,1.2,0.7,1.9
																c0.2,0.6,0.4,1.3,0.5,2c0.3,1.2,0.8,3.4,0.7,4.6c-0.1,0.6-0.3,0.9-0.3,1.3c0,0.6,0.3,1.4,0.4,2.2
																c0.2,1.5,0.5,2.9,0.7,4.4c0.1,0.8,0.3,1.5,0.3,2.3c0,0.7-0.1,1.3-0.1,2C-446.6,577.9-446.4,578.7-446.1,579.6z"/>
														</g>
													</g>
												</g>
												<g>
													<g>
														<g id="XMLID_5_">
															<g>
																<path class="st1" d="M-454.8,566.3c-0.6,0.3-0.7,1.2-1.2,1.6c-0.1,1-0.8,1.2-0.8,2.1c-0.1,0.7,0.5,1.4,0.4,2.1
																	c0,0.6-0.3,1.2-0.4,1.7c0,0.5,0.3,0.8,0.2,1.3c0.5-0.9,0.8-2.6,0.9-3.6c0-0.5-0.1-1-0.1-1.5
																	c0.2-1.4,1.1-2.4,1.4-3.5c0-0.1,0.2,0,0.2-0.1c0-0.3,0-0.6,0-0.9c-0.2,0.1-0.4,0-0.7,0
																	C-455,565.9-454.9,566-454.8,566.3z M-454.9,561c0.1-1-0.2-2-0.2-3.2c0-1.4,0.3-2.9,0.5-3.9
																	c0.1-0.5,0.2-1.3,0.4-1.6c0.4-0.6,1.1-0.6,1.7-1.1c1.9,0.4,3.1-1.2,4.1-2.3c0.5,0.1,0.9,0.3,1.2,0.6
																	c0,1,0.4,1.6,0.4,2.8c0.6,1,1.2,2,1.6,3.2c0.1,0.3,0.3,0.5,0.3,0.8c0.1,0.5,0,1,0.1,1.5c0.1,0.8,0.8,1.5,0.3,2.4
																	c0.4,1,0.4,2.4,0.5,3.6c0.1,0.5,0.3,1.1,0.4,1.7c0.1,0.8,0,1.7,0.1,2.4c0.1,0.7,0.3,1.2,0.3,1.8
																	c0,0.4-0.2,0.7-0.1,1c0.1,0.4,0.8,0.7,1.1,0.9c0.5,0.3,0.9,0.6,1.4,0.7c0.6,0.9,1.6,1.3,2,2.3c0.5,0.3,1,0.6,1.4,1
																	c-0.2,1.3,0.6,2.5,0.7,3.8c0.1,0.5,0.1,1.1,0.2,1.6c0.1,1.1-0.1,2.4,0.1,3.5c0.2,0.9,0.6,1.7,0.8,2.5
																	c0.2,1,0.4,2,0.5,3c0.2,1,0.3,1.8,0.3,2.8c0.1,2.5,0.6,5.2,0.6,7.8c0,0.7,0,1.6,0,2.3c-0.1,0.4-0.2,0.8-0.2,1.1
																	c0,0.4,0.4,1.2,0.6,1.6c0.2,0.4,0.7,0.7,0.8,1.2c0.1,1-0.8,0.9-1.9,0.9c-0.9,0-1.8,0-2.7,0c-2.5,0-4.7,0.3-6.8,0
																	c-1.6-0.2-3.2-0.8-4.8-1c-3.8-0.4-7.9-0.2-12.7-0.4c-1.5-0.1-2.9-0.4-4.1-0.6c-0.6-0.1-1.2,0-1.7-0.4c0,0,0,0,0-0.1
																	c0.2-0.3,0.1-0.6,0.2-1c0.1-0.8,0.5-1.7,0.7-2.5c0.1-0.6,0.1-1.3,0.3-1.8c0.2-0.8,0.6-1.5,0.8-2.2
																	c0.6-2.2,0.3-4.7,0.9-6.8c0.2-0.6,0.4-1.1,0.6-1.7c0.3-0.7,0.2-1.3,0.4-2c0.3-1.7,0.9-3.4,1.3-5.3
																	c0.7-4.2,1.8-7.4,1.5-12c0.4-0.7,1-1,1.4-1.7c0.3-0.5,0.5-1.1,0.7-1.6c0-0.1,0.1-0.1,0.1-0.2c0.5-0.7,1.4-1.1,1.6-2
																	C-455.5,564.1-455.1,562.9-454.9,561z M-449.6,560.9c0,0.1-0.1,0.4-0.1,0.6c-0.1,0.8-0.3,1-0.7,1.5
																	c-0.1,1.2,0.3,1.8,0.5,2.6c-0.2,1.3,0.3,3-0.5,4.1c0.3,1-0.4,1.7-0.1,2.6c0.7-1.5,0.7-3.3,1.4-4.7
																	c0.3-0.7,0.7-0.9,0.8-1.6c0.1-0.6,0.1-1.3,0.2-1.9c0.1-0.8,0.2-1.7,0.2-2.4c0-1.7-1.2-2.9-1.2-4.9
																	c0-0.6,0.3-1.2-0.1-1.8c-0.3-0.2-0.4,0.2-0.6,0.4c0.2,0.9-0.4,1.5-0.3,2.3C-450.4,558.7-449.6,560-449.6,560.9z
																	 M-442.3,579.3c0,0.2-0.1,0.3-0.1,0.5c0.3,1.3,0.6,2.3,0.5,3.5c-0.1,1.1-0.7,2.1-0.4,3.1c0.2,0.5,0.5,1.1,0.9,1.6
																	c0.5,0.7,1,1.1,1.3,1.9c0.4-0.6,0-1.4-0.2-2.1c0.1-1-0.5-1.6-0.6-2.5c-0.1-0.6,0-1.4-0.1-2.1c0-0.7-0.2-1.4-0.3-2.1
																	c-0.1-1.6-0.2-2.1-0.8-3.6c-0.2-0.5-0.5-1.4-0.7-1.5c-0.7-0.3-0.1,1.1,0.2,1.2C-442.6,578-442.5,578.7-442.3,579.3z
																	"/>
																<path d="M-456.8,570c-0.1,0.7,0.5,1.4,0.4,2.1c0,0.6-0.3,1.2-0.4,1.7c0,0.5,0.3,0.8,0.2,1.3
																	c0.5-0.9,0.8-2.6,0.9-3.6c0-0.5-0.1-1-0.1-1.5c0.2-1.4,1.1-2.4,1.4-3.5c0-0.1,0.2,0,0.2-0.1c0-0.3,0-0.6,0-0.9
																	c-0.2,0.1-0.4,0-0.7,0c-0.2,0.4-0.1,0.5,0,0.8c-0.6,0.3-0.7,1.2-1.2,1.6C-456,568.8-456.6,569.1-456.8,570z"/>
																<path d="M-449.8,561.5c-0.1,0.8-0.3,1-0.7,1.5c-0.1,1.2,0.3,1.8,0.5,2.6c-0.2,1.3,0.3,3-0.5,4.1
																	c0.3,1-0.4,1.7-0.1,2.6c0.7-1.5,0.7-3.3,1.4-4.7c0.3-0.7,0.7-0.9,0.8-1.6c0.1-0.6,0.1-1.3,0.2-1.9
																	c0.1-0.8,0.2-1.7,0.2-2.4c0-1.7-1.2-2.9-1.2-4.9c0-0.6,0.3-1.2-0.1-1.8c-0.3-0.2-0.4,0.2-0.6,0.4
																	c0.2,0.9-0.4,1.5-0.3,2.3c0,0.9,0.7,2.2,0.7,3.1C-449.6,561-449.6,561.3-449.8,561.5z"/>
																<path d="M-442.1,571.7c0.5,0.3,0.9,0.6,1.4,0.7l0.1-0.2c-0.1,0-0.1-0.1-0.2-0.2c-0.6-2.6-1.3-5.7-1.8-8.9
																	c-0.5-3.1-0.5-6.6-1.7-9c-0.2-0.5-0.6-0.8-0.9-1.3c-0.2-0.5-0.5-1.3-0.7-1.9c-0.2-0.9-0.1-1.5-0.7-2.1
																	c-0.4-0.4-1.5-1-2-0.9c-0.2,0-0.3,0.3-0.5,0.5c-0.2,0.1-0.4,0.1-0.6,0.2s-0.5,0.4-0.7,0.5c-0.6,0.4-1,0.5-1.3,1.1
																	c-0.3,0.2-0.7,0.2-1,0.4c-0.6,0.7-1.7,1-2.3,1.7c-0.2,0.5,0,0.9-0.2,1.5c-0.1,0.3-0.2,0.4-0.3,0.7
																	c-0.1,0.2,0,0.5,0,0.7c-0.1,0.3-0.3,0.6-0.3,0.8c-0.1,0.7,0,1.4-0.1,2c0,0.5-0.2,1.1-0.3,1.7
																	c-0.2,0.9-0.3,1.7-0.6,2.6c-0.3,0.5-0.5,1-1,1.3c0.1,0.2,0.1,0.5,0.3,0.6c-0.5,0.6-1,1.4-1.5,2.1l0.3,0.2
																	c0-0.1,0.1-0.1,0.1-0.2c0.5-0.7,1.4-1.1,1.6-2c1.7-0.3,2.1-1.6,2.3-3.4c0.1-1-0.2-2-0.2-3.2c0-1.4,0.3-2.9,0.5-3.9
																	c0.1-0.5,0.2-1.3,0.4-1.6c0.4-0.6,1.1-0.6,1.7-1.1c1.9,0.4,3.1-1.2,4.1-2.3c0.5,0.1,0.9,0.3,1.2,0.6
																	c0,1,0.4,1.6,0.4,2.8c0.6,1,1.2,2,1.6,3.2c0.1,0.3,0.3,0.5,0.3,0.8c0.1,0.5,0,1,0.1,1.5c0.1,0.8,0.8,1.5,0.3,2.4
																	c0.4,1,0.4,2.4,0.5,3.6c0.1,0.5,0.3,1.1,0.4,1.7c0.1,0.8,0,1.7,0.1,2.4c0.1,0.7,0.3,1.2,0.3,1.8
																	c0,0.4-0.2,0.7-0.1,1C-443.1,571.1-442.5,571.5-442.1,571.7z"/>
																<path d="M-440.9,583.2c0-0.7-0.2-1.4-0.3-2.1c-0.1-1.6-0.2-2.1-0.8-3.6c-0.2-0.5-0.5-1.4-0.7-1.5
																	c-0.7-0.3-0.1,1.1,0.2,1.2c-0.2,0.7,0,1.4,0.2,2c0,0.2-0.1,0.3-0.1,0.5c0.3,1.3,0.6,2.3,0.5,3.5
																	c-0.1,1.1-0.7,2.1-0.4,3.1c0.2,0.5,0.5,1.1,0.9,1.6c0.5,0.7,1,1.1,1.3,1.9c0.4-0.6,0-1.4-0.2-2.1
																	c0.1-1-0.5-1.6-0.6-2.5C-440.9,584.7-440.9,584-440.9,583.2z"/>
																<path d="M-438.8,574.7c0.5,0.3,1,0.6,1.4,1c-0.2,1.3,0.6,2.5,0.7,3.8c0.1,0.5,0.1,1.1,0.2,1.6
																	c0.1,1.1-0.1,2.4,0.1,3.5c0.2,0.9,0.6,1.7,0.8,2.5c0.2,1,0.4,2,0.5,3c0.2,1,0.3,1.8,0.3,2.8
																	c0.1,2.5,0.6,5.2,0.6,7.8c0,0.7,0,1.6,0,2.3c-0.1,0.4-0.2,0.8-0.2,1.1c0,0.4,0.4,1.2,0.6,1.6
																	c0.2,0.4,0.7,0.7,0.8,1.2c0.1,1-0.8,0.9-1.9,0.9c-0.9,0-1.8,0-2.7,0c-2.5,0-4.7,0.3-6.8,0c-1.6-0.2-3.2-0.8-4.8-1
																	c-3.8-0.4-7.9-0.2-12.7-0.4c-1.5-0.1-2.9-0.4-4.1-0.6c-0.6-0.1-1.2,0-1.7-0.4c0,0,0,0,0-0.1c0.2-0.3,0.1-0.6,0.2-1
																	c0.1-0.8,0.5-1.7,0.7-2.5c0.1-0.6,0.1-1.3,0.3-1.8c0.2-0.8,0.6-1.5,0.8-2.2c0.6-2.2,0.3-4.7,0.9-6.8
																	c0.2-0.6,0.4-1.1,0.6-1.7c0.3-0.7,0.2-1.3,0.4-2c0.3-1.7,0.9-3.4,1.3-5.3c0.7-4.2,1.8-7.4,1.5-12
																	c0.4-0.7,1-1,1.4-1.7c0.3-0.5,0.5-1.1,0.7-1.6l-0.3-0.2c-0.2,0.4-0.5,0.7-0.7,1.1c-0.3,0.4-0.6,0.9-0.9,1.2
																	c-0.2,0.3-0.5,0.4-0.7,0.7c-0.5,0.9-0.4,2.1-0.7,3.4c-0.2,1.2-0.8,2.3-1,3.4c-0.3,2-0.6,3.9-1.1,5.8
																	c-0.4,1.9-0.8,3.8-1.2,5.8c-0.1,0.8-0.5,1.4-0.7,2.1c-0.3,1.1-0.3,2.2-0.3,3.3c0,1,0.3,2.1,0.3,3.2
																	c0,0.6-0.3,1.3-0.5,2c-0.2,0.7-0.4,1.3-0.5,2c-0.4,1.6-1,2.8-1.2,4.6c-0.3,0.3,0.1,0.7,0.2,0.9
																	c1.1,0.2,2.4,0.1,3.6,0.3c0.2,0,0.4,0.2,0.7,0.3c0.7,0.2,1.5,0,2.4,0.1c0.7,0.1,1.5,0.3,2.1,0.4
																	c1.5,0.1,3.1,0,4.7,0c0.9,0,1.8,0.2,2.8,0.2c1.3,0,2.4,0,3.6,0.3c1.4,0.3,2.6,0.8,4.3,1c2.3,0.3,4.7-0.2,6.9-0.1
																	c0.7,0,1.3,0,2.2-0.2c1-0.2,1.8,0,2.3-0.9c0.3,0.1,0.7,4.8,1.9,4.2c0.4-0.6-0.1-1.2-0.2-1.7
																	c-0.1-0.9-1.2-5.7-1.2-6.7c-0.2-2.7-0.7-5.3-1-7.9s-0.8-5-1.5-7.4c-0.2-0.8-0.5-1.6-0.6-2.3c-0.2-1.1,0-2.2-0.1-3.2
																	c-0.1-0.5-0.2-0.9-0.2-1.4c-0.1-0.4,0-0.9-0.1-1.3c-0.2-0.9-0.7-1.7-0.9-2.7c-0.2-1.2-0.1-1.9-0.9-2.6
																	c-0.9-0.8-2.4-1.5-3.5-2.3l-0.1,0.2C-440.1,573.3-439.1,573.7-438.8,574.7z"/>
															</g>
														</g>
													</g>
													<path class="st1" d="M-433.1,606.5c0.6,0.2,0.9,1.3,0.9,1.5c0,0.1-6.2,1.8-6.2,1.8l-18.3-1.9l0.8-3.4
														C-455.9,604.4-434.3,606.2-433.1,606.5z"/>
												</g>
												<g>
													<g id="XMLID_4_">
														<g>
															<path d="M-464.6,579.3c0.1-1.8,0.1-3.6-0.3-5.5c-0.1-0.5-0.4-1.3-0.4-2.2c0-0.4-0.1-1.2,0.4-1.3
																c0.3,0.2,0.1,0.6,0.1,1c0.1,1.4,0.2,3.1,0.8,4.1c0.2,0.8,0.1,1.5,0.1,2.3c0,0.5,0.2,1.1,0.3,1.7c0,0.5-0.1,1,0,1.3
																c0.2,0.8,0.6,1.2,0.7,1.7c0.4,1.6-0.1,3.7,0.3,5.5c0.5,0.5,0.5,1,0.1,1.7c-0.8-1.4-0.9-3.2-1.4-5.2
																c-0.2-0.9-0.6-1.7-0.7-2.5C-464.8,581.2-464.6,580.3-464.6,579.3z"/>
															<path d="M-471.8,579.6c0,0.3,0.2,0.3,0.2,0.5c0,0.3-0.2,0.3-0.3,0.5c0.1,1,0.1,1.9,0,2.9c-0.1,0.9-0.6,1.7-0.6,2.5
																c0,0.3,0.2,0.7,0.3,1c0.1,0.6-0.4,1.2-0.5,1.9c0,0.2,0,0.4,0,0.6c-0.1,0.4-0.4,1-0.6,1.7c-0.2,0.5-0.4,1.3-0.6,1.7
																c-0.2,0.3-0.5,0.7-0.7,1.1c0.2-1.1,0.5-2.1,0.4-3.2c0-0.3-0.2-0.5-0.2-0.8c-0.2-2.1,1.1-3.8,1.3-6
																c0.1-0.6,0-1.2,0.1-1.7c0.1-0.7,0.5-1.2,0.6-1.9c0.2-0.9-0.1-1.7,0.8-1.8C-471.4,579-471.6,579.3-471.8,579.6z"/>
															<path class="st1" d="M-471.6,578.6c-0.8,0.1-0.6,0.9-0.8,1.8c-0.2,0.7-0.5,1.1-0.6,1.9c-0.1,0.5,0,1.1-0.1,1.7
																c-0.2,2.2-1.5,3.9-1.3,6c0,0.3,0.2,0.6,0.2,0.8c0.1,1-0.2,2.1-0.4,3.2c0.2-0.4,0.5-0.8,0.7-1.1
																c0.2-0.4,0.3-1.1,0.6-1.7c0.3-0.6,0.5-1.2,0.6-1.7c0-0.2,0-0.4,0-0.6c0.1-0.7,0.6-1.3,0.5-1.9c0-0.3-0.3-0.7-0.3-1
																c0-0.7,0.5-1.6,0.6-2.5c0.1-1,0.1-2,0-2.9c0.1-0.2,0.3-0.3,0.3-0.5s-0.2-0.3-0.2-0.5
																C-471.6,579.3-471.4,579-471.6,578.6z M-470.6,563.4c1.7-0.3,3,0.8,4.3,1.2c0.3,0.1,0.8,0,1,0.1
																c0.3,0.2,0.6,0.8,0.9,1.2s0.7,0.7,0.7,1.2c1.3,0.4,2.3,1.3,3.3,2c0.3,0.6,0.5,1.2,1.1,1.4c-0.1,0.3-0.2,0.6-0.3,0.8
																c0.7,0.9,0.3,2.3,0.5,3.8c0,0.4,0.2,0.7,0.3,1.1c0.3,1.5,0.6,3.1,0.8,4.6c0.1,0.8,0,1.6,0.1,2.4
																c0.1,0.7,0.4,1.4,0.5,2.1c0.1,0.6-0.1,1.3,0,1.9c0.3,2.4,1.5,4.4,1.9,6.5c0.2,1.4-0.1,3-0.1,4.7c0,1,0,1.9-0.1,2.8
																c0,0.4-0.2,0.8-0.2,1.1c0,1.1,0.5,2.2,0.8,3.5c0.1,0.5,0,0.9,0.1,1.4c0.2,1.1,0.9,2.3,1,3.8c0,0.4-0.1,0.7-0.1,1.1
																c0.2,1.8,0.8,3.5,1.1,5.2c0.1,1,0.1,2,0.4,2.9c0.4,1.2,0.7,2.6,0.8,4.1c0,1.1-0.3,2-0.2,2.9
																c-0.3,0.5-0.4,1.3-0.6,1.9c-3.5,1-6.8,0.3-10.2,0c-3.2-0.3-6.8-0.1-10,0.5c-2.1,0.4-4.1,1-6.4,0.8
																c-1.2-0.2-2.4-0.6-3.7-0.5c-0.1-0.1,0-0.8-0.4-0.9c-0.1-1,0.5-1.8,0.6-2.9c0-0.8-0.2-1.6-0.2-2.3
																c0-0.2,0.1-0.5,0.2-0.7c0.1-0.7,0-1.4,0.1-2c0-0.3,0.2-0.6,0.3-1c0.1-1.1-0.2-2-0.2-3.1c0.3-1.1,0.6-2.2,0.8-3.4
																c0.2-1.7,0.8-3.3,0.9-4.7s0.1-2.9,0.1-4.3c0-0.9,0.2-1.8,0.2-2.6c0-0.3-0.1-0.6-0.1-0.8c0.1-1.7,1.4-3.3,2-4.8
																c0.5-1.5,0.7-3.1,1.1-4.7c0.2-0.8,0.5-1.5,0.6-2.3c0.6-2.9-0.3-6.6,0.8-9.4c1-0.9,2.2-1.5,3.1-2.6
																c0.5-0.8,0.6-2,1.3-2.5c0.1-0.7,0-1.5,0-2.2c0-0.5,0.2-1,0.3-1.5c0-0.3-0.1-0.7-0.1-1s0.2-0.6,0.3-0.9
																c0.1-0.5-0.1-0.9-0.1-1.3c0-0.4,0.3-0.8,0.3-1.2c0.1-0.3,0-0.6,0-0.8C-471.1,565.3-470.6,564.3-470.6,563.4z
																 M-465,570.4c-0.5,0.1-0.4,0.9-0.4,1.3c0,0.9,0.3,1.6,0.4,2.2c0.4,1.9,0.4,3.7,0.3,5.5c0,1-0.2,1.9-0.1,2.7
																c0.1,0.8,0.5,1.6,0.7,2.5c0.5,2,0.6,3.7,1.4,5.2c0.3-0.6,0.3-1.2-0.1-1.7c-0.4-1.8,0.1-3.9-0.3-5.5
																c-0.1-0.5-0.5-1-0.7-1.7c-0.1-0.4,0-0.9,0-1.3c0-0.6-0.3-1.2-0.3-1.7c0-0.8,0.1-1.5-0.1-2.3c-0.6-1-0.7-2.7-0.8-4.1
																C-464.9,571-464.6,570.6-465,570.4z"/>
															<path d="M-452.3,627.4c-0.1-0.9,0.2-1.8,0.2-2.9c0-1.5-0.3-3-0.8-4.1c-0.3-0.9-0.2-1.9-0.4-2.9
																c-0.3-1.7-0.9-3.4-1.1-5.2c0-0.4,0.1-0.7,0.1-1.1c-0.1-1.5-0.8-2.7-1-3.8c-0.1-0.4,0-0.9-0.1-1.4
																c-0.2-1.2-0.8-2.4-0.8-3.5c0-0.4,0.2-0.8,0.2-1.1c0.1-0.9,0-1.9,0.1-2.8c0-1.7,0.4-3.3,0.1-4.7
																c-0.4-2.1-1.6-4.1-1.9-6.5c-0.1-0.6,0.1-1.3,0-1.9c-0.1-0.7-0.4-1.4-0.5-2.1c-0.1-0.8,0-1.6-0.1-2.4
																c-0.1-1.5-0.4-3-0.8-4.6c-0.1-0.4-0.3-0.7-0.3-1.1c-0.2-1.5,0.2-2.9-0.5-3.8c0.1-0.3,0.1-0.6,0.3-0.8
																c-0.6-0.2-0.8-0.8-1.1-1.4c-1-0.8-2-1.6-3.3-2c0-0.5-0.4-0.8-0.7-1.2c-0.3-0.4-0.6-1-0.9-1.2c-0.2-0.1-0.6,0-1-0.1
																c-1.3-0.4-2.6-1.5-4.3-1.2c-0.1,0.9-0.6,1.9-0.8,2.9c0,0.3,0.1,0.6,0,0.8c-0.1,0.4-0.3,0.8-0.3,1.2
																c0,0.4,0.1,0.9,0.1,1.3c0,0.3-0.2,0.6-0.3,0.9c0,0.3,0.1,0.7,0.1,1c0,0.5-0.3,1-0.3,1.5c0,0.7,0.1,1.5,0,2.2
																c-0.7,0.5-0.9,1.7-1.3,2.5c-0.9,1-2.1,1.7-3.1,2.6c-1.2,2.8-0.2,6.5-0.8,9.4c-0.2,0.8-0.5,1.5-0.6,2.3
																c-0.4,1.5-0.6,3.2-1.1,4.7c-0.6,1.5-1.9,3.1-2,4.8c0,0.3,0.1,0.5,0.1,0.8c0,0.8-0.2,1.7-0.2,2.6
																c-0.1,1.4,0,2.8-0.1,4.3c-0.1,1.4-0.7,3-0.9,4.7c-0.1,1.2-0.4,2.3-0.8,3.4c0,1,0.3,2,0.2,3.1c0,0.3-0.2,0.6-0.3,1
																c-0.1,0.6,0,1.4-0.1,2c0,0.2-0.2,0.5-0.2,0.7c0,0.8,0.2,1.6,0.2,2.3c-0.1,1-0.7,1.8-0.6,2.9c0.4,0.1,0.3,0.8,0.4,0.9
																c1.4-0.1,2.6,0.3,3.7,0.5c2.4,0.3,4.3-0.3,6.4-0.8c3.2-0.7,6.8-0.8,10-0.5c3.5,0.3,6.8,1,10.2,0
																C-452.6,628.7-452.6,627.8-452.3,627.4z M-450.6,626.9c0,0.4-0.5,0.2-0.6,0.5c-0.1,0.5-0.4,0.9-0.3,1.4
																c0,0.5,0.6,0.7,0.4,1.2c-0.7,0.9-2.5,0.4-3.2,1.1c-5.4,0.8-10.3-1.5-15.3-0.5c-3.4,0.7-6.5,1.8-10.1,1.1
																c-0.5-0.1-1-0.3-1.5-0.4c-0.7-0.1-1.3,0.2-2,0c-0.5-0.2-0.9-0.9-1.4-0.8c0-0.4,0.3-1.1-0.2-1.1
																c0.7-1.3,0.3-3,0.3-4.7c0-1.2,0.3-2.4,0.4-3.7c0.1-1.2-0.1-2.4,0-3.6c0.2-2.5,1.3-4.8,1.6-7.4c0.2-1.7,0-3.4,0.2-5.1
																c0-0.3,0.2-0.6,0.2-1c0-0.7-0.1-1.4-0.1-2.1c0.1-1.2,0.8-2.4,1.2-3.7c1-3.5,2-8,2.3-12.3c0.1-1.5,0.2-3,0.4-4.3
																c0.1-0.4,0-0.9,0.1-1.3c0.4-1.4,1.5-2,2.4-2.9c0.8-0.8,1.5-1.9,2.5-2.1c0.5-2.9,0.4-5.5,1-8.5
																c0.2-0.9,0.5-1.8,0.6-2.6c0-0.4-0.2-0.7-0.1-1.1c0.1-0.7,1.5-1.6,2.3-1.7c0.8-0.2,1.7,0.2,2.7,0.4
																c0.4,0.1,0.8,0,1.1,0.1c0.4,0.2,0.7,0.7,1.1,1c0.7,0.5,1.3,0.5,1.5,1.1c0.2,0.3,0.1,0.8,0.2,1.1
																c0.2,0.8,0.7,1.4,0.8,2.2c1.4,0.7,2.6,1.7,3.5,3c0,0.6-0.3,0.9-0.3,1.4c0,0.6,0.3,1.2,0.4,1.8c0,0.3,0,0.7,0,1.1
																c0.2,1.5,0.8,2.9,0.9,4.4c0.1,1.2,0.1,2.3,0.4,3.5c0.5,2.5,0.8,5.2,1.5,7.6c0.5,1.8,1,3.1,1,4.9
																c0,1.1-0.3,2.2-0.2,3.5c0,0.9,0.4,1.9,0.6,2.9s0.4,2,0.6,2.9c0.3,1.9,0.8,3.9,0.9,5.9c0.2,2.5,0.5,5,0.8,7.5
																c0.4,2.9,1.3,5.5,1.1,8.7C-450.9,626.4-450.6,626.6-450.6,626.9z"/>
														</g>
													</g>
												</g>
											</g>
											<g>
												<g>
													<g id="XMLID_3_">
														<g>
															<path d="M-357.6,553.2c-0.3,1.3,0.2,2.8,0.1,4.5c0.2-0.4,0.4-0.7,0.4-1.3c-0.7-2.5,0.7-4.1,0.8-6.3
																c0.5-0.4,1-2.2,0.2-2.2c-0.7,0-0.9,1.9-1.1,2.2C-356.6,551.4-357.4,552.4-357.6,553.2z"/>
															<path d="M-351,521.7c0.1-0.4,0.3-0.7,0.2-1.2c0-0.9-0.5-1.5-0.7-2.5c-0.1-0.6,0-1.4,0.1-2.1c0.1-1.2,0.6-1.9,0.4-3
																c-0.5,0.1-0.5,0.8-0.6,1.2c-0.3,1.4-0.8,2.9-0.9,4.6c0,1.1,0.3,2.2,0.2,3.3c-0.2,2-0.9,3.9-0.7,5.6
																c-1.1,0.4-1.9,1.7-2.7,2.7c-0.5,0.7-0.9,1.3-0.8,2c-0.2,0.1-0.4,0.1-0.5,0.3c0.1,0,0.1,0.2,0.1,0.4
																c-0.6,2.7-1.9,4.9-1.6,8.1c0.6-0.2,0.6-1.2,0.8-1.9c0.3-0.8,1-1.3,1.1-2.1c0-0.4-0.2-0.6-0.2-1
																c0.4-1.6,1-2.6,1.2-4.2c0.3-0.2,0.3-0.5,0.6-0.7c0.3-0.3,0.9-0.3,1.2-0.5c0.5-0.3,0.5-1,1.1-1.2
																c-0.1,1.6-0.3,3.1-0.5,4.5c-0.1,1.1-0.2,2.3-0.5,3.4c-0.3,0.8-0.8,1.4-1,2.2c-0.2,1.2,0.1,3.1-0.1,4.2
																c0.2-0.6,0.5-0.7,0.7-1.2c-0.2-2.2,0.9-3.6,1.5-5.1c0.2-0.5,0.3-1.1,0.5-1.6s0.5-1,0.6-1.6c0.1-0.9,0-1.6,0-2.7
																c0-0.5,0.1-1,0-1.5c0-0.4-0.2-0.7-0.2-1.1c0-0.7,0.3-1.5,0.2-2.2c0-0.2-0.1-0.3-0.1-0.5c0-1,0.4-1.9,0.4-2.8
																C-351.1,522.9-351.1,522.3-351,521.7z"/>
															<path d="M-343.8,549.3c-0.2,3.3,2,5.2,2.4,7.7c0.3-0.7,0.4-1.4,0.3-2.3c0-0.6,0-1.3-0.1-1.9c-0.1-1.5-0.8-2.8-1-4.4
																c-0.2-1.6-0.4-2.9-0.5-4.3c0-1.1,0.4-2.5-0.6-2.7c-0.3,0.3,0,0.9,0,1.3c0,1.6-0.2,3.4,0.1,5
																C-343.5,548.3-343.6,548.6-343.8,549.3z"/>
															<path d="M-343,522.3c-0.7,1.5,0,3.5,0.2,5.5c0.1,1.1,0,2.4,0.3,3.3c0.3,0.8,0.8,1.3,1,2.1c0.2,0.7-0.1,1.8,0.4,2.2
																c0-0.7,0.3-1.5,0.2-2.2c-0.1-0.8-0.3-1.4-0.4-2.1c-0.1-0.9,0.2-1.8,0.1-2.7c0-0.4-0.3-0.7-0.4-1.1
																c-0.1-1.1,0.6-2.1,0.4-3.4c-0.1-0.4-0.7-0.5-0.8-1c-0.1-0.4,0.2-0.8,0.2-1.1c-0.1-1.2-1-2-1-3.1
																c-0.4-0.3-0.4-0.9-0.9-1C-343.3,519.2-342.9,520.4-343,522.3z"/>
															<path d="M-369.5,585.8c0,0.4,0.4,0.3,0.4,0.7c-0.5,1.4,1,1.6,2.3,1.7c1.8,0.2,2.6-0.5,4-0.8c0.7-0.1,1.5-0.2,2.3-0.2
																c1.2,0,2.4-0.2,3.5-0.2c2.1,0,4.6,0.7,7.2,0.9c1.1,0.1,2.3-0.1,3.4,0c1.7,0.1,3.4,0.5,4.9,0.6c2,0.2,4.1,0,6.1,0.1
																c0.6,0.1,1.2,0.2,1.9,0.3c0.8,0.1,1.5,0,2.2,0c0.6,0,1.2,0.2,1.9,0.3c0.8,0,1.9-0.1,2.9,0c0.9,0.1,1.7,0.5,2.7,0.4
																v-0.1c0,0,0.1,0,0-0.1c-0.1-0.4-0.1-0.7,0-1.1c-0.4-0.7-0.4-1.6-0.5-2.6c-0.1-0.4-0.2-0.7-0.3-1
																c-0.1-0.7-0.1-1.3-0.1-2c-0.1-1.5-0.2-2.9-0.4-4.2c-0.1-0.6-0.3-1.1-0.5-1.8c-0.2-0.8-0.1-1.6-0.2-2.4
																c-0.1-0.5-0.2-1-0.2-1.5c-0.1-0.6,0-1.1,0-1.8c0-1.2-0.5-2.2-0.6-3.3c-0.2-1.3,0.2-2.8-0.1-4.1
																c-0.1-0.5-0.4-0.9-0.5-1.3c-0.1-0.5-0.2-1-0.3-1.5c-0.2-1.7-0.5-3.2-0.8-4.8c-0.2-1-0.6-2-0.4-3.1
																c-0.9,0.1-0.9-0.7-1.2-1.3c-0.7-1.7-2.2-2.9-2.9-4.4c-0.2-0.4-0.3-0.9-0.4-1.2c-0.2-0.2-0.4-0.3-0.5-0.4
																c0.1-0.2,0-0.2,0-0.5c-0.3-0.6-0.4-1.3-0.6-2.1c-0.4-1.5-1-2.9-1.3-4.4c-0.2-1-0.1-2.2-0.7-2.6
																c0.1-0.1,0.3-0.1,0.3-0.2c-0.3-0.4-0.4-1.1-0.3-1.7c-0.3-1-0.5-2.2-0.7-3.3c-0.3-1.2-0.5-2.5-0.7-3.8
																c-0.1-0.6-0.3-1.2-0.4-1.9c-0.1-0.6-0.1-1.3-0.2-1.9c-0.3-1.6-0.7-2.9-1.2-4.2c-0.4-0.3-0.7-0.6-1-1
																c-0.3-0.4-0.3-1-0.6-1.3c-0.3-0.3-0.7-0.3-0.9-0.6c-0.6-0.6-0.7-1.5-1-2.4c-0.1-0.4-0.3-0.6-0.4-0.9
																c-0.4-1.6-0.4-3.5-0.9-5.2c-1-0.3-1.3-0.8-2.1-1.4c-0.4-0.3-0.8-0.6-1.1-0.8c-0.3-0.3-0.6-1-1-1
																c-0.3,0-0.8,0.3-1.2,0.4c-1.4,0.3-2.3,1-3.8,1c0,0.7-0.5,1.3-0.8,2c-0.3,0.8-0.4,1.6-0.6,2.5
																c-0.2,0.8-0.5,1.5-0.7,2.2c-0.4,1.6-0.8,3.3-0.9,5.1c-0.1,0.9-0.1,1.8-0.2,2.8c-0.1,0.8-0.4,1.6-0.4,2.4
																c0,0.2,0.1,0.5,0.1,0.7c0,0.3-0.1,0.6-0.2,0.9c-0.1,1.1-0.3,2.1-0.7,2.9c-0.2,0.4-0.8,1.2-1,1.5
																c-0.1,0.1-0.3,0.1-0.4,0.3c-0.1,0.1-0.1,0.3-0.2,0.4c-0.7,0.7-1.6,1.1-2.2,1.9c-0.5,2-0.4,4.1-0.7,5.9
																c0,0.3-0.2,0.6-0.2,0.9c-0.1,0.6,0,1.2-0.1,1.8c-0.1,0.4-0.3,0.8-0.4,1.2c-0.1,0.4,0,0.8-0.1,1.2
																c-0.2,0.8-0.7,1.7-0.9,2.4c-0.1,0.4,0,0.8,0,1.1c0,0.2-0.2,0.4-0.2,0.6c-0.2,0.8-0.3,1.8-0.3,2.7
																c-0.1,0.9-0.2,1.9-0.2,2.9c0,0.3,0.1,0.6,0,0.8c0,0.4-0.3,0.8-0.3,1.2c-0.1,0.9-0.2,1.7-0.5,2.6
																c-0.2,0.5-0.5,1-0.6,1.5c-0.2,0.6-0.2,1.5-0.3,2.2c-0.2,1.1-0.4,1.7-0.6,2.7c0,0.3-0.2,0.6-0.2,0.7
																c0,0.4,0.3,0.8,0.3,1.3c0.1,1-0.3,1.6-0.5,2.3c-0.1,0.7-0.1,1.5-0.2,2.2c-0.1,0.7-0.4,1.4-0.4,2
																c-0.1,0.5,0,1-0.1,1.5c-0.1,0.4-0.3,0.8-0.3,1.2c-0.1,0.8,0.1,1.6,0,2.4c0,0.3-0.2,0.5-0.3,0.8
																c-0.4,2.4-0.3,5-0.2,7.4C-369.3,585.2-369.4,585.5-369.5,585.8z M-369.4,577.1c0-0.7-0.1-1.3-0.1-2
																c0.1-0.8,0.3-1.5,0.3-2.3c0.2-1.5,0.4-2.9,0.7-4.4c0.1-0.7,0.4-1.5,0.4-2.2c0-0.5-0.3-0.8-0.3-1.3
																c-0.1-1.2,0.4-3.4,0.7-4.6c0.1-0.7,0.3-1.4,0.5-2c0.2-0.7,0.6-1.3,0.7-1.9c0.3-1.7,0.6-3.4,0.7-5.2
																c0.1-1.7,0.1-3.5,0.3-5.2c0.1-1.3,0.7-2.4,0.9-3.7c0.1-0.8,0.2-1.7,0.3-2.6c0.2-1.3,0.1-2.8,0.2-4
																c0.1-0.8,0.4-1.6,0.6-2.5c0.2-0.9,0.4-1.8,0.7-2.3c0.7-1.3,2.1-1.7,2.9-2.6c0.4,0.1,0.7-0.4,0.4-0.4
																c-0.1,0,0-0.1,0.1-0.1c0.8-1.1,0.3-2.9,0.4-4.6c0.1-1.1,0.5-2.4,0.8-3.5c1.2-4.3,2-8.9,3.6-12.7
																c-0.1-0.3-0.3-0.4-0.3-0.8c0-0.5,0.5-0.9,0.8-1.3c0.8-0.8,1.4-1.1,2.7-1.4c1.2-0.3,2-0.9,3.2-0.8
																c1.4,0.6,2.2,2,3.4,2.8c0.1,0.8,1.1,1.2,1.2,2.2c0,0.7-0.1,1.7-0.1,2.4c0,0.6,0.3,1,0.3,1.5c0.3,0.2,0.3,0.6,0.4,1
																c0.1,0.3,0.3,0.4,0.5,0.8s0.2,1.2,0.4,1.5c0.3,0.5,1.3,1.2,2,1.4c0.2,0.5,0.6,0.7,1,1c0.1,0.8,0.7,0.8,1.1,1.2
																c0.3,0.3,0.3,0.9,0.7,1.2c0.1,0.1,0,0.2,0,0.4c0.6,1.1,1,3.1,0.8,4.7c0,0.2,0,0.3-0.2,0.5c0.6,1.7,0.5,3.5,0.8,5.4
																c0.1,0.7,0.4,1.5,0.6,2.2c0.3,1.1,0.9,2.2,0.3,3.2c0.3,0.3,0.4,0.7,0.5,1.1c0.1,0.7,0,1.5,0.1,2.1
																c0.1,0.5,0.4,1,0.6,1.6c0.3,1,0.5,1.9,0.6,3.1c0.3,0.5,0.5,1,0.7,1.6c0.2,0,0.6-0.1,0.7,0.1c1.3,2.1,2.8,4.1,4.2,6.2
																c-0.2,0.7,0,2,0.3,3.3c0.2,1.1,0.6,2.1,0.3,2.9c0.3,0.8,0.4,2,0.6,2.9c0.2,0.8,0.7,1.6,0.8,2.4
																c0.2,0.9,0.2,1.9,0.4,2.9c0.3,1.3,0.8,2.6,1,4.1c0.1,0.7,0.3,1.5,0.4,2.2c0.1,0.8,0.1,1.5,0.2,2.3
																c0.2,1.5,0.4,3,0.5,4.6c0.1,1.6,0.2,3.2,0.3,4.7c0.1,1.5,0.8,3.2,0.8,4.9c0,1.1-0.5,3.2-1.4,1.7
																c-0.9,0.3-1.9-0.4-2.7-0.6c-1-0.2-1.9-0.1-2.9-0.1c-0.6,0-1.3-0.2-2-0.3s-1.4,0-2.1-0.1c-1-0.1-2.1-0.3-3.1-0.3
																c-1.8,0-3.6,0.1-5.3-0.1c-0.5-0.1-1-0.2-1.5-0.3c-0.5,0-1.1,0-1.6,0c-0.6,0-1.1-0.3-1.6-0.4
																c-0.9-0.1-1.9,0.1-2.9,0.1c-1.3-0.1-2.7-0.3-4-0.4c-1.2-0.1-2.4-0.5-3.6-0.5c-0.7,0-1.4,0.1-2.1,0.1s-1.4-0.1-2.1,0
																c-0.4,0-0.6,0.2-1,0.3c-0.3,0.1-0.6,0-1,0.1c-1.2,0.3-2.2,1-3.5,1c-0.3,0-0.7-0.2-1.1-0.3c-0.4-0.1-0.8,0-1.1-0.1
																c-0.8-0.3-1.4-1-1.7-2c-0.2,0-0.2,0.1-0.4,0.1c1-1.4,0.4-5,0.9-7.3C-369.6,578.7-369.4,577.9-369.4,577.1z"/>
														</g>
													</g>
												</g>
												<g>
													<g>
														<g id="XMLID_2_">
															<g>
																<path class="st1" d="M-361.3,565.5c-0.3,0-0.5,0-0.7,0c0,0.3,0,0.6,0,0.9c0,0.1,0.2,0,0.2,0.1
																	c0.3,1.2,1.2,2.2,1.4,3.5c0.1,0.5-0.1,1-0.1,1.5c0.1,1,0.4,2.7,0.9,3.6c-0.1-0.5,0.2-0.9,0.2-1.3
																	c0-0.6-0.3-1.1-0.4-1.7c0-0.7,0.5-1.3,0.4-2.1s-0.8-1.1-0.8-2.1c-0.5-0.4-0.6-1.3-1.2-1.6
																	C-361.1,566-361.1,565.9-361.3,565.5z M-358.9,564.4c0.2,1,1,1.3,1.6,2c0,0.1,0.1,0.1,0.1,0.2
																	c0.3,0.5,0.4,1.1,0.7,1.6c0.4,0.6,1.1,1,1.4,1.7c-0.2,4.6,0.8,7.8,1.5,12c0.3,1.9,0.9,3.6,1.3,5.3
																	c0.1,0.7,0.1,1.3,0.4,2c0.2,0.6,0.5,1.1,0.6,1.7c0.6,2.1,0.3,4.6,0.9,6.8c0.2,0.7,0.6,1.4,0.8,2.2
																	c0.1,0.6,0.1,1.2,0.3,1.8c0.2,0.8,0.6,1.7,0.7,2.5c0.1,0.4-0.1,0.7,0.2,1v0.1c-0.5,0.4-1.1,0.3-1.7,0.4
																	c-1.2,0.2-2.6,0.5-4.1,0.6c-4.8,0.2-9,0.1-12.7,0.4c-1.6,0.2-3.2,0.7-4.8,1c-2.1,0.3-4.3,0-6.8,0
																	c-0.9,0-1.9,0-2.7,0c-1,0-2,0.1-1.9-0.9c0.1-0.5,0.6-0.8,0.8-1.2c0.2-0.4,0.5-1.2,0.6-1.6c0-0.4-0.2-0.7-0.2-1.1
																	c-0.1-0.7-0.1-1.6,0-2.3c0.1-2.6,0.6-5.3,0.6-7.8c0-0.9,0.2-1.8,0.3-2.8c0.2-1,0.3-2,0.5-3c0.2-0.9,0.6-1.6,0.8-2.5
																	c0.2-1.1,0-2.3,0.1-3.5c0-0.5,0.1-1.1,0.2-1.6c0.2-1.2,0.9-2.4,0.7-3.8c0.4-0.4,0.9-0.7,1.4-1c0.4-1,1.4-1.4,2-2.3
																	c0.5-0.1,0.9-0.4,1.4-0.7c0.3-0.2,1-0.6,1.1-0.9c0.1-0.3-0.1-0.6-0.1-1c0-0.6,0.2-1.1,0.3-1.8
																	c0.1-0.7,0-1.6,0.1-2.4c0.1-0.6,0.3-1.1,0.4-1.7c0.1-1.2,0.1-2.6,0.5-3.6c-0.5-0.8,0.2-1.6,0.3-2.4
																	c0.1-0.5,0-1,0.1-1.5c0.1-0.3,0.2-0.5,0.3-0.8c0.4-1.2,1-2.2,1.6-3.2c0-1.2,0.3-1.8,0.4-2.8
																	c0.3-0.3,0.7-0.5,1.2-0.6c1,1.2,2.2,2.7,4.1,2.3c0.5,0.5,1.3,0.5,1.7,1.1c0.2,0.3,0.3,1,0.4,1.6
																	c0.2,1,0.6,2.5,0.5,3.9c0,1.1-0.3,2.2-0.2,3.2C-361,562.9-360.6,564.1-358.9,564.4z M-365.6,557.8
																	c0-0.8-0.5-1.4-0.3-2.3c-0.2-0.1-0.3-0.5-0.6-0.4c-0.3,0.6-0.1,1.2-0.1,1.8c0,2-1.2,3.3-1.2,4.9
																	c0,0.7,0.1,1.6,0.2,2.4c0.1,0.6,0.1,1.3,0.2,1.9c0.1,0.6,0.5,0.9,0.8,1.6c0.6,1.4,0.6,3.2,1.4,4.7
																	c0.3-1-0.4-1.7-0.1-2.6c-0.8-1.1-0.4-2.8-0.5-4.1c0.2-0.9,0.6-1.5,0.5-2.6c-0.4-0.5-0.6-0.8-0.7-1.5
																	c0-0.2-0.1-0.5-0.1-0.6C-366.4,560-365.6,558.7-365.6,557.8z M-373.6,577.3c0.3-0.1,0.9-1.5,0.2-1.2
																	c-0.2,0.1-0.6,1-0.7,1.5c-0.5,1.4-0.7,2-0.8,3.6c0,0.7-0.2,1.4-0.3,2.1c-0.1,0.8,0,1.5-0.1,2.1
																	c-0.1,0.9-0.7,1.5-0.6,2.5c-0.2,0.6-0.6,1.4-0.2,2.1c0.3-0.8,0.8-1.2,1.3-1.9c0.4-0.5,0.7-1,0.9-1.6
																	c0.3-1-0.4-1.9-0.4-3.1c-0.1-1.2,0.3-2.3,0.5-3.5c0-0.2-0.1-0.3-0.1-0.5C-373.6,578.7-373.4,578-373.6,577.3z"/>
																<path d="M-359.3,570c0.1,0.7-0.5,1.4-0.4,2.1c0,0.6,0.3,1.2,0.4,1.7c0,0.5-0.3,0.8-0.2,1.3
																	c-0.5-0.9-0.8-2.6-0.9-3.6c0-0.5,0.1-1,0.1-1.5c-0.2-1.4-1.1-2.4-1.4-3.5c0-0.1-0.2,0-0.2-0.1c0-0.3,0-0.6,0-0.9
																	c0.2,0.1,0.4,0,0.7,0c0.2,0.4,0.1,0.5,0,0.8c0.6,0.3,0.7,1.2,1.2,1.6C-360.1,568.8-359.4,569.1-359.3,570z"/>
																<path d="M-366.3,561.5c0.1,0.8,0.3,1,0.7,1.5c0.1,1.2-0.3,1.8-0.5,2.6c0.2,1.3-0.3,3,0.5,4.1
																	c-0.3,1,0.4,1.7,0.1,2.6c-0.7-1.5-0.7-3.3-1.4-4.7c-0.3-0.7-0.7-0.9-0.8-1.6c-0.1-0.6-0.1-1.3-0.2-1.9
																	c-0.1-0.8-0.2-1.7-0.2-2.4c0-1.7,1.2-2.9,1.2-4.9c0-0.6-0.3-1.2,0.1-1.8c0.3-0.2,0.4,0.2,0.6,0.4
																	c-0.2,0.9,0.4,1.5,0.3,2.3c0,0.9-0.7,2.2-0.7,3.1C-366.4,561-366.4,561.3-366.3,561.5z"/>
																<path d="M-373.9,571.7c-0.5,0.3-0.9,0.6-1.4,0.7l-0.1-0.2c0.1,0,0.1-0.1,0.2-0.2c0.6-2.6,1.3-5.7,1.8-8.9
																	c0.5-3.1,0.5-6.6,1.7-9c0.2-0.5,0.6-0.8,0.9-1.3c0.2-0.5,0.5-1.3,0.7-1.9c0.2-0.9,0.1-1.5,0.7-2.1
																	c0.4-0.4,1.5-1,2-0.9c0.2,0,0.3,0.3,0.5,0.5c0.2,0.1,0.4,0.1,0.6,0.2s0.5,0.4,0.7,0.5c0.6,0.4,1,0.5,1.3,1.1
																	c0.3,0.2,0.7,0.2,1,0.4c0.6,0.7,1.7,1,2.3,1.7c0.2,0.5,0.1,0.9,0.2,1.5c0.1,0.3,0.2,0.4,0.3,0.7
																	c0.1,0.2,0,0.5,0,0.7c0.1,0.3,0.3,0.6,0.3,0.8c0.1,0.7,0,1.4,0.1,2c0,0.5,0.2,1.1,0.3,1.7c0.2,0.9,0.3,1.7,0.6,2.6
																	c0.3,0.5,0.5,1,1,1.3c-0.1,0.2-0.1,0.5-0.3,0.6c0.5,0.6,1,1.4,1.5,2.1l-0.3,0.2c0-0.1-0.1-0.1-0.1-0.2
																	c-0.5-0.7-1.4-1.1-1.6-2c-1.7-0.3-2.1-1.6-2.3-3.4c-0.1-1,0.2-2,0.2-3.2c0-1.4-0.3-2.9-0.5-3.9
																	c-0.1-0.5-0.2-1.3-0.4-1.6c-0.4-0.6-1.1-0.6-1.7-1.1c-1.9,0.4-3.1-1.2-4.1-2.3c-0.5,0.1-0.9,0.3-1.2,0.6
																	c0,1-0.4,1.6-0.4,2.8c-0.6,1-1.2,2-1.6,3.2c-0.1,0.3-0.3,0.5-0.3,0.8c-0.1,0.5,0,1-0.1,1.5
																	c-0.1,0.8-0.8,1.5-0.3,2.4c-0.4,1-0.4,2.4-0.5,3.6c-0.1,0.5-0.3,1.1-0.4,1.7c-0.1,0.8,0,1.7-0.1,2.4
																	c-0.1,0.7-0.3,1.2-0.3,1.8c0,0.4,0.2,0.7,0.1,1C-373,571.1-373.6,571.5-373.9,571.7z"/>
																<path d="M-375.1,583.2c0-0.7,0.2-1.4,0.3-2.1c0.1-1.6,0.2-2.1,0.8-3.6c0.2-0.5,0.5-1.4,0.7-1.5
																	c0.7-0.3,0.1,1.1-0.2,1.2c0.2,0.7,0,1.4-0.2,2c0,0.2,0.1,0.3,0.1,0.5c-0.3,1.3-0.6,2.3-0.5,3.5
																	c0.1,1.1,0.7,2.1,0.4,3.1c-0.2,0.5-0.5,1.1-0.9,1.6c-0.5,0.7-1,1.1-1.3,1.9c-0.4-0.6,0-1.4,0.2-2.1
																	c-0.1-1,0.5-1.6,0.6-2.5C-375.1,584.7-375.1,584-375.1,583.2z"/>
																<path d="M-377.3,574.7c-0.5,0.3-1,0.6-1.4,1c0.2,1.3-0.6,2.5-0.7,3.8c-0.1,0.5-0.1,1.1-0.2,1.6
																	c-0.1,1.1,0.1,2.4-0.1,3.5c-0.2,0.9-0.6,1.7-0.8,2.5c-0.2,1-0.4,2-0.5,3c-0.2,1-0.3,1.8-0.3,2.8
																	c-0.1,2.5-0.6,5.2-0.6,7.8c0,0.7,0,1.6,0,2.3c0.1,0.4,0.2,0.8,0.2,1.1c0,0.4-0.3,1.2-0.6,1.6
																	c-0.2,0.4-0.7,0.7-0.8,1.2c-0.1,1,0.8,0.9,1.9,0.9c0.9,0,1.8,0,2.7,0c2.5,0,4.7,0.3,6.8,0c1.6-0.2,3.2-0.8,4.8-1
																	c3.8-0.4,7.9-0.2,12.7-0.4c1.5-0.1,2.9-0.4,4.1-0.6c0.6-0.1,1.2,0,1.7-0.4c0,0,0,0,0-0.1c-0.2-0.3-0.1-0.6-0.2-1
																	c-0.1-0.8-0.5-1.7-0.7-2.5c-0.1-0.6-0.1-1.3-0.3-1.8c-0.2-0.8-0.6-1.5-0.8-2.2c-0.6-2.2-0.3-4.7-0.9-6.8
																	c-0.2-0.6-0.4-1.1-0.6-1.7c-0.3-0.7-0.2-1.3-0.4-2c-0.3-1.7-0.9-3.4-1.3-5.3c-0.7-4.2-1.8-7.4-1.5-12
																	c-0.4-0.7-1-1-1.4-1.7c-0.3-0.5-0.5-1.1-0.7-1.6l0.3-0.2c0.2,0.4,0.5,0.7,0.7,1.1c0.3,0.4,0.6,0.9,0.9,1.2
																	c0.2,0.3,0.5,0.4,0.7,0.7c0.5,0.9,0.4,2.1,0.7,3.4c0.2,1.2,0.8,2.3,1,3.4c0.3,2,0.6,3.9,1,5.8
																	c0.5,1.9,0.8,3.8,1.2,5.8c0.1,0.8,0.5,1.4,0.7,2.1c0.3,1.1,0.3,2.2,0.3,3.3c0,1-0.3,2.1-0.3,3.2
																	c0,0.6,0.3,1.3,0.5,2c0.2,0.7,0.4,1.3,0.5,2c0.4,1.6,1,2.8,1.2,4.6c0.3,0.3-0.1,0.7-0.2,0.9
																	c-1.1,0.2-2.4,0.1-3.6,0.3c-0.2,0-0.4,0.2-0.7,0.3c-0.7,0.2-1.5,0-2.4,0.1c-0.7,0.1-1.5,0.3-2.1,0.4
																	c-1.5,0.1-3.1,0-4.7,0c-0.9,0-1.8,0.2-2.8,0.2c-1.3,0-2.4,0-3.6,0.3c-1.4,0.3-2.6,0.8-4.3,1
																	c-2.3,0.3-4.7-0.2-6.9-0.1c-0.7,0-1.3,0-2.2-0.2c-1-0.2-1.8,0-2.3-0.9c-0.3,0.1-0.4,0.5-0.8,0.4
																	c-0.4-0.6,0.1-1.2,0.2-1.7c0.1-0.9,0-1.9,0.1-2.8c0.2-2.7,0.7-5.3,1-7.9c0.3-2.6,0.8-5,1.5-7.4
																	c0.2-0.8,0.5-1.6,0.6-2.3c0.2-1.1,0-2.2,0.1-3.2c0.1-0.5,0.2-0.9,0.2-1.4c0.1-0.4,0-0.9,0.1-1.3
																	c0.2-0.9,0.7-1.7,0.9-2.7c0.2-1.2,0.1-1.9,0.9-2.6c0.9-0.8,2.4-1.5,3.5-2.3l0.1,0.2
																	C-375.9,573.3-376.9,573.7-377.3,574.7z"/>
															</g>
														</g>
													</g>
													<path class="st1" d="M-383,606.5c-0.6,0.2-0.9,1.3-0.9,1.5c0,0.1,6.3,1.8,6.3,1.8l18.3-1.9l-0.8-3.4
														C-360.1,604.4-382,606.2-383,606.5z"/>
												</g>
												<g>
													<g id="XMLID_1_">
														<g>
															<path d="M-351.5,577.5c-0.1-1.6-0.1-3.2,0.3-4.9c0.1-0.5,0.4-1.2,0.4-2c0-0.4,0.1-1.1-0.4-1.2
																c-0.3,0.2-0.1,0.6-0.1,0.9c-0.1,1.3-0.2,2.8-0.8,3.7c-0.2,0.7-0.1,1.3-0.1,2c0,0.4-0.2,1-0.3,1.5
																c0,0.4,0.1,0.9,0,1.2c-0.2,0.7-0.6,1.1-0.7,1.6c-0.4,1.4,0.1,3.4-0.3,4.9c-0.5,0.4-0.5,0.9-0.1,1.5
																c0.8-1.3,0.9-2.9,1.4-4.7c0.2-0.8,0.6-1.5,0.7-2.2C-351.3,579.2-351.4,578.3-351.5,577.5z"/>
															<path d="M-344.3,577.7c0,0.2-0.2,0.2-0.2,0.5c0,0.2,0.2,0.3,0.3,0.5c-0.1,0.9-0.1,1.7,0,2.6c0.1,0.8,0.6,1.6,0.6,2.2
																c0,0.3-0.2,0.6-0.3,0.9c0,0.6,0.4,1.1,0.5,1.7c0,0.2,0,0.4,0,0.5c0.1,0.4,0.4,0.9,0.6,1.5c0.2,0.5,0.4,1.1,0.6,1.5
																c0.2,0.3,0.5,0.6,0.7,1c-0.2-1-0.5-1.9-0.4-2.8c0-0.2,0.2-0.5,0.2-0.7c0.2-1.9-1.1-3.4-1.3-5.4
																c-0.1-0.6,0-1.1-0.1-1.5c-0.1-0.7-0.5-1.1-0.6-1.7c-0.2-0.8,0.1-1.6-0.8-1.6C-344.6,577.2-344.5,577.5-344.3,577.7z"
																/>
															<path class="st1" d="M-344.3,577.7c0,0.2-0.2,0.2-0.2,0.5c0,0.2,0.2,0.3,0.3,0.5c-0.1,0.9-0.1,1.7,0,2.6
																c0.1,0.8,0.6,1.6,0.6,2.2c0,0.3-0.2,0.6-0.3,0.9c0,0.6,0.4,1.1,0.5,1.7c0,0.2,0,0.4,0,0.5c0.1,0.4,0.4,0.9,0.6,1.5
																c0.2,0.5,0.4,1.1,0.6,1.5c0.2,0.3,0.5,0.6,0.7,1c-0.2-1-0.5-1.9-0.4-2.8c0-0.2,0.2-0.5,0.2-0.7
																c0.2-1.9-1.1-3.4-1.3-5.4c-0.1-0.6,0-1.1-0.1-1.5c-0.1-0.7-0.5-1.1-0.6-1.7c-0.2-0.8,0.1-1.6-0.8-1.6
																C-344.6,577.2-344.5,577.5-344.3,577.7z M-344.6,565.8c0,0.2,0,0.5,0,0.7c0.1,0.4,0.3,0.7,0.3,1.1s-0.1,0.8-0.1,1.2
																c0,0.3,0.2,0.5,0.3,0.8c0,0.3-0.1,0.6-0.1,0.9c0,0.5,0.3,0.9,0.3,1.3c0,0.7-0.1,1.3,0,2c0.7,0.4,0.9,1.5,1.3,2.2
																c0.9,0.9,2.1,1.5,3.1,2.3c1.2,2.5,0.2,5.8,0.8,8.4c0.2,0.7,0.4,1.3,0.6,2c0.4,1.4,0.6,2.9,1.1,4.2
																c0.6,1.4,1.9,2.8,2,4.3c0,0.2-0.1,0.5-0.1,0.7c0,0.7,0.2,1.5,0.2,2.4c0.1,1.2,0,2.6,0.1,3.8c0.1,1.2,0.7,2.7,0.9,4.2
																c0.2,1.1,0.4,2.1,0.8,3c0,0.9-0.3,1.8-0.2,2.8c0,0.3,0.2,0.6,0.3,0.9c0.1,0.6,0,1.2,0.1,1.8c0,0.2,0.2,0.5,0.2,0.7
																c0,0.7-0.2,1.4-0.2,2.1c0.1,0.9,0.7,1.7,0.6,2.6c-0.4,0.1-0.3,0.7-0.4,0.8c-1.4-0.1-2.6,0.3-3.7,0.4
																c-2.4,0.3-4.3-0.3-6.4-0.7c-3.2-0.6-6.8-0.8-10-0.5c-3.5,0.3-6.8,0.9-10.2,0c-0.2-0.6-0.2-1.3-0.6-1.7
																c0.1-0.8-0.2-1.7-0.2-2.6c0-1.3,0.3-2.7,0.8-3.7c0.3-0.8,0.2-1.7,0.4-2.6c0.3-1.5,0.9-3.1,1.1-4.7
																c0-0.3-0.1-0.7-0.1-1c0.1-1.3,0.8-2.4,1-3.4c0.1-0.4,0-0.8,0.1-1.2c0.2-1.1,0.8-2.1,0.8-3.1c0-0.3-0.2-0.7-0.2-1
																c-0.1-0.8-0.1-1.7-0.1-2.6c0-1.5-0.4-2.9-0.1-4.2c0.4-1.9,1.6-3.6,1.9-5.8c0.1-0.5-0.1-1.1,0-1.7s0.4-1.3,0.5-1.9
																c0.1-0.7,0-1.5,0.1-2.2c0.1-1.4,0.4-2.7,0.8-4.1c0.1-0.3,0.3-0.6,0.3-0.9c0.2-1.3-0.2-2.6,0.5-3.4
																c-0.1-0.2-0.1-0.5-0.3-0.7c0.6-0.2,0.8-0.8,1.1-1.3c1-0.7,2-1.4,3.3-1.8c0-0.4,0.4-0.7,0.7-1.1
																c0.3-0.3,0.6-0.9,0.9-1.1c0.2-0.1,0.6,0,1-0.1c1.2-0.3,2.5-1.4,4.3-1.1C-345.4,564-344.9,564.9-344.6,565.8z
																 M-351.1,570.3c-0.1,1.3-0.2,2.8-0.8,3.7c-0.2,0.7-0.1,1.3-0.1,2c0,0.4-0.2,1-0.3,1.5c0,0.4,0.1,0.9,0,1.2
																c-0.2,0.7-0.6,1.1-0.7,1.6c-0.4,1.4,0.1,3.4-0.3,4.9c-0.5,0.4-0.5,0.9-0.1,1.5c0.8-1.3,0.9-2.9,1.4-4.7
																c0.2-0.8,0.6-1.5,0.7-2.2c0.1-0.7-0.1-1.6-0.1-2.4c-0.1-1.6-0.1-3.2,0.3-4.9c0.1-0.5,0.4-1.2,0.4-2
																c0-0.4,0.1-1.1-0.4-1.2C-351.4,569.6-351.1,570-351.1,570.3z"/>
															<path d="M-363.1,622.3c3.4,0.9,6.8,0.3,10.2,0c3.2-0.3,6.8-0.1,10,0.5c2.1,0.4,4.1,0.9,6.4,0.7
																c1.2-0.1,2.4-0.5,3.7-0.4c0-0.1,0-0.7,0.4-0.8c0.1-0.9-0.5-1.6-0.6-2.6c0-0.7,0.2-1.4,0.2-2.1c0-0.2-0.1-0.4-0.2-0.7
																c-0.1-0.6,0-1.3-0.1-1.8c-0.1-0.3-0.2-0.6-0.3-0.9c-0.1-0.9,0.2-1.8,0.2-2.8c-0.3-0.9-0.6-2-0.8-3
																c-0.2-1.5-0.8-2.9-0.9-4.2c-0.1-1.3-0.1-2.6-0.1-3.8c0-0.8-0.2-1.6-0.2-2.4c0-0.3,0.1-0.5,0.1-0.7
																c-0.1-1.5-1.4-3-2-4.3c-0.5-1.3-0.7-2.8-1.1-4.2c-0.2-0.7-0.5-1.3-0.6-2c-0.6-2.6,0.3-5.9-0.8-8.4
																c-1-0.8-2.2-1.4-3.1-2.3c-0.5-0.7-0.6-1.8-1.3-2.2c-0.1-0.7,0-1.3,0-2c0-0.4-0.2-0.9-0.3-1.3c0-0.3,0.1-0.6,0.1-0.9
																s-0.2-0.5-0.3-0.8c0-0.4,0.1-0.8,0.1-1.2s-0.3-0.7-0.3-1.1c0-0.2,0-0.5,0-0.7c-0.2-0.9-0.6-1.8-0.8-2.6
																c-1.7-0.3-3,0.8-4.3,1.1c-0.3,0.1-0.8,0-1,0.1c-0.3,0.2-0.6,0.8-0.9,1.1c-0.3,0.3-0.7,0.7-0.7,1.1
																c-1.3,0.4-2.3,1.1-3.3,1.8c-0.3,0.5-0.5,1.1-1.1,1.3c0.1,0.2,0.2,0.5,0.3,0.7c-0.7,0.8-0.3,2.1-0.5,3.4
																c0,0.3-0.2,0.6-0.3,0.9c-0.3,1.4-0.6,2.8-0.8,4.1c-0.1,0.7,0,1.4-0.1,2.2c-0.1,0.6-0.4,1.3-0.5,1.9s0.1,1.2,0,1.7
																c-0.3,2.2-1.5,3.9-1.9,5.8c-0.2,1.3,0.1,2.7,0.1,4.2c0,0.9,0,1.7,0.1,2.6c0,0.3,0.2,0.7,0.2,1c0,1-0.5,2-0.8,3.1
																c-0.1,0.4,0,0.8-0.1,1.2c-0.2,1-0.9,2.1-1,3.4c0,0.3,0.1,0.7,0.1,1c-0.2,1.6-0.8,3.1-1.1,4.7
																c-0.1,0.9-0.1,1.8-0.4,2.6c-0.5,1-0.7,2.4-0.8,3.7c0,1,0.3,1.8,0.2,2.6C-363.5,621-363.4,621.7-363.1,622.3z
																 M-365.1,619.5c-0.2-2.9,0.7-5.2,1.1-7.8c0.4-2.2,0.6-4.5,0.8-6.7c0.1-1.8,0.6-3.6,0.9-5.3c0.2-0.9,0.4-1.8,0.6-2.6
																c0.2-0.8,0.5-1.8,0.6-2.6c0.1-1.1-0.2-2.2-0.2-3.1c0.1-1.6,0.5-2.8,1-4.4c0.7-2.2,0.9-4.6,1.5-6.8
																c0.3-1,0.3-2,0.4-3.1c0.1-1.3,0.7-2.6,0.9-3.9c0-0.3,0-0.6,0-0.9c0-0.6,0.4-1.1,0.4-1.6s-0.2-0.7-0.3-1.3
																c0.9-1.2,2.1-2.1,3.5-2.7c0.1-0.7,0.6-1.3,0.8-2c0.1-0.3,0-0.7,0.2-1c0.3-0.5,0.8-0.5,1.5-0.9
																c0.5-0.3,0.8-0.7,1.1-0.9c0.4-0.2,0.7-0.1,1.1-0.1c1-0.1,2-0.5,2.7-0.3c0.8,0.1,2.2,0.9,2.3,1.5
																c0.1,0.3-0.1,0.6-0.1,0.9c0,0.8,0.4,1.6,0.6,2.4c0.6,2.7,0.5,5,1,7.6c1,0.2,1.6,1.2,2.5,1.9c1,0.8,2,1.3,2.4,2.6
																c0.1,0.3,0.1,0.7,0.1,1.1c0.2,1.2,0.3,2.5,0.4,3.9c0.3,3.9,1.2,7.9,2.3,11.1c0.4,1.1,1,2.2,1.1,3.3
																c0.1,0.6-0.1,1.3-0.1,1.9c0,0.3,0.1,0.6,0.2,0.9c0.2,1.5,0,3.1,0.2,4.6c0.3,2.3,1.4,4.4,1.6,6.7
																c0.1,1.1-0.1,2.2,0,3.2c0.1,1.1,0.4,2.2,0.4,3.3c0,1.6-0.4,3.1,0.3,4.3c-0.4,0-0.2,0.7-0.2,1
																c-0.5-0.1-0.9,0.5-1.4,0.7c-0.6,0.1-1.3-0.1-2,0c-0.5,0-1,0.2-1.5,0.3c-3.5,0.7-6.7-0.3-10.1-0.9
																c-4.9-0.9-9.8,1.2-15.3,0.5c-0.7-0.7-2.5-0.2-3.2-1c-0.2-0.4,0.3-0.6,0.4-1.1c0-0.4-0.2-0.8-0.3-1.2
																c-0.1-0.2-0.7-0.1-0.6-0.5C-365.4,619.9-365.1,619.7-365.1,619.5z"/>
														</g>
													</g>
												</g>
											</g>
										</g>
									</g>
									<g>
										<path d="M-464.9,637.3c-0.5,0.1-0.9,0.9-1.4,0.7c-0.4-0.1-0.7-0.5-1-0.6c0.2-2,1.1-2.8,2-4.3c-0.1-0.1-0.1-0.6-0.4-0.4
											c-0.4-0.8-0.2-1.4,0-2.3c-0.2,0.1-0.6,0.3-1,0.4c0-0.2,0.2-0.1,0.1-0.3c-0.5,0.1-0.5-0.3-0.9-0.4
											c-0.1-0.9,0.3-1.4,0.4-2.1c0.9-1.1,1.4-2.6,2.9-3.1c0.5-0.7,1.3-1.2,1.8-1.9c0-0.2-0.2-0.3-0.3-0.4
											c-0.3,0-0.2,0.4-0.4,0.4c-0.2-0.1-0.1-0.2-0.1-0.4c-0.3,0.1-0.4,0.4-0.7,0.4c0.1-0.4,0.3-0.4,0.3-0.8
											c-0.1-0.2-0.1,0.2-0.3,0.2c0-0.2,0.4-0.6,0.1-0.9c0-0.2,0-0.1,0.1-0.1c0-0.2-0.1-0.3-0.2-0.6c0.2-0.4,0.4-0.8,0.6-1.2
											c-0.2,0.1-0.5-0.1-0.8-0.2c-0.4-1.3,0.7-2.2,1.1-3.2c0-0.3-0.2-0.3-0.4-0.3c0.1-0.1,0-0.3,0.1-0.4c0-0.2-0.1,0.1-0.3,0
											c0.1-0.2,0.2-0.5,0.3-0.7c-0.2,0-0.2-0.1-0.4-0.3c0-0.1,0.1-0.2,0.2-0.2c-0.1-0.4,0-0.8,0.2-1.1c0.7-1.1,1.3-2.3,2.5-2.8
											c-0.1-0.3,0.1-0.2,0-0.4c0.2,0.1,0.3,0.3,0.6,0.3c0.1,0,0.1-0.2,0.1-0.3c0.2,0.1,0.2,0.4,0.3,0.5c0.2,0.1,0.4,0.2,0.6,0.4
											c0.1,0.1,0.7,0.6,0.8,0.8c0,0.1,0.4,0.2,0.4,0.4c0,0.1,0,0.2,0,0.3c0.4,0.8,1.5,1.8,1.3,2.8c-0.4,0-0.8,0.3-0.8,0.6
											c-0.6-0.1-0.8-0.5-1.7-0.5c0.5,0.7,1.3,1.1,1.8,1.8c0.5,0.5,1,0.9,1.4,1.4c0.1,0.1,0.3,0.4,0.3,0.6
											c0.2,0.2,0.3,0.4,0.5,0.5c-0.1,0.5-0.6,0.6-1,0.9c-0.8-0.1-1.8-1-3-0.6c0.8,1.2,1.9,2.1,2.8,3.2c0,0.1-0.1,0.1-0.1,0.2
											c0.2,0.2,0.3,0.3,0.4,0.5c-0.3,0.3-0.7,0.9-1.2,0.7c-0.1,0.1,0,0.2,0,0.4c-0.1,0-0.2,0-0.3-0.1c0.1,0.3,1.1,1.7,0.1,2
											c0.6,1.1,1.7,1.7,2.5,2.5c0,0.3,0.1,0.4,0.1,0.6c-0.2,0.2-0.3,0.4-0.5,0.6c-1.5,0-2.3-0.9-3.8-1c0.5,0.6,1.6,1.2,2.7,1.3
											c0.6,0.9,3.2,1.3,3,2.9c0,0.3-0.7,1.1-1.1,1.2s-0.8-0.2-1.2-0.3c-0.3,0.3-0.3,0.7-0.7,0.9c-0.3,0.1-0.7-0.1-1,0.3
											c0.6,1.1,2,1.4,2.3,2.8c-0.1,0.3-0.4,0.4-0.6,0.7c-1.1,0.1-2.3-0.9-3.4-0.8c0.2,0.8,0.2,2.2-0.8,2c-0.1,0-0.1,0.1-0.2,0.1
											c0.4,2.1,0,4.2-0.2,6.3c0,0.6,0.3,1.2-0.1,1.7c0.2,0.5,0,1.3-0.3,1.6c-0.4-0.1-0.4,0.2-0.8,0.1c-0.3-0.4-0.6-0.8-0.8-1.2
											c0.1-0.4,0-0.8-0.1-1.1c-0.3-2.3,0.9-4.7,0.3-6.9c-0.9,0-1.2,1.1-2.2,0.5c-0.2-0.6,0-1.3,0.1-1.9c-0.7,0.3-1,1.8-2.2,1.6
											c-0.2-0.7-0.9-1-0.5-1.5c-0.1,0-0.1,0-0.1,0.1C-466.4,639-465.6,638.2-464.9,637.3z M-457.9,626.8c0.1,0,0.3,0.2,0.4,0.1
											C-457.6,626.9-457.8,626.7-457.9,626.8z M-459.9,616.6c0.2,0.7-0.3,1.3-0.1,2C-460,617.8-459,617.1-459.9,616.6z
											 M-459.9,627.2c0,0.1,0,0.2,0,0.3h0.1C-459.6,627.4-459.9,627.3-459.9,627.2z M-460.8,615.6c-0.2,0.3-0.6,0.9-0.5,1.3
											C-460.6,617-460.6,616.1-460.8,615.6z M-461.5,628c-0.3,1-0.9,1.6-1.2,2.5c0.4,0.3,0.9,0.5,1.3,0.8
											c-0.1,0.2,0.3,0.4,0.1,0.2C-461.5,630.4-461.3,629.4-461.5,628z M-462.4,627c0.4-0.1,0.5-0.6,1-0.6c0-0.3,0-0.5,0.1-0.7
											C-461.6,626.1-462.4,626.7-462.4,627z M-462.1,634.6c0.2,0,0.5,0,0.7,0c0-0.2,0.2-0.8,0-1.1
											C-461.6,634-462.1,634.1-462.1,634.6z M-462.4,638.2C-462.3,638.2-462.3,638.2-462.4,638.2
											C-462.9,638.5-462.6,638.8-462.4,638.2z"/>
										<path d="M-400.1,642.7L-400.1,642.7c0.4,0.5-0.4,0.7-0.6,1.3c-1.2,0.2-1.5-1.2-2.2-1.4c0.2,0.5,0.4,1.2,0.1,1.7
											c-0.9,0.6-1.3-0.5-2.2-0.5c-0.7,2,0.6,4.1,0.3,6.2c-0.1,0.3-0.1,0.7-0.1,1c-0.3,0.4-0.5,0.7-0.8,1.1
											c-0.4,0.1-0.5-0.2-0.8-0.1c-0.2-0.3-0.4-1-0.3-1.4c-0.3-0.5,0-1-0.1-1.5c-0.2-1.9-0.6-3.8-0.2-5.7c-0.1,0-0.1-0.1-0.2-0.1
											c-1,0.2-1-1.1-0.8-1.8c-1-0.1-2.3,0.8-3.4,0.7c-0.2-0.2-0.5-0.4-0.6-0.6c0.3-1.3,1.7-1.6,2.3-2.5c-0.2-0.3-0.7-0.1-1-0.2
											c-0.4-0.2-0.4-0.5-0.7-0.8c-0.4,0.1-0.8,0.3-1.2,0.2s-1.1-0.8-1.1-1.1c-0.2-1.4,2.4-1.9,3-2.6c1.2-0.1,2.2-0.7,2.7-1.2
											c-1.4,0.1-2.2,0.9-3.8,0.9c-0.2-0.2-0.3-0.4-0.5-0.6c-0.1-0.3,0.1-0.3,0.1-0.6c0.8-0.7,1.9-1.3,2.5-2.2
											c-1.1-0.2-0.1-1.5,0.1-1.8c-0.1,0-0.1,0.1-0.3,0.1c0-0.1,0.1-0.2,0-0.3c-0.5,0.2-0.9-0.3-1.2-0.6c0.1-0.2,0.3-0.3,0.4-0.5
											c0-0.1-0.1-0.1-0.1-0.2c0.9-1,2-1.8,2.8-2.9c-1.1-0.3-2.1,0.4-3,0.6c-0.3-0.3-0.9-0.3-1-0.8c0.2-0.1,0.3-0.3,0.5-0.5
											c-0.1-0.2,0.1-0.4,0.3-0.6c0.4-0.4,0.9-0.8,1.4-1.3c0.6-0.6,1.4-1,1.8-1.6c-0.8,0-1,0.3-1.7,0.5c0-0.3-0.4-0.5-0.8-0.5
											c-0.1-0.9,1-1.8,1.3-2.5c0-0.1,0-0.2,0-0.3c0.1-0.2,0.4-0.3,0.4-0.3c0.1-0.2,0.7-0.7,0.8-0.7c0.2-0.2,0.4-0.3,0.6-0.3
											c0.1-0.1,0.2-0.4,0.3-0.5c0,0.1,0,0.3,0.1,0.3c0.4,0.1,0.4-0.1,0.6-0.2c-0.1,0.2,0.1,0.1,0,0.4c1.1,0.5,1.8,1.6,2.5,2.5
											c0.2,0.3,0.3,0.7,0.2,1c0.1,0,0.2,0,0.2,0.2c-0.2,0.1-0.2,0.2-0.4,0.2c0.1,0.2,0.2,0.4,0.3,0.6c-0.1,0.1-0.2-0.2-0.3,0
											c0.1,0.1,0,0.3,0.1,0.3c-0.1,0-0.3,0-0.4,0.3c0.5,0.9,1.6,1.7,1.1,2.9c-0.3,0.1-0.6,0.2-0.8,0.2c0.2,0.4,0.3,0.8,0.6,1.1
											c-0.1,0.2-0.2,0.4-0.2,0.5c0.1,0,0.1-0.1,0.1,0.1c-0.3,0.3,0.1,0.6,0.1,0.8c-0.2,0-0.2-0.3-0.3-0.2
											c0.1,0.3,0.2,0.3,0.3,0.7c-0.3-0.1-0.4-0.3-0.7-0.4c0.1,0.2,0.1,0.3-0.1,0.3c-0.3,0-0.2-0.3-0.4-0.3
											c-0.1,0.2-0.2,0.2-0.3,0.4c0.5,0.7,1.3,1.1,1.8,1.7c1.5,0.4,2,1.8,2.9,2.8c0.1,0.6,0.5,1.1,0.4,1.9
											c-0.4,0.1-0.4,0.5-0.9,0.4c0,0.2,0.2,0.1,0.1,0.3c-0.4-0.1-0.8-0.3-1-0.4c0.2,0.8,0.4,1.3,0,2.1c-0.3-0.2-0.2,0.2-0.4,0.3
											c0.8,1.3,1.8,2,2,3.8c-0.3,0.1-0.6,0.4-1,0.5c-0.5,0.2-0.9-0.6-1.4-0.6C-401,641.1-400.1,641.8-400.1,642.7z
											 M-409.1,630.9c0.1,0.2,0.3,0,0.4-0.1C-408.8,630.7-409,630.9-409.1,630.9z M-406.6,623.4c0.3-0.6-0.2-1.2-0.1-1.8
											C-407.6,622-406.6,622.7-406.6,623.4z M-406.8,631.4h0.1c0-0.1,0-0.2,0-0.3C-406.6,631.2-407,631.4-406.8,631.4z
											 M-405.3,621.9c0.1-0.4-0.3-0.9-0.5-1.2C-405.9,621.2-405.9,622-405.3,621.9z M-405.4,635.1c-0.2,0.2,0.2,0,0.1-0.2
											c0.5-0.2,0.9-0.4,1.3-0.7c-0.3-0.8-0.9-1.4-1.2-2.3C-405.4,633.1-405.1,634-405.4,635.1z M-405.3,629.8
											c0.1,0.2,0,0.3,0.1,0.6c0.5,0,0.6,0.5,1,0.6C-404.1,630.7-404.9,630.1-405.3,629.8z M-405.1,636.8c-0.2,0.3,0,0.8,0,1
											c0.2,0,0.5,0,0.7,0C-404.5,637.4-405,637.3-405.1,636.8z M-404.3,641C-404.3,641.1-404.3,641.1-404.3,641
											C-403.9,641.6-403.6,641.4-404.3,641z"/>
										<path d="M-433.3,644.4L-433.3,644.4c0.4,0.5-0.4,0.7-0.6,1.3c-1.2,0.2-1.5-1.2-2.2-1.4c0.2,0.5,0.4,1.2,0.1,1.7
											c-0.9,0.6-1.3-0.5-2.2-0.5c-0.7,2,0.6,4.1,0.3,6.2c-0.1,0.3-0.1,0.7-0.1,1c-0.3,0.4-0.5,0.7-0.8,1.1
											c-0.4,0.1-0.5-0.2-0.8-0.1c-0.2-0.3-0.4-1-0.3-1.4c-0.3-0.5,0-1-0.1-1.5c-0.2-1.9-0.6-3.8-0.2-5.7c-0.1,0-0.1-0.1-0.2-0.1
											c-1,0.2-1-1.1-0.8-1.8c-1-0.1-2.3,0.8-3.4,0.7c-0.2-0.2-0.5-0.4-0.6-0.6c0.3-1.3,1.7-1.6,2.3-2.5c-0.2-0.3-0.7-0.1-1-0.2
											c-0.4-0.2-0.4-0.5-0.7-0.8c-0.4,0.1-0.8,0.3-1.2,0.2c-0.4-0.1-1.1-0.8-1.1-1.1c-0.2-1.4,2.4-1.9,3-2.6
											c1.2-0.1,2.2-0.7,2.7-1.2c-1.4,0.1-2.2,0.9-3.8,0.9c-0.2-0.2-0.3-0.4-0.5-0.6c0-0.3,0.1-0.3,0.1-0.6
											c0.9-0.7,1.9-1.3,2.5-2.2c-1.1-0.2-0.1-1.5,0.1-1.8c-0.1,0-0.1,0.1-0.3,0.1c0-0.1,0.1-0.2,0-0.3c-0.5,0.2-0.9-0.3-1.2-0.6
											c0.1-0.2,0.3-0.3,0.4-0.5c0-0.1-0.1-0.1-0.1-0.2c0.9-1,2-1.8,2.8-2.9c-1.1-0.3-2.1,0.4-3,0.6c-0.3-0.3-0.9-0.3-1-0.8
											c0.2-0.1,0.3-0.3,0.5-0.5c-0.1-0.2,0.1-0.4,0.3-0.6c0.4-0.4,0.9-0.8,1.4-1.3c0.6-0.6,1.4-1,1.8-1.6c-0.8,0-1,0.3-1.7,0.5
											c0-0.3-0.4-0.5-0.8-0.5c-0.1-0.9,1-1.8,1.3-2.5c0-0.1,0-0.2,0-0.3c0.1-0.2,0.4-0.3,0.4-0.3c0.1-0.2,0.7-0.7,0.8-0.7
											c0.2-0.2,0.4-0.3,0.6-0.3c0.1-0.1,0.2-0.4,0.3-0.5c0,0.1,0,0.3,0.1,0.3c0.4,0.1,0.4-0.1,0.6-0.2c-0.1,0.2,0.1,0.1,0,0.4
											c1.1,0.5,1.8,1.6,2.5,2.5c0.2,0.3,0.3,0.7,0.2,1c0.1,0,0.2,0,0.2,0.2c-0.2,0.1-0.2,0.2-0.4,0.2c0.1,0.2,0.2,0.4,0.3,0.6
											c-0.1,0.1-0.2-0.2-0.3,0c0.1,0.1,0,0.3,0.1,0.3c-0.1,0-0.3,0-0.4,0.3c0.5,0.9,1.6,1.7,1.1,2.9c-0.3,0.1-0.6,0.2-0.8,0.2
											c0.2,0.4,0.3,0.8,0.6,1.1c-0.1,0.2-0.2,0.4-0.2,0.5c0.1,0,0.1-0.1,0.1,0.1c-0.3,0.3,0.1,0.6,0.1,0.8
											c-0.2,0-0.2-0.3-0.3-0.2c0.1,0.3,0.2,0.3,0.3,0.7c-0.3-0.1-0.4-0.3-0.7-0.4c0.1,0.2,0.1,0.3-0.1,0.3
											c-0.3,0-0.2-0.3-0.4-0.3c-0.1,0.2-0.2,0.2-0.3,0.4c0.5,0.7,1.3,1.1,1.8,1.7c1.5,0.4,2,1.8,2.9,2.8
											c0.1,0.6,0.5,1.1,0.4,1.9c-0.4,0.1-0.4,0.5-0.9,0.4c0,0.2,0.2,0.1,0.1,0.3c-0.4-0.1-0.8-0.3-1-0.4c0.2,0.8,0.4,1.3,0,2.1
											c-0.3-0.2-0.2,0.2-0.4,0.3c0.8,1.3,1.8,2,2,3.8c-0.3,0.1-0.6,0.4-1,0.5c-0.5,0.2-0.9-0.6-1.4-0.6
											C-434.1,642.8-433.3,643.4-433.3,644.4z M-442.3,632.6c0.1,0.2,0.3,0,0.4-0.1C-441.9,632.4-442.1,632.6-442.3,632.6z
											 M-439.8,625.1c0.3-0.6-0.2-1.2-0.1-1.8C-440.6,623.7-439.8,624.4-439.8,625.1z M-439.9,633.1h0.1c0-0.1,0-0.2,0-0.3
											C-439.9,632.9-440.1,633.1-439.9,633.1z M-438.4,623.6c0.1-0.4-0.3-0.9-0.5-1.2C-439.1,622.9-439.1,623.7-438.4,623.6z
											 M-438.5,636.8c-0.2,0.2,0.2,0,0.1-0.2c0.5-0.2,0.9-0.4,1.3-0.7c-0.3-0.8-0.9-1.4-1.2-2.3
											C-438.5,634.8-438.1,635.7-438.5,636.8z M-438.4,631.5c0.1,0.2,0,0.3,0.1,0.6c0.5,0,0.6,0.5,1,0.6
											C-437.4,632.4-438.1,631.8-438.4,631.5z M-438.1,638.5c-0.2,0.3,0,0.8,0,1c0.2,0,0.5,0,0.7,0
											C-437.6,639.1-438.1,639-438.1,638.5z M-437.5,642.7C-437.5,642.8-437.4,642.8-437.5,642.7
											C-437.1,643.3-436.9,643.1-437.5,642.7z"/>
										<path d="M-448.1,634.7c0.9,0.5,3.3,0.6,2.2,2.3c-0.7,0.1-1.5,0.1-2-0.1c-0.3,1.1-0.2,2.6-0.3,3.8c0,0.2,0.1,0.5,0.1,0.7
											c0,1-0.6,1.7-0.8,2.5c-0.3,0.1-0.6,0.2-1,0.3c-0.6-0.3-1.3-0.2-1.4-0.9c-0.2-0.8,0.5-1.5,0.7-2.2c-0.6-1.9-0.1-3,0-5.3
											c-0.5-0.4-1-0.9-1.4-1.5c-0.7,0.8-1.6,1.5-2.7,1.6c-0.1-0.3-0.3-0.5-0.6-0.6c0-0.2,0.1-0.3,0.1-0.4
											c-0.9-1.3,1-2.8,1.8-3.8c-0.2,0-0.4,0.2-0.6,0.2c-1.6-0.5-0.1-2.4,0.4-3.2c-0.4,0-0.5-0.4-0.7-0.6c-0.1-1.6,1.1-2,1.7-3
											c-0.2-0.1-0.5-0.1-0.9-0.1c-0.4,0.6-1.9,1.6-2.4,0.5c-0.4-0.9,0.6-1.6,1.1-2.2c0.7-0.9,0.9-1.5,1.7-2
											c0.1-0.7,0.6-1,0.8-1.6c-0.4,0.4-0.9,0.6-1.3,0.5c-0.1-0.3-0.5-0.4-0.2-0.6c-0.2-0.2,0.1-1.1,0.3-1.5
											c0.6-0.9,1.5-2.1,2.4-2.5c0.1-0.3,0.4-0.4,0.3-0.8c-0.4,0.1-0.4,0.5-0.8,0.7c-0.2-0.1-0.2-0.1-0.5-0.1
											c-0.7-1.4,0.9-2.3,1.2-3.6c0.1,0,0.1-0.2,0.3-0.1c0-1,0.4-2.3-0.1-2.7c0.5-0.5,1,0.6,1.6,0.4c0.8,0.7,1.3,1.3,1.7,2.4
											c0.2,0.7,0.8,1.1,0.8,1.9c-0.2,0.2-0.4,0.5-0.6,0.7c-0.5-0.2-0.9-0.2-1.5-0.3c0.2,0.5,0.8,0.7,1.3,1.1
											c0.1,0.1,0.2,0.3,0.3,0.4c0.3,0.3,0.8,0.5,1.1,0.8c0.8,0.9,1.1,1.8-0.6,1.8c0.2,0.8,0.9,1.1,1.1,1.9
											c-0.4,0.8-1.4,0.7-2.3,0.6c0.3,0.6,0.9,1,1.5,1.5c0.2,0.2,0.3,0.5,0.4,0.7c0.3,0.3,0.8,0.4,1.1,0.7
											c0.2,0.2,0.2,0.5,0.4,0.6c0,0.2-0.3,0.5,0,0.6c-0.1,0.2-0.3,0.2-0.2,0.6c-0.4-0.1-0.3,0.3-0.8,0.2c0.2,0.4,0.7,0.9,1,1.3
											c0.4,0.7-0.2,1.7-1.3,1.4c-0.2,0.2,0.1,0.5-0.1,0.7c0.5,0.7,2.4,1.1,2.4,2.3c0,0.7-1,1.3-2,0.8c0.1,0.7,1.5,0.9,1.9,1.6
											c0.6,0.8-0.7,1.8-1.6,2C-446,635-446.9,634.4-448.1,634.7z M-449,614.9c0,0.3,0,0.7,0,1c0.4,0.2,0.9-0.1,1.2-0.3
											C-448.1,615.6-448.4,615-449,614.9z M-449,617.3c0,0.2,0,0.8,0.1,0.7C-448.9,617.7-448.9,617.4-449,617.3z M-450.1,620.8
											c0.1-0.1,0.1-0.5,0.1-0.5C-450.1,620.4-450.5,620.7-450.1,620.8z M-451.8,629.5c0,0.1,0,0.3,0,0.4c0.5-0.1,0.7-1,1.4-1.1
											c0-0.2,0.1-0.5-0.1-0.5C-450.6,628.9-451.1,629.3-451.8,629.5z M-450.9,632.8c0.5-0.2,0.4-1.3,0.4-1.8
											C-450.6,631.7-450.6,632.2-450.9,632.8z"/>
										<path d="M-427.4,639.5c0.8,1.1,2,2.2,3,2.9c0.1,0.4-0.1,0.4-0.1,0.9c-1,0.9-2.1,0.2-2.9-0.6c-0.4,0-0.7,0.2-1.1,0.1
											c0.2,0.7,1,0.8,1.5,1.3c0.3,0.3,0.5,0.6,0.5,1.2c-0.7,0.5-1.6,0.1-2.1-0.3c-0.1,1.9-0.1,4-0.8,5.5
											c-0.3,0.2-0.8,0.1-1.2,0.1c-1.3-1.8,0-4.6-0.3-6.8c-0.7-0.5-1.3-1-1.5-1.9c-1,0.8-2,2.6-3.6,2c0.1-0.2,0-0.4-0.1-0.9
											c0.3-0.5,0.4-0.8,0.8-1.3c-0.5-0.3-0.4-0.9-0.3-1.6c-0.1-0.1-0.3-0.1-0.4-0.1c-0.6-1.3,0.4-2.3,1.3-3
											c0.1-1.7,1.6-2.8,2.5-4c-0.5,0.2-0.8,0.7-1.3,0.9c-0.5,0.2-1.1,0.2-1.6,0.4c-0.3,0-0.4-0.6-0.5-0.8
											c0.4-1.7,1.7-2.6,2.6-3.8c-0.2-0.1-0.4,0.3-0.5,0.4c-1.2,0.1-1.8-0.9-1.5-1.7c0.2-0.5,1.4-1.2,1.6-1.7
											c-0.6-0.4-1.5-1-1.4-2.2c0.1-0.8,0.6-1.3,1-1.9c-0.2-0.6-0.3-1.3,0.1-1.7c1.2-0.1,1.6-0.9,2.1-1.7c-0.2-0.3-0.9-1.6-1-2.2
											c-0.1-0.6,0.1-1.1,0.6-1.3c0.2-0.1,0.5,0,0.8-0.2c0.7-0.4,0.7-1.3,1.1-1.9c0.1-0.2,0.6,0,0.4-0.4c0.3,0.5,0.8,0.8,0.8,1.4
											c0.1,0.4-0.2,0.9,0,1.2c0.3,0.6,0.9,1.3,1.3,1.9c0.4,0.7,1.1,1.1,0.9,2c-0.2,0.1-0.4,0-0.6,0.1c-0.4-0.1-0.4-0.6-1-0.5
											c0.7,1.3,2,2,2.9,3.1c-0.2,0.3-0.2,0.7,0,1.1c-0.5,0.3-1.4,0.3-2-0.1c0.9,1,2,1.7,2.6,3c-0.3,0.1-0.2,0.6-0.3,0.9
											c-0.5,0-0.9,0.1-1.3-0.1c0.4,0.8,1.6,1.3,1.4,2.5c0.1,0.1,0.1,0.3,0.2,0.3c-0.1,0.2-0.4,0.5-0.2,0.9
											c-0.7,0.1-1.3,0-1.7-0.3c1.4,1.3,3.3,2.5,4.1,4.3c-0.2,0.4-0.3,0.8-0.4,1.2c-0.7,0.1-1.2-0.2-1.7,0
											c-0.6-0.3-1.1-0.7-1.6-1.1c-0.1,0.9,1.9,2.3,0.5,3.1c0.3,0.4,0.6,1,0.3,1.5C-426.1,640.3-426.9,640-427.4,639.5z
											 M-429.5,617.3l-0.1,0.1c0,0.2,0.1,0.3,0.2,0.3C-429.4,617.6-429.4,617.5-429.5,617.3z M-430.3,628.4
											c-0.4,0.8-1.2,1.6-1.2,2.5c0.8-0.1,0.6-1.4,1.3-1.5C-430.1,628.9-430,628.7-430.3,628.4z M-430.3,626.7
											c-0.3,0.3-0.7,0.5-1,0.9C-430.8,627.6-429.9,627.3-430.3,626.7z M-430.4,633.1c-0.1,0.2-0.1,0.5-0.3,0.6
											C-430.4,633.7-430.1,633.3-430.4,633.1z M-431.3,640.8c0.3,0,0.5,0.2,0.7,0.1c0-0.4,0.2-0.6,0-1
											C-430.8,640.3-431.1,640.4-431.3,640.8z"/>
										<path d="M-425.1,636.1c0.4-0.6,1.2-0.6,1.8-0.9c1.4-0.7,2.7-1.7,3.6-2.8c-0.8,0.2-1.7,1.4-2.8,0.7c-0.5-0.3-1.1-1.3-1-1.9
											c0.1-0.8,1.2-1.2,1.5-2c-0.7-0.4-1.7-1.5-1.2-2.2c0.5-0.6,1.7-0.3,2.3-0.9c-0.3-0.9-1.4-1.2-1.1-2.7
											c0.6-0.9,2-0.8,2.7-1.7c0.1-0.2,0.1-0.5,0.2-0.6c0.5,0.1,1,0.3,1.3,0.6c0.1,0.3-0.1,0.4-0.3,0.6c0.1,0.3,0.3,0.5,0.4,0.8
											c1.5,0.7,2.9,1.7,3.6,2.9c0,0.3-0.1,0.5-0.3,0.7c-0.7,0-1.2,0-1.7-0.1c0.4,1.5,1.9,1.9,2.5,3.2c-0.1,0.2-0.1,0.5-0.2,0.7
											c-0.8,0.7-1.7-0.4-2.5-0.1c0.6,1.3,2,1.7,2.6,3c-0.2,0.7-0.7,1-1.7,0.8c0.1,0.7,1.5,0.9,1.5,1.7c0,0.5-0.7,0.9-1.6,0.6
											c0.7,0.7,1.4,1.9,0.9,3c-0.3,0-0.9,0.2-1.1-0.1c0.8,0.7,1.9,1.8,2.4,2.9c-0.2,0.2-0.3,0.4-0.2,0.8
											c-1.3,0.6-2.4,0.1-3.5-0.4c0.4,0.5,1.4,0.8,1.7,1.5c0,0.3-0.3,0.3-0.3,0.6c-0.7,0.1-1.5,0-2.2-0.5
											c-0.2,0.9-0.1,1.7-0.1,2.5c-0.1,1.1-0.4,1.9-0.4,3.2c0,1.2-0.1,2.9-0.9,3.9c-0.3,0-0.4-0.1-0.6-0.1
											c-0.5-0.6-0.7-1.7-0.6-2.7c0-0.5,0.3-0.9,0.3-1.4c0.2-1.6,0.1-3.7,0.1-5c0-0.7,0-1.1,0.1-1.8c-1,0.2-2,0.9-2.9,1.3
											c-0.1,0.1-0.8,0.3-1,0.3c-0.7,0-1.3-0.8-1.3-1.3c0.1-0.7,1.3-1,1.5-1.6c-1-0.1-2.1-0.7-2.2-1.5c-0.1-1.2,1.8-1.1,2.4-2
											C-424.1,637.9-425,637.2-425.1,636.1z M-417.5,637.1c-0.1,0.2,0.1,0.3-0.1,0.5c0.2,0,0.4,0,0.4-0.2
											C-417.3,637.3-417.3,637.1-417.5,637.1z M-418.1,627c0,0.2-0.1,0.6,0.1,0.6C-417.9,627.5-417.9,627.2-418.1,627z
											 M-420.4,635.1c0.4,0,0.6,0.2,0.9,0.3c0.1-0.3,0.1-0.7,0.1-1.1C-419.8,634.5-420.1,634.6-420.4,635.1z M-420.4,641.3
											c0.1,0,0.2,0.1,0.4,0.1c-0.1-0.4,0.3-0.4,0.3-0.7C-420,640.6-420.3,641-420.4,641.3z"/>
										<path d="M-389,634.8c0.6,1,2.7,1,2.6,2.4c-0.1,0.9-1.4,1.5-2.6,1.6c0.2,0.7,1.6,1,1.6,1.9c0,0.7-0.8,1.4-1.5,1.5
											c-0.2,0-1-0.3-1.2-0.4c-1-0.5-2.1-1.4-3.2-1.6c0.1,0.8,0,1.3,0,2c-0.1,1.4-0.3,3.8-0.2,5.7c0,0.6,0.3,1.1,0.3,1.6
											c0,1.1-0.3,2.3-0.9,3c-0.3-0.1-0.4,0.1-0.7,0c-0.8-1.1-0.9-3.2-0.8-4.5c0.1-1.5-0.3-2.4-0.3-3.7c0-0.9,0.2-1.9,0-2.9
											c-0.7,0.5-1.7,0.7-2.5,0.5c0-0.3-0.3-0.4-0.3-0.7c0.4-0.8,1.6-1.1,2-1.7c-1.3,0.6-2.6,1.1-4,0.3c0.2-0.4,0-0.7-0.2-0.9
											c0.6-1.2,1.9-2.4,2.8-3.1c-0.3,0.3-0.9,0.1-1.3,0c-0.6-1.3,0.4-2.6,1.2-3.4c-1,0.2-1.8-0.2-1.8-0.8c0-0.9,1.7-1.1,1.8-1.9
											c-1.1,0.2-1.6-0.2-1.8-1c0.7-1.5,2.4-1.8,3.1-3.3c-0.9-0.3-2,0.8-2.8,0c-0.1-0.3-0.1-0.6-0.2-0.8c0.8-1.4,2.5-1.8,3-3.5
											c-0.6,0.2-1.1,0.1-2,0c-0.1-0.2-0.2-0.5-0.3-0.8c0.9-1.3,2.6-2.4,4.3-3.1c0.1-0.3,0.4-0.6,0.6-0.9
											c-0.1-0.2-0.3-0.3-0.3-0.7c0.4-0.4,0.9-0.5,1.6-0.7c0.1,0.2,0.1,0.5,0.2,0.7c0.7,1,2.4,1,3,2c0.2,1.7-1,2-1.5,3
											c0.6,0.8,2.1,0.5,2.6,1.2c0.6,0.8-0.7,2-1.5,2.5c0.2,1,1.4,1.4,1.6,2.4c0.1,0.7-0.7,1.8-1.3,2.1c-1.3,0.7-2.2-0.6-3.2-1
											c1,1.4,2.4,2.5,4,3.4c0.7,0.4,1.5,0.4,2,1.1C-387.1,634-388.1,634.8-389,634.8z M-396.1,633.8c0,0.2,0.2,0.2,0.4,0.2
											c-0.1-0.2,0-0.3,0-0.6C-396,633.5-396,633.7-396.1,633.8z M-394.8,622.7c0.3,0,0.1-0.5,0.2-0.7
											C-394.8,622.1-394.8,622.5-394.8,622.7z M-393.5,630.4c0,0.4-0.1,0.9,0,1.2c0.3-0.1,0.6-0.2,1-0.2
											C-392.6,630.8-393,630.6-393.5,630.4z M-393.5,637.7c0,0.4,0.4,0.4,0.3,0.8c0.2,0.1,0.3,0,0.5,0
											C-392.9,638.1-393.1,637.6-393.5,637.7z"/>
									</g>
								</g>
							</g>
						</g>
					</g>
				</g>
			</g>
			<rect x="-478.9" y="409" class="st2" width="141.7" height="255.1"/>
			<g>
				<path d="M-343.6,654.4h-128.7V423.6h128.7V654.4z M-468.4,650.4h120.8V427.6h-120.8V650.4z"/>
			</g>
			<g>
				<rect x="-460.5" y="416.3" class="st1" width="104.9" height="35.6"/>
				<path d="M-354.6,452.8h-106.9v-37.5h106.9V452.8z M-459.5,450.8h102.9v-33.5h-102.9V450.8z"/>
			</g>
			<g>
				<rect x="-457.6" y="419.1" class="st1" width="99.2" height="29.9"/>
				<path d="M-357.9,449.5h-100.2v-30.9h100.2V449.5z M-457.1,448.5h98.2v-28.9h-98.2V448.5z"/>
			</g>
			<g>
				<path class="st3" d="M-432.6,428.4c0,1.9-0.3,3.2-1,4c-0.8,1-1.9,1.5-3.3,1.5c-0.7,0-1.4-0.2-2.2-0.7c-0.5-0.3-1-0.8-1.3-1.5
					s-0.5-1.4-0.5-2.1c0-0.5,0.1-0.9,0.4-1.3c0.2-0.3,0.4-0.5,0.6-0.5c0.3,0,0.5,0.2,0.5,0.7c0.1,1.2,0.3,2,0.6,2.5
					c0.5,0.8,1.1,1.1,2,1.1c0.7,0,1.3-0.3,1.8-1c0.4-0.5,0.6-1.3,0.6-2.5c0-2-0.1-3.3-0.3-3.9c-0.1-0.3-0.2-0.5-0.2-0.6
					c0-0.4,0.2-0.7,0.6-0.7c0.2,0,0.5,0.1,0.8,0.4c0.4,0.4,0.6,0.8,0.7,1.3C-432.6,426-432.6,427.1-432.6,428.4z"/>
				<path class="st3" d="M-424.5,433.1c0,0.5-0.3,0.8-0.8,0.8c-0.4,0-0.8-0.2-1.1-0.6c0-0.1-0.1-0.1-0.1-0.2
					c-0.1,0.1-0.3,0.2-0.4,0.2c-0.9,0.3-1.6,0.5-2.3,0.5c-0.5,0-0.9-0.2-1.4-0.5c-0.7-0.5-1.1-1.1-1.1-2c0-0.7,0.2-1.2,0.6-1.7
					c0.5-0.5,1.4-1,3-1.3c0.7-0.2,1.2-0.3,1.4-0.6c0-0.3-0.1-0.5-0.2-0.6c-0.1-0.1-0.2-0.2-0.4-0.2c-0.2,0-0.5,0.1-0.9,0.2l-0.7,0.5
					c-1,0.4-1.6,0.5-1.8,0.5c-0.3,0-0.5-0.1-0.7-0.3s-0.2-0.3-0.2-0.5c0-0.3,0.2-0.6,0.6-0.9c0.1-0.1,0.2-0.1,0.4-0.1
					c0.1,0,0.2,0,0.4-0.1c1.1-0.5,2.1-0.7,2.7-0.7c1.4,0,2.2,0.7,2.5,2c0.1,0.3,0.1,0.7,0.1,1.1v0.6c0,0.3-0.1,0.7-0.1,1.2
					c0,0.2,0,0.6,0,1.2c0,0.3,0,0.5,0.1,0.6c0,0.1,0.1,0.3,0.2,0.5C-424.5,432.8-424.5,433-424.5,433.1z M-426.6,429.6
					c-0.3,0.2-0.7,0.3-1.3,0.5c-0.8,0.2-1.3,0.4-1.5,0.6s-0.3,0.5-0.3,0.8c0,0.3,0.2,0.4,0.5,0.5c0.2,0.1,0.5,0.1,0.7,0.1
					c0.6,0,1.2-0.1,1.7-0.4c0-0.1,0-0.2,0-0.4C-426.8,431.1-426.8,430.5-426.6,429.6z"/>
				<path class="st3" d="M-416.5,429.5c0,0.9-0.2,1.6-0.5,2.4c-0.3,0.8-0.8,1.4-1.4,1.7c-0.4,0.2-0.9,0.4-1.4,0.4
					c-0.3,0-0.7-0.1-1.2-0.3c-0.2-0.1-0.5-0.2-0.7-0.4c0,1.2-0.2,1.9-0.4,2.2c-0.1,0.2-0.3,0.3-0.5,0.3c-0.3,0-0.5-0.1-0.6-0.3
					c-0.2-0.3-0.4-0.8-0.4-1.4c0-0.8,0-1.8,0.1-2.9c0-1.3,0.1-2.1,0.1-2.3c0-1.1-0.1-1.9-0.2-2.3c0-0.2-0.1-0.3-0.1-0.3
					c0-0.2,0.1-0.3,0.2-0.5c0.1-0.1,0.2-0.2,0.4-0.2c0.2,0,0.4,0.1,0.6,0.3c0.1,0.1,0.2,0.3,0.4,0.5h0.1c0.1,0,0.3-0.1,0.6-0.3
					c0.6-0.3,1.2-0.4,1.7-0.4c0.6,0,1.1,0.1,1.5,0.4c0.5,0.3,0.9,0.8,1.2,1.4C-416.6,428-416.5,428.8-416.5,429.5z M-418.1,429.5
					c0-0.7-0.2-1.2-0.5-1.7c-0.3-0.4-0.7-0.6-1.2-0.6c-0.3,0-0.7,0.1-1.1,0.3c-0.1,0.1-0.4,0.2-0.6,0.3c0,0.6,0.1,1.9,0.1,3.8
					c0,0,0.1,0,0.1,0.1c0.5,0.4,1,0.6,1.5,0.5c0.5,0,1-0.3,1.3-0.9C-418.4,430.8-418.1,430.2-418.1,429.5z"/>
				<path class="st3" d="M-408.6,433.1c0,0.5-0.3,0.8-0.8,0.8c-0.4,0-0.8-0.2-1.1-0.6c0-0.1-0.1-0.1-0.1-0.2
					c-0.1,0.1-0.3,0.2-0.4,0.2c-0.9,0.3-1.6,0.5-2.3,0.5c-0.5,0-0.9-0.2-1.4-0.5c-0.7-0.5-1.1-1.1-1.1-2c0-0.7,0.2-1.2,0.6-1.7
					c0.5-0.5,1.4-1,3-1.3c0.7-0.2,1.2-0.3,1.4-0.6c0-0.3-0.1-0.5-0.2-0.6c-0.1-0.1-0.2-0.2-0.4-0.2s-0.5,0.1-0.9,0.2l-0.8,0.3
					c-1,0.4-1.6,0.5-1.8,0.5c-0.3,0-0.5-0.1-0.7-0.3c-0.2-0.2-0.2-0.3-0.2-0.5c0-0.3,0.2-0.6,0.6-0.9c0.1-0.1,0.2-0.1,0.4-0.1
					c0.1,0,0.2,0,0.4-0.1c1.1-0.5,2.1-0.7,2.7-0.7c1.4,0,2.2,0.7,2.5,2c0.1,0.3,0.1,0.7,0.1,1.1v0.6c0,0.3-0.1,0.7-0.1,1.2
					c0,0.2,0,0.6,0,1.2c0,0.3,0,0.5,0.1,0.6c0,0.1,0.1,0.3,0.2,0.5C-408.6,432.8-408.6,433-408.6,433.1z M-410.8,429.6
					c-0.3,0.2-0.7,0.3-1.3,0.5c-0.8,0.2-1.3,0.4-1.5,0.6s-0.3,0.5-0.3,0.8c0,0.3,0.2,0.4,0.5,0.5c0.2,0.1,0.5,0.1,0.7,0.1
					c0.6,0,1.2-0.1,1.7-0.4c0-0.1,0-0.2,0-0.4C-410.9,431.1-410.9,430.5-410.8,429.6z"/>
				<path class="st3" d="M-400.9,433c0,0.2-0.1,0.4-0.3,0.6c-0.2,0.2-0.4,0.3-0.6,0.3c-0.5-0.1-0.8-0.3-1-0.9
					c-0.1-0.2-0.1-0.5-0.1-1c0-1,0-1.9,0.1-2.5c0-1.1-0.1-1.7-0.2-1.9c-0.1-0.2-0.3-0.3-0.5-0.3c-0.3,0-0.7,0.1-1.1,0.4l-0.8,0.4
					c-0.1,0-0.2,0.1-0.3,0.2c0,0.4,0,1.1,0,2.2v1.7c0,0.6-0.1,1-0.3,1.3c-0.2,0.3-0.3,0.4-0.6,0.4c-0.2,0-0.4-0.1-0.5-0.3
					c-0.4-0.3-0.6-0.9-0.6-1.5c0-0.3,0-0.8,0.1-1.5c0.1-0.9,0.1-1.7,0.2-2.5c0-0.6-0.1-1.1-0.3-1.5c-0.1-0.2-0.1-0.4-0.1-0.5
					c0-0.2,0-0.4,0.1-0.5c0.1-0.1,0.3-0.2,0.5-0.2s0.4,0.1,0.7,0.3c0.2,0.2,0.4,0.4,0.5,0.6c0.1,0,0.1-0.1,0.2-0.1
					c0.6-0.3,1.1-0.5,1.5-0.6c0.4-0.1,0.8-0.2,1.1-0.2c0.4,0,0.8,0.1,1.2,0.3c0.4,0.3,0.7,0.8,0.9,1.4c0.1,0.6,0.2,1.5,0.2,2.7
					c0,0.3,0,0.7,0,1.2s0,0.9,0,1.2c0,0.1,0,0.2,0.1,0.4C-400.9,432.8-400.9,432.9-400.9,433z"/>
				<path class="st3" d="M-392.8,433.1c0,0.5-0.3,0.8-0.8,0.8c-0.4,0-0.8-0.2-1.1-0.6c0-0.1-0.1-0.1-0.1-0.2
					c-0.1,0.1-0.3,0.2-0.4,0.2c-0.9,0.3-1.6,0.5-2.3,0.5c-0.5,0-0.9-0.2-1.4-0.5c-0.7-0.5-1.1-1.1-1.1-2c0-0.7,0.2-1.2,0.6-1.7
					c0.5-0.5,1.4-1,3-1.3c0.7-0.2,1.2-0.3,1.4-0.6c0-0.3-0.1-0.5-0.2-0.6c-0.1-0.1-0.2-0.2-0.4-0.2c-0.2,0-0.5,0.1-0.9,0.2l-0.8,0.3
					c-1,0.4-1.6,0.5-1.8,0.5c-0.3,0-0.5-0.1-0.7-0.3c-0.1,0.1-0.1-0.1-0.1-0.3c0-0.3,0.2-0.6,0.6-0.9c0.1-0.1,0.2-0.1,0.4-0.1
					c0.1,0,0.2,0,0.4-0.1c1.1-0.5,2.1-0.7,2.7-0.7c1.4,0,2.2,0.7,2.5,2c0.1,0.3,0.1,0.7,0.1,1.1v0.6c0,0.3-0.1,0.7-0.1,1.2
					c0,0.2,0,0.6,0,1.2c0,0.3,0,0.5,0.1,0.6c0,0.1,0.1,0.3,0.2,0.5C-392.9,432.8-392.8,433-392.8,433.1z M-395,429.6
					c-0.3,0.2-0.7,0.3-1.3,0.5c-0.8,0.2-1.3,0.4-1.5,0.6s-0.3,0.5-0.3,0.8c0,0.3,0.2,0.4,0.5,0.5c0.2,0.1,0.5,0.1,0.7,0.1
					c0.6,0,1.2-0.1,1.7-0.4c0-0.1,0-0.2,0-0.4C-395.1,431.1-395.1,430.5-395,429.6z"/>
				<path class="st3" d="M-383.3,433c0,0.3-0.1,0.5-0.3,0.7c-0.2,0.2-0.4,0.3-0.6,0.3c-0.7,0-1-0.6-1-1.9c0-0.4,0-1,0.1-1.8
					c0-0.8,0.1-1.4,0.1-1.8s0-0.6-0.1-0.8c-0.1-0.2-0.2-0.2-0.4-0.2c-0.2,0-0.4,0.1-0.7,0.2l-0.7,0.1c0,0.5,0,0.9,0,1.3v2.7
					c0,0.5,0,0.8,0.1,1.1c0,0.3-0.1,0.5-0.3,0.7c-0.2,0.2-0.4,0.2-0.6,0.2c-0.6-0.1-0.8-0.7-0.8-1.8c0-0.3,0-0.6,0-0.9
					c0-0.6,0.1-1.1,0.1-1.6v-1.4c0-0.3,0-0.6-0.1-0.8c-0.1-0.1-0.2-0.2-0.3-0.2c-0.2,0-0.5,0.1-0.9,0.3c-0.1,0.1-0.3,0.1-0.4,0.2
					c0,0.1,0,0.2,0,0.3c0,0.1,0,0.2,0,0.3v3.2c0,1.1-0.1,1.8-0.3,2c-0.2,0.2-0.3,0.3-0.5,0.3s-0.3-0.1-0.5-0.3
					c-0.3-0.4-0.5-1-0.5-1.7c0,0.1,0-0.6,0.1-2.1c0-0.6,0.1-1.3,0.1-2s-0.1-1.1-0.2-1.4c0-0.1-0.1-0.2-0.1-0.3
					c0-0.4,0.2-0.7,0.5-0.7c0.2,0,0.4,0.1,0.5,0.2c0.1,0.1,0.3,0.3,0.4,0.5c0.2-0.1,0.5-0.3,0.9-0.4c0.5-0.2,0.8-0.3,1.1-0.3
					s0.5,0.1,0.8,0.3c0.1,0.1,0.2,0.2,0.3,0.4c0.3-0.2,0.5-0.3,0.8-0.4c0.5-0.2,0.9-0.3,1.3-0.3c0.7,0,1.2,0.4,1.5,1.1
					c0.1,0.3,0.2,1,0.2,2.1c0,0.4,0,0.9,0,1.6c0,0.8,0,1.3,0,1.6s0,0.6,0.1,0.8C-383.4,432.8-383.3,433-383.3,433z"/>
				<path class="st3" d="M-375.3,429.2c0,0.4-0.1,0.6-0.4,0.8c-0.3,0.2-0.6,0.3-1.1,0.3h-3.9c0,0.3,0.1,0.5,0.3,0.8
					c0.4,0.7,1,1.1,1.8,1.2c0.6,0,1.3-0.5,2-1.3c0.1-0.2,0.3-0.2,0.5-0.2c0.1,0,0.3,0.1,0.4,0.2c0.1,0.1,0.1,0.3,0.2,0.4
					c0,0.4-0.2,0.8-0.4,1.1c-0.3,0.4-0.7,0.8-1.2,1.1c-0.5,0.3-0.9,0.4-1.5,0.4c-0.7,0-1.4-0.2-2.1-0.7c-1.2-0.8-1.7-2-1.7-3.5
					c0-0.8,0.2-1.5,0.6-2.3c0.3-0.6,0.8-1.1,1.4-1.5c0.6-0.4,1.2-0.5,1.8-0.5s1.2,0.2,1.7,0.5c0.6,0.4,1,0.9,1.4,1.5
					C-375.5,428.1-375.3,428.6-375.3,429.2z M-377.1,428.5c0-0.1-0.1-0.3-0.3-0.6c-0.4-0.5-0.9-0.8-1.4-0.8c-0.3,0-0.7,0.1-1,0.3
					c-0.4,0.3-0.7,0.7-0.9,1.2h2.8C-377.4,428.7-377.1,428.6-377.1,428.5z"/>
			</g>
			<polygon class="st1" points="-353.1,588.3 -340.3,593.7 -340.3,658.9 -383.8,657.1 -391.8,649.3 			"/>
			<g>
				<path class="st4" d="M-343.6,612.6c-1.4-1.2-3.8-1.6-6.1-1.8c-0.5-0.8-0.3-2.1-1-2.9c0-0.3,0.1-0.5,0-0.9
					c-0.1-0.2-0.4-0.3-0.5-0.5c1.9-0.3,3.7-1.2,4.1-3.2c-0.7-1.9-3.3-1.9-5-3c0.9-0.2,1.7,0.1,2.5,0c1-0.1,1.8-0.8,2.8-0.9
					c0.3-0.4,0.6-0.4,1-0.7c0.9-0.8,0.6-2.7-0.2-3.6c-0.7-0.7-1.4-1-2.1-1.4c-0.5-0.2-1-0.5-1.5-0.6c-3-0.7-6.3-1.2-9.8-1
					c-1.6,0.1-3.3,0-5.1-0.1c0.2-0.5,0.8-0.8,1.2-1.2c0.2-0.2,0.2-0.6,0.4-0.9c0.2-0.3,0.5-0.4,0.6-0.7c0.2-0.4,0.3-1,0.4-1.5
					c0.2-1,0.3-2.2,0.3-3.2c0-0.8-0.2-1.6-0.3-2.3c0-0.4,0.3-0.8-0.1-1.1c-0.5-0.1-0.8,0.7-1.7,0.5c-1.6,1-2.6,2.5-3.5,4.4
					c-1,2-1.2,4.2-1.5,6.5c-0.6,0.1-1.6,0.1-2.1,0c0.2-0.4,0.1-0.9,0-1.3c0.5-1,0.3-2.4,0.6-3.5c0.1-0.2,0.2-0.4,0.3-0.7
					c0.2-0.8,0.2-1.7,0.5-2.4c0.3-0.9,0.9-1.8,0.9-2.8c-0.3-0.2-0.7,0.2-0.8,0.1c-0.2-0.1,0.2-0.4-0.1-0.4c-0.2,0.1-0.5,0-0.8,0.1
					c-1.1,0.4-2.5,1.6-3.5,2.6c-1.2,1.1-2.1,2.5-2.3,3.9c-0.2,0.9,0.2,1.4,0.4,2.3c0.3,1.2,0.4,2.2,1,3c-4.7,1.8-9.7,3.7-10.9,9.1
					c-1.5,2.3-2.3,5.3-2.1,8.8c0.3,4.5,1.5,10.1,3.7,12.6c-0.5,0.6-1.4,2.1-0.6,3c1.7,2.2,7.7,2.5,10.7,2.8
					c-0.2,0.1-0.4,0.2-0.5,0.3c0.1,0.2,0.1,0.6,0.1,0.9c-0.7-0.1-0.9,0.3-1.5,0.2c-0.5,0.5-1.3,0.4-2,0.7c-1.1,0.5-2.7,2.4-2.9,3.4
					c-0.4,1.7,0.8,2.4,1.7,3.2c-3.2-0.1-5.3,1.4-5.9,3.3l-0.5,0.2c-0.4-0.5-0.9-0.9-1.5-1.2c0.3,0.5,0.7,1.1,1,1.7
					c0.1,0.1,0.1,0.2,0.2,0.3l-0.4,0.3c-0.7-1.1-1.3-2.2-2.3-3c0.1,0.3,0.2,0.4,0.1,0.8c0.6,0.6,0.8,1.6,1.3,2.4l-0.6,0.2
					c-0.4-0.8-0.9-1.8-1.5-2.2c0.7,1.6,0.7,3.8,2.2,4.6l-0.3,0.7c-0.5,3.8,4.4,5.4,6.8,3.5c0.1-0.4,0.4-0.7,0.7-0.9h0.1
					c1.7,0.8,4.6,0.4,6.6,1.1c1.1,0.3,2,0.5,2.9,1c-0.3,1.3-0.1,2.3,0.5,3c0.2,0.3,0.5,0.4,0.7,0.7c0.5,1.1-0.1,2.8-0.2,3.9
					c0.7,0.1,1.3-0.5,1.6-1.3l0.6,0.2c-0.1,0.3-0.2,0.5-0.4,0.8c0.5,0.1,1-0.4,1.3-1l0.2,0.1c-0.1,0.2-0.2,0.4-0.2,0.7
					c1,0.7,1.4-0.8,2-1.2c0.1-0.7,0.7-0.9,0.8-1.6c0-0.3-0.5-0.4-0.4-0.5c2.8,0.7,5.3-0.9,6-2.9c0.7,0,1.1-0.4,1.5-0.7h0.5
					c1.3-0.8,2.2-1.8,3.6-2.4c0.1-0.2,0.2-0.4,0.3-0.6c0.6-0.2,0.7-0.6,1-0.9c0.2-0.3,0.6-0.4,0.9-0.7c0.6-0.6,1.2-1.6,1.4-2.3
					c0.1-0.3,0.5-0.5,0.6-0.7s0-0.4,0.1-0.6c0.1-0.3,0.5-0.6,0.6-0.9s0-0.6,0.1-0.9c0.1-0.3,0.3-0.5,0.4-0.8c0.1-0.3,0-0.6,0.1-0.9
					c0.1-0.4,0.3-0.7,0.3-1.1c0.4-2.9-0.4-5.7-0.7-8.7c-0.5-0.6-0.8-1.3-1.4-1.8c0-1.3-0.7-2.9-2-3v-0.3c2.5,0.3,4.2-1.9,6.3-2.7
					c0.2-0.6,0.5-1.1,0.5-1.9c-0.6-1.1-1.5-1.8-2.8-2.2c1.5-0.8,3.5-1.2,3.9-2.8C-342,614.2-342.9,613.2-343.6,612.6z"/>
				<g>
					<path d="M-360.6,619c-0.1-0.2-0.1-0.5-0.2-0.6c-0.3-0.4-1.3-0.7-1.8-0.6c-0.3,0.1-0.9,0.8-1.1,1c-0.2,0.3-0.6,1.7-0.5,2.1
						c0.1,0.4,1,0.9,1.6,1.1c1.1,0.3,2-0.1,2.5-0.8c0.1-0.6,0.1-1.2-0.1-1.8C-360.4,619.3-360.6,619.2-360.6,619z"/>
					<path d="M-366.3,655.6c-0.1,1.2-0.5,2.1-1,3C-366,658.7-364.9,656.1-366.3,655.6z"/>
					<path d="M-377,618.2c-0.5-0.3-0.9,0-1.4-0.2c-0.5,0.7-1.2,0.6-1.6,1.4c-0.4,0.8,0.4,2.3,1.2,2.7c1,0.5,2.5-0.2,2.8-1.5
						C-375.9,620-376.5,618.6-377,618.2z"/>
					<path d="M-383.9,644.6c0.4-0.8-0.3-1.3-0.8-1.8c-0.7-0.8-1.3-1.7-2.2-2.1c0.3,0.5,0.7,1.1,1,1.7
						C-385.3,643.3-384.9,644.3-383.9,644.6z"/>
					<path d="M-388.3,640.8c0.9,1,1,2.9,2.4,3.5c0.1-0.2,0.3-0.3,0.2-0.6c-0.9-1.2-1.6-2.7-2.8-3.7
						C-388.4,640.2-388.1,640.4-388.3,640.8z"/>
					<path d="M-343.6,612.6c-1.4-1.2-3.7-1.6-6.1-1.8c-0.5-0.8-0.3-2.1-1-2.9c0-0.3,0.1-0.5,0-0.9c-0.1-0.2-0.4-0.3-0.6-0.5
						c2-0.3,3.7-1.2,4.1-3.2c-0.7-1.9-3.4-1.9-5-3c0.9-0.2,1.7,0.1,2.5,0c1-0.1,1.8-0.8,2.8-0.9c0.3-0.4,0.6-0.4,1-0.7
						c0.9-0.8,0.6-2.7-0.2-3.6c-0.7-0.7-1.4-1-2.1-1.3c-0.5-0.2-1-0.5-1.5-0.6c-3-0.7-6.2-1.2-9.8-1c-1.6,0.1-3.3,0-5.1-0.1
						c0.2-0.5,0.8-0.8,1.2-1.2c0.2-0.2,0.2-0.6,0.4-0.9c0.2-0.3,0.5-0.4,0.6-0.7c0.2-0.4,0.3-1,0.4-1.5c0.2-1,0.2-2.2,0.3-3.2
						c0-0.8-0.2-1.6-0.3-2.4c0-0.4,0.3-0.8-0.1-1.1c-0.5-0.1-0.8,0.7-1.7,0.5c-1.6,1-2.6,2.5-3.5,4.4c-1,1.9-1.2,4.2-1.5,6.5
						c-0.6,0.1-1.6,0.1-2.1,0c0.2-0.4,0.2-0.9,0-1.3c0.5-1,0.3-2.4,0.6-3.5c0.1-0.2,0.2-0.4,0.3-0.7c0.2-0.8,0.2-1.7,0.5-2.4
						c0.3-0.9,0.9-1.8,0.9-2.8c-0.3-0.2-0.7,0.2-0.8,0.1c-0.2-0.1,0.2-0.4-0.1-0.4c-0.2,0.1-0.5,0-0.8,0.1c-1.1,0.4-2.5,1.6-3.5,2.6
						c-1.1,1.1-2.1,2.5-2.3,3.9c-0.1,0.9,0.2,1.4,0.4,2.3c0.3,1.2,0.4,2.2,1,3c-4.7,1.8-9.7,3.7-10.9,9.1c-1.5,2.4-2.3,5.3-2.1,8.8
						c0.3,4.5,1.5,10.1,3.7,12.6c-0.5,0.6-1.4,2.1-0.6,3c1.7,2.2,7.7,2.5,10.7,2.8c-0.2,0.1-0.4,0.1-0.5,0.3
						c0.1,0.2,0.1,0.6,0.1,0.9c-0.6-0.1-0.9,0.3-1.5,0.2c-0.5,0.5-1.3,0.4-2,0.7c-1.1,0.5-2.7,2.4-2.9,3.4c-0.4,1.7,0.8,2.4,1.7,3.2
						c-3.2-0.1-5.3,1.4-6,3.3c0.5,0.2,0.6-0.2,1.3-0.1c0.7-0.6,1.4-1.4,2.4-1.8c0.9-0.3,2.1-0.7,3.3-0.5c1.1,0.2,2.1,1.4,2.8,0.4
						c-0.2-0.5-1-0.5-1.2-0.8c2.1-0.1,4-0.3,5-1.4c0.2-0.2,0.1-0.6,0.6-0.7c0.6,0.1,2.1,0.3,2.3-0.5c-0.1-0.4-0.8-0.1-1-0.3
						c0.5-0.1,0.7-0.4,1-0.7c0.3,0,1.4,0.1,1.7-0.1c-0.3-0.6-1.6-0.3-2.4-0.3c-0.1,0.3-0.5,0.4-0.8,0.6c-0.4,0.3-0.7,0.8-1.1,0.9
						c-2,0.6-4.4,1.9-7.1,1.3c-0.4-0.4-1-0.5-1.2-1c-0.4-0.9,0.2-2,0.6-2.6c0.4-0.5,0.7-1,1.2-1.3s1-0.7,1.4-0.9
						c0.7-0.4,1.5-0.4,2.1-0.7c0.6,0.4,1.5,1,2.6,1.2c-2.2,0.6-4,1.2-5.9,2.1c0.8-0.1,1.7,0.2,2.7,0c0.2-0.1,0.5-0.3,0.8-0.4
						c1.2-0.5,2.8-0.8,3.5-1.4c0.1-1,0.6-1.7,0.9-2.6c0.4,0.4,0.7,0.9,0.6,1.8c-0.3,0.1-0.8,0-1,0c0.6,0.6,1.8,0.5,2.4,1.1
						c-0.6,0-1.4-0.1-1.7,0.2c0.2,0,0.3,0.1,0.5,0.1c-0.2,0-0.4,0.1-0.5,0.1c0.9,0.2,1.7,0.3,2.5,0.3c0.1,0,0.3,0.1,0.4,0.1
						c0.1-0.1,0.1-0.2,0.2-0.2c0.7,0.3,1.7,0.3,2.8,0.4c1.3,0.1,2.7,0.8,2.6-0.4c-1.6-0.3-3.8-0.4-5.4-0.1c0.1-0.2,0-0.4,0-0.7
						c-0.2-0.3-0.9-0.4-0.8-0.6c1.6,0.1,3.3-0.7,4.6-1.5c1.3,0.4,2.3,1.2,3.3,2c1,0.8,2.1,1.2,1.7,2.9c-1.4,2.5-5.4,1.9-8.4,1.4
						c-0.9,0.3-2,0.4-2.6-0.1c-0.6,0-1.4,0.2-2.3,0.3c0.5,0.6,1.4,0.1,2.2,0.2c0.4,0.1,0.7,0.5,1.2,0.5c0.9,0.2,1.4-0.1,2.1-0.6
						c1.1,1,3.6,1,5.5,1.1c0.3,1.2,1,2.5,1.2,3.9c0,0.2,0,0.5,0.1,0.7c0.2,0.7,0.7,1.4,0.8,2.1c0.3,1.5,0.2,3.1-0.5,4.2
						c0,0.3,0,0.3,0,0.7c-1.5,2-3,3.9-6.6,3.9c-0.2,0-0.2-0.5-0.4-0.3c-0.3,0.5,0.3,0.8,0.6,1.1c-0.5,1.2-1.3,2.1-1.7,3.4
						c1,0.7,1.4-0.8,2-1.2c0.1-0.7,0.7-0.9,0.8-1.6c0-0.3-0.5-0.4-0.4-0.5c2.8,0.7,5.3-0.9,6-2.9c0.7,0,1.1-0.4,1.5-0.7h0.5
						c1.3-0.7,2.2-1.8,3.6-2.4c0.1-0.2,0.2-0.4,0.3-0.6c0.6-0.2,0.7-0.6,1-0.9c0.2-0.3,0.6-0.4,0.9-0.7c0.6-0.6,1.2-1.6,1.5-2.3
						c0.1-0.3,0.5-0.5,0.6-0.7s0-0.4,0.1-0.6c0.1-0.3,0.5-0.6,0.6-0.9s0-0.6,0.1-0.9c0.1-0.3,0.3-0.6,0.4-0.8c0.1-0.3,0-0.6,0.1-0.9
						c0.1-0.4,0.3-0.7,0.3-1.1c0.4-2.9-0.4-5.7-0.7-8.7c-0.5-0.6-0.8-1.3-1.4-1.8c0-1.3-0.7-2.9-2-3c0.8,0.7,0.6,2.1,1.1,3
						c0.2,0.4,0.6,0.6,0.7,0.9c0.2,0.8,0.1,1.6,0.1,2.4c0.3,2.7,0.8,5.1,0.1,7.7c-0.3,1.2-0.7,2.4-1.2,3.4c-0.5,1.1-1.4,1.8-1.9,2.8
						c-0.8,0.3-1.1,1-1.7,1.5c-0.5,0.5-1.3,0.7-1.9,1.1c-0.6,0.4-1.1,0.9-1.7,1.1c0.9-1.4,0.4-3.9,0.3-5.4c-0.3-0.9-1-1.5-1.2-2.4
						c-0.1-0.3-0.2-0.6-0.3-0.9c-0.2-0.9-0.6-1.4-1.4-1.9c1.8,0,3.7-1.8,2.6-3.5c0.5-1.4-1-2.8-1.9-3.4c-1-0.7-2.5-1-3.5-1.3
						c0.1-0.3,0.3-0.4,0.3-0.7c-0.2-0.4-0.5-0.7-0.8-1.1c1.7-1.3,4.2-1.4,5.9-2.7c0.3-0.2,0.4-0.5,0.6-0.7c0.7-0.6,1.9-0.7,1.9-1.8
						c1.1-0.7,1.4-2.4,2.4-3.2c-0.1-0.4-0.1-0.7-0.1-1.1c0.3-0.3,0.6-0.6,0.9-0.9c0-0.5,0.1-0.7,0.5-1c-0.2-0.3,0-0.7,0.1-1
						c0.2-1.4,0.2-2.9,0.2-4.6c1,0.3,3.4,0.4,4.4,1.2c0.2,0.2,0.8,0.9,0.8,1.2c0,0.5-0.9,1.5-1.3,2c-0.9,1-2.1,1.8-3.3,2
						c0.7,0.8,1.9,0.4,3.1,0.9c0.6,0.3,1.4,1,1.3,1.6c-0.1,0.4-1.3,1.3-1.7,1.6c-0.4,0.3-0.6,0.5-0.9,0.7s-0.9,0.4-1.1,0.6
						c-0.2,0.2-0.3,0.5-0.5,0.7c-0.1,0.1-0.4,0.2-0.6,0.3c-0.3,0.2-0.7,0.4-0.6,0.5c2.5,0.3,4.2-1.9,6.3-2.7
						c0.2-0.6,0.5-1.1,0.5-1.9c-0.6-1.1-1.5-1.8-2.8-2.2c1.4-0.8,3.5-1.2,3.9-2.8C-342,614.2-342.9,613.2-343.6,612.6z
						 M-367.1,589.5c0.3-0.5,0.5-1.1,0.8-1.8c0.2-0.6,0.6-1.1,0.8-1.7c0.3-0.8,0.4-1.5,0.8-2.2s0.7-1,1.2-1.6
						c0.3-0.3,0.2-0.5,0.8-0.4c-0.5,1.7-0.3,4.3-0.8,6.3c-0.3,1.2-1.4,3.2-2.4,3.8c-0.4,0.2-0.9,0.2-1.5,0.2
						C-367.5,591.2-366.9,590.3-367.1,589.5z M-374.4,588.3c0.1-0.6,0.8-2.5,1.2-3c0.4-0.6,0.8-0.9,1.5-1.4c0.8-0.6,1.5-1.3,2.5-1.6
						c-1.7,2.7-3.3,6.5-2.8,10.4c-0.6,0.3-0.8-0.1-1.3-0.2C-373.9,591.3-374.5,589.9-374.4,588.3z M-384.1,618.7
						c-0.6-2.7-0.8-6.1-0.8-9.2c0.1-2.6,0.9-4.7,1.8-6.7c1.9-1.1,2.6-3.4,4.3-4.7c1.7-1.2,3.7-2,6.1-2.6c1.6-0.4,2.7-0.6,4.7-0.7
						c0.6,0,1.2-0.2,1.8-0.3c2.7-0.3,5.3,0.2,7.7,0.1c-1.5,0.4-2.9,0.2-4.6,0.3c-2.2,0.1-4.6,0.5-6.8,0.9c-2.9,0.6-6.1,1.9-8,3.6
						c-0.7,0.6-1.5,1.5-0.8,2.5c-1,0.4-2,0.8-1.9,2.2c-0.4,0.2-0.2,0.7-0.3,0.9c-0.2,0.2-0.5,0.2-0.8,0.4c-0.4,0.4-0.5,1-1,1.1
						c0.1,0.8,0.2,1.4,0.6,2c-0.9,0.4-1.9,1.1-1.9,2.1c0.1,1.3,1.8,1.7,3.1,1.4c-0.9,0.6-2.2,0.4-3.1,0.9
						C-383.6,614.8-384.1,617-384.1,618.7z M-379.8,626.9c-0.6,0.2-2,0-2.7-0.2c0-0.7,0.4-1.1,0.3-1.7c0.2-0.2,0.6-0.1,0.7-0.3
						c0.7,0.2,1.2,0.6,1.9,0.7c-0.5,0.2-1-0.2-1.5-0.3C-381.1,626-380.6,626.7-379.8,626.9z M-357.8,618.1c0,0.3-0.2,0.6-0.2,1
						c0,1,0.1,3-0.4,3.8c-0.2,0.4-1.2,0.7-2.1,0.8c-1.4,0.1-2.9,0.2-4.6,0.3c-4.4,0.2-8,0.2-12.1,0.2c-1.4,0-3-0.5-4.4-0.5
						c-0.1-1,0.3-1.7-0.1-2.3c0.3-0.8,0.1-1.4-0.2-2.2c0.3-0.6,0-1.2,0.1-1.9c0.1-0.9,0.7-1.8,0.3-2.6c0.1-0.4,0.3-0.6,0.4-1
						c1.5-0.3,2.9-1,4.8-1.1c3-0.1,5.3,0.1,7.9,0.2c1.4,0.1,2.8-0.1,4.1-0.1c2.2,0.1,4.3,0.5,6.4,0.8c0.1,0,0.2,0.1,0.2,0.1
						C-358.1,615.4-357.6,616.6-357.8,618.1z M-352.4,613.4c-0.1,2.1-0.7,4.1-1.3,5.7c-0.2,0.5-0.7,0.9-0.9,1.5
						c-0.7,1.5-1.3,3.2-2.6,3.8c0.1-0.4,0.7-0.8,0.6-1.6c0.8-0.1,0.9-0.7,1.2-1.3c0.2-0.4,0.6-0.6,0.7-0.9c0.1-0.4,0-0.9,0.1-1.4
						c0.2-0.2,0.3-0.5,0.6-0.7c0-0.2,0.1-0.5-0.1-0.5c0.9-2,1.1-3.9,0.8-6.2c0.3-0.1,0.1-0.2,0.2-0.4c0-0.4,0-0.8-0.1-1.1
						s-0.4-0.4-0.8-0.6c0.3-1.3-1-1.6-1.7-2.2c0.5-0.4,1.1-0.6,1.5-1.1c-0.1,1.4,0.7,1.9,1.2,2.7c0.2,0.6,0.3,1.3,0.4,1.9
						c0,0.1,0,0.1,0,0.2l0,0C-352.4,611.9-352.4,612.7-352.4,613.4z"/>
					<path d="M-387.6,643.3c-0.4-0.8-0.9-1.8-1.5-2.1c0.7,1.6,0.7,3.8,2.2,4.6C-386.4,645.1-387.1,644.1-387.6,643.3z"/>
					<path d="M-367.4,655c-0.6-1.1-1.7-2.2-1.1-3.3c1,0.3,2.2,0.5,3,0.8c0.2,0.3,0.6,0.6,1,0.4c0.3-0.1,0.3-0.8,0.1-0.9
						c-1.5-1.6-3.9-2.4-6.6-2.8s-5.8-0.1-8.4-0.2c-0.2,0-0.5-0.1-0.8-0.2c-1.9,0.3-4.2,1-5.3-0.1c-0.2-0.2-0.2-0.5-0.3-0.8
						c-0.4-0.5-0.8-0.9-1.2-1.4c-0.5,3.8,4.4,5.4,6.8,3.5c0.1-0.4,0.4-0.7,0.7-0.9c1.7,0.8,4.6,0.5,6.7,1.1c1.1,0.3,2,0.6,2.9,1
						c-0.3,1.3,0,2.3,0.6,3c0.2,0.3,0.6,0.4,0.7,0.7c0.5,1.1-0.1,2.8-0.2,3.9C-367.6,659.1-366.8,656.3-367.4,655z"/>
				</g>
			</g>
		</g>
	</g>
</g>
<g id="variables">
	<text id="japaname_string" transform="matrix(1 0 0 1 -408.5502 463.6665)" class="st8 st9">舞医家流</text>
	<text id="japaname_code" transform="matrix(1 0 0 1 -408.5502 445.6298)" class="st6" text-anchor="middle">00-0042</text>
	<text id="original_name" transform="matrix(1 0 0 1 -408.5502 597.3333)" class="st10 " text-anchor="middle">michael</text>
	<rect id="qrcode_container" x="-472.4" y="613.2" class="st1" width="41.2" height="41.2"/>
  <text id="japaname_url" transform="matrix(1 0 0 1 -470.9469 660.6295)" class="st6">http://japaname.jp/00-0042</text>
</g>
</svg>
